<svg xmlns="http://www.w3.org/2000/svg" xmlns:xlink="http://www.w3.org/1999/xlink" width="389.998" height="269.519" viewBox="0 0 389.998 269.519"><defs><clipPath id="a"><path d="M332.156,179.58H35.387L0,115.92H367.543Z" transform="translate(0 -115.92)" fill="none"/></clipPath></defs><g transform="translate(0 0.001)"><g transform="translate(0 0.35)"><g transform="translate(192.574)"><path d="M166.41,177.017,170.285.35l23.62.442-3.875,176.225Z" transform="translate(-64.55 -0.35)" fill="#f9c301" stroke="#fff" stroke-miterlimit="10" stroke-width="0.69"/><path d="M140.3,153.335,108.84,21.874l23.107-4.724,31.759,132.735Z" transform="translate(-108.84 12.575)" fill="#f9c301" stroke="#fff" stroke-miterlimit="10" stroke-width="0.69"/><path d="M159.191,161.807,156.13,9.344l23.62-.354,3.061,152.817Z" transform="translate(-72.458 6.297)" fill="#f9c301" stroke="#fff" stroke-miterlimit="10" stroke-width="0.69"/><path d="M147.352,150.255,134.17,11.027,157.684,9.01l13.235,139.582Z" transform="translate(-89.353 6.312)" fill="#f9c301" stroke="#fff" stroke-miterlimit="10" stroke-width="0.69"/><path d="M187.731,137.178,167.083,17.66,143.71,20.9l20.082,116.28Z" transform="translate(-82.014 12.967)" fill="#f9c301" stroke="#fff" stroke-miterlimit="10" stroke-width="0.69"/><path d="M126.36,147.254l.407-121.924h23.621l-.407,121.924Z" transform="translate(-95.361 18.868)" fill="#f9c301" stroke="#fff" stroke-miterlimit="10" stroke-width="0.69"/><path d="M175.36,146.991l8.546-135.3,23.585,1.1L198.945,148.07Z" transform="translate(-57.664 8.374)" fill="#f9c301" stroke="#fff" stroke-miterlimit="10" stroke-width="0.69"/><path d="M189.18,138.755,190.949,22.28l23.621.478-1.787,117.625Z" transform="translate(-47.032 16.521)" fill="#f9c301" stroke="#fff" stroke-miterlimit="10" stroke-width="0.69"/><path d="M170.194,97.422l-1.964-63.8L191.8,34.646l1.982,64.421Z" transform="translate(-63.15 25.246)" fill="#f9c301" stroke="#fff" stroke-miterlimit="10" stroke-width="0.69"/><path d="M191.42,159.854,219.075,24.43l23.249,4-27.46,134.487Z" transform="translate(-45.309 18.175)" fill="#f9c301" stroke="#fff" stroke-miterlimit="10" stroke-width="0.69"/><path d="M116.475,55.17,142.8,227.255H264.338L290.666,55.17H258.995c-2.583,12.155-26.416,21.674-55.451,21.674s-52.868-9.519-55.451-21.674H116.44Z" transform="translate(-102.993 41.825)" fill="#f6f7f8"/></g><path d="M277.217,167.927h-34.13a58.942,58.942,0,0,0-28.115-62.793,59.978,59.978,0,0,0-41.9-7.272A59.677,59.677,0,0,0,113.66,41.42a6.191,6.191,0,0,1,.23,1.5,6.264,6.264,0,0,1,.372,1.4,7.584,7.584,0,0,1,.248,1.1,7.035,7.035,0,0,1-.6,6.175c2.778,2.76,3.875,6.511,6.352,9.7,1.8,2.318,4.706,3.751,6.847,5.75,1.84,1.716,3.079,3.893,5.432,4.99a5.151,5.151,0,0,1,2.654,7.2c1.345,6.387,2.778,13.394,6.706,18.4,3.663,4.689,10.651,3.822,15.818,6.3,11.448,5.485,13.624,17.3,20.949,26.469,5.149,6.458,12.686,10.474,18.72,16.012,6.3,5.8,12.031,12.085,18.737,17.446,6.3,5.025,13.146,9.855,20.967,12.12,6.953,2.017,14.19,2.725,21.232,4.37,3.68-1.062,8.245,1.221,8.263,5.379a6.868,6.868,0,0,1-2.866,7.254c-1.964,2.849-4.512,5.1-7.325,7.732a62.82,62.82,0,0,0-13.447,19.268,146.069,146.069,0,0,0-6.936,17.941H250.2l22.541-40.553,4.476-29.459Z" transform="translate(87.442 31.246)" opacity="0.32"/><g transform="translate(45.701 26.115)"><g transform="translate(7.213)"><path d="M148.175,67.482h-.23c-1.239-.088-2.477-.142-3.716-.142-.23,0-.46,0-.69.018-8.139-.354-25.054-1.752-35.4-7.2L87.77,42.393a20.15,20.15,0,0,0,1.575-6.458A20.826,20.826,0,0,0,68.52,15.11,20.436,20.436,0,0,0,47.783,34.36a20.818,20.818,0,0,0,5.273,41.3A21.354,21.354,0,0,0,59.3,73.374L79.224,91.633c6.706,9.908,9.749,27.106,10.846,34.944q.186,1.99.478,3.928v.159h0a54.4,54.4,0,0,0,108.071-8.9c0-30.043-22.258-52.213-50.461-54.248Z" transform="translate(-29.906 -15.11)" fill="#d36b31"/><circle cx="3.928" cy="3.928" r="3.928" transform="translate(96.648 64.74)" fill="#d39678"/><circle cx="3.928" cy="3.928" r="3.928" transform="translate(115.244 65.819)" fill="#d39678"/><circle cx="3.928" cy="3.928" r="3.928" transform="translate(133.468 73.268)" fill="#d39678"/><circle cx="3.928" cy="3.928" r="3.928" transform="translate(142.173 94.411)" fill="#d39678"/><circle cx="3.928" cy="3.928" r="3.928" transform="translate(121.861 87.369)" fill="#d39678"/></g><path d="M113.672,78.945l9.519-5.326L140.07,47.469l-8.121-2.159a54.216,54.216,0,0,0-15.358,9.784h0a.571.571,0,0,0-.159.142c-.92.832-1.8,1.681-2.672,2.6-.159.177-.318.354-.478.513-5.874,5.626-18.578,16.9-29.672,20.613L61.07,81.015l1.362,4.264,51.2-6.352Z" transform="translate(1.282 8.124)" opacity="0.32"/><g transform="translate(20.048 51.889)"><path d="M135.835,58.473h0a.571.571,0,0,0-.159.142c-.92.832-1.8,1.681-2.672,2.6-.159.177-.318.354-.478.513-5.874,5.626-18.578,16.9-29.672,20.613L75.943,84.783a20.063,20.063,0,0,0-3.574-5.609A20.816,20.816,0,0,0,42.5,108.138,20.821,20.821,0,0,0,76,132.873a21.246,21.246,0,0,0,2.654-6.1L105.615,125c11.8,2,26.345,11.7,32.75,16.313,1.044.832,2.088,1.628,3.185,2.371.071.053.124.088.124.088h0a54.4,54.4,0,1,0-5.821-85.282Z" transform="translate(-37.16 -44.437)" fill="#d36b31"/><path d="M61.78,71.584l57.769-7.714Z" transform="translate(-18.22 -29.486)" fill="none" opacity="0.32"/><path d="M61.09,65.5l1.822,5.45L61.09,65.5" transform="translate(-18.751 -28.232)" fill="none" opacity="0.32"/><circle cx="3.928" cy="3.928" r="3.928" transform="translate(94.304 34.154)" fill="#d39678"/><circle cx="3.928" cy="3.928" r="3.928" transform="translate(107.928 21.468)" fill="#d39678"/><circle cx="3.928" cy="3.928" r="3.928" transform="translate(125.922 13.453)" fill="#d39678"/><circle cx="3.928" cy="3.928" r="3.928" transform="translate(147.207 21.768)" fill="#d39678"/><circle cx="3.928" cy="3.928" r="3.928" transform="translate(128.081 31.57)" fill="#d39678"/></g><g transform="translate(0 117.514)"><path d="M38.425,95.687l.743-.336c-.106-.071-.23-.124-.336-.195.106.071.23.124.336.195l.69-.3-.69.3c3.963,2.495,8.847,3.132,13.235,3.291l32.963-8.387c-.779-.725-1.575-1.433-2.318-2.176.743.743,1.539,1.469,2.318,2.176l3.008-.761-3.008.761c17.145,15.765,41.544,23.868,64.687,24.328,12.368-3.716,23.762-7.82,34.219-16.49-1.256-.425-2.548-.832-3.91-1.168,1.362.336,2.654.743,3.91,1.168.46-.389.938-.761,1.4-1.168-.46.407-.92.779-1.4,1.168,5.255,1.769,9.8,3.786,15.5,2.371l-.955-.159.955.159h0l2.831.5a20.848,20.848,0,0,0-36.43-3.627,21.646,21.646,0,0,0-2.406,6.263l-27,3.1c-11.925-1.433-26.965-10.457-33.6-14.792q-1.619-1.168-3.291-2.229c-.071-.053-.124-.088-.124-.088h0A54.764,54.764,0,0,0,38,92.714v.336l.425,2.6Z" transform="translate(-16.466 -81.527)" opacity="0.32"/><path d="M119.711,177.15h0l.159-.159c.885-.885,1.752-1.787,2.583-2.742.159-.177.3-.372.442-.548,5.68-5.963,17.994-17.959,29.052-22.258l27.124-3.733a20.322,20.322,0,0,0,3.893,5.5,21.081,21.081,0,0,0,28.858-30.7A21.079,21.079,0,0,0,176.79,99.07a21.344,21.344,0,0,0-2.406,6.3l-27.195,3.061c-12.031-1.469-27.195-10.581-33.9-14.969-1.1-.8-2.194-1.539-3.326-2.247-.071-.053-.124-.089-.124-.089h0a55.095,55.095,0,1,0,9.891,86.007Z" transform="translate(-25.829 -80.434)" fill="#d36b31"/><circle cx="3.981" cy="3.981" r="3.981" transform="translate(89.228 68.39)" fill="#d39678"/><circle cx="3.981" cy="3.981" r="3.981" transform="translate(76.047 81.854)" fill="#d39678"/><circle cx="3.981" cy="3.981" r="3.981" transform="translate(58.212 90.807)" fill="#d39678"/><circle cx="3.981" cy="3.981" r="3.981" transform="translate(36.29 83.411)" fill="#d39678"/><circle cx="3.981" cy="3.981" r="3.981" transform="translate(55.169 72.583)" fill="#d39678"/></g><g transform="translate(92.959 107.151)"><path d="M194.617,83.207l.372-7.537A54.165,54.165,0,0,0,167,96.353h0a.906.906,0,0,0-.124.177q-1.062,1.513-2.017,3.132c-.124.195-.23.407-.336.6-4.459,6.812-14.3,20.63-24.275,26.77l-25.673,8.44a19.876,19.876,0,0,0-4.742-4.653,20.786,20.786,0,0,0-31.406,19.056l80.115-10.4,36.13-56.247Z" transform="translate(-78.352 -75.67)" opacity="0.32"/><path d="M167,99h0a.906.906,0,0,0-.124.177q-1.062,1.513-2.017,3.132c-.124.195-.23.407-.336.6-4.459,6.812-14.3,20.63-24.275,26.77l-25.673,8.44a19.876,19.876,0,0,0-4.742-4.653,20.808,20.808,0,0,0-22.577,34.927,20.812,20.812,0,0,0,38.182,16.561,21.066,21.066,0,0,0,1.221-6.546l25.885-7.8c11.943-.708,28.292,5.467,35.581,8.528,1.2.584,2.406,1.115,3.627,1.592a.843.843,0,0,1,.142.071h0A54.405,54.405,0,1,0,167.067,99Z" transform="translate(-78.369 -75.646)" fill="#d36b31"/><circle cx="3.928" cy="3.928" r="3.928" transform="translate(89.672 42.959)" fill="#d39678"/><circle cx="3.928" cy="3.928" r="3.928" transform="translate(100.093 27.531)" fill="#d39678"/><circle cx="3.928" cy="3.928" r="3.928" transform="translate(115.823 15.676)" fill="#d39678"/><circle cx="3.928" cy="3.928" r="3.928" transform="translate(138.435 18.985)" fill="#d39678"/><circle cx="3.928" cy="3.928" r="3.928" transform="translate(122.015 32.839)" fill="#d39678"/></g></g><path d="M332.156,179.58H35.387L0,115.92H367.543Z" transform="translate(0 88.561)" fill="#f6f7f8"/><g transform="translate(0 204.481)" clip-path="url(#a)"><g transform="translate(50.497 -4.83)"><g transform="translate(3.963)"><path d="M37.557,139.022a30.5,30.5,0,0,1,52.868-7.537l6.794-.973a36.651,36.651,0,0,0-66.438,9.466L37.557,139Z" transform="translate(-30.78 -113.19)" fill="#f5af2d"/><path d="M87.378,145.365A30.447,30.447,0,0,1,63.793,156.53a29.948,29.948,0,0,1-23.037-10.51l-7.007.991a36.647,36.647,0,0,0,61.873-2.831l-8.245,1.168Z" transform="translate(-28.495 -89.349)" fill="#f5af2d"/></g><g transform="translate(40.696 47.1)"><path d="M54,144.272h0l-.159-.849a2.722,2.722,0,0,0-.407,0c-.743.106-1.079.407-.849,2,.195,1.4.6,1.61,1.433,1.486a4.158,4.158,0,0,0,.955-.283l.212.69a4.676,4.676,0,0,1-1.2.336c-1.4.195-2.088-.159-2.371-2.07-.3-2.088.389-2.689,1.769-2.884a3.921,3.921,0,0,1,1.115,0l.195,1.486-.672.088Z" transform="translate(-51.541 -137.619)" fill="#2d2a26"/><path d="M54.864,146.981h0l.566-.106-.5-3.5-.566.053-.088-.637,2.07-.283.088.619-.513.088.177,1.327,1.858-.265-.195-1.327-.531.053-.088-.619,2.088-.3.088.637-.584.106.513,3.5.566-.053.088.619-2.07.3-.088-.619.531-.106-.212-1.451-1.858.265.212,1.451.531-.053.088.637-2.088.283Z" transform="translate(-49.433 -138.064)" fill="#2d2a26"/><path d="M58.714,146.254h0l.584-.106-.513-3.5-.566.053-.088-.637,2.123-.3.088.637-.566.106.5,3.5.584-.053.088.619-2.141.3Z" transform="translate(-46.471 -138.31)" fill="#2d2a26"/><path d="M63.1,142.972h0l-.159-.849a2.726,2.726,0,0,0-.407,0c-.743.106-1.079.407-.849,2,.195,1.4.6,1.61,1.433,1.486a4.159,4.159,0,0,0,.955-.283l.212.69a4.675,4.675,0,0,1-1.2.336c-1.4.195-2.088-.159-2.371-2.07-.3-2.088.389-2.689,1.769-2.884a3.919,3.919,0,0,1,1.115,0l.195,1.486-.672.088Z" transform="translate(-44.54 -138.619)" fill="#2d2a26"/><path d="M63.972,145.65h0l.566-.106-.5-3.5-.584.053-.088-.619,1.982-.283.088.6-.425.071.23,1.628,1.221-1.822-.442.035-.088-.6,1.982-.283.088.619-.389.088-1.292,1.858,1.875,1.663.407-.053.088.619-2.052.3-.088-.6.442-.088L65.281,143.7l.248,1.734.425-.035.088.6-1.982.283Z" transform="translate(-42.44 -139.033)" fill="#2d2a26"/><path d="M70.029,143.618h0l-.088-.407-1.062.159.212,1.433,1.38-.195-.035-.584.655-.106.195,1.274-3.645.531-.106-.637.584-.106-.513-3.5-.566.053-.088-.619,3.645-.531.177,1.239-.672.106-.106-.548-1.4.195.195,1.345,1.062-.142-.035-.407.619-.088.195,1.451Z" transform="translate(-39.686 -139.371)" fill="#2d2a26"/><path d="M70.81,145.348h0l-.088-.619.566-.106-.5-3.5-.584.053-.088-.619L72,140.288l1.752,2.336A13.279,13.279,0,0,1,74.6,143.9h.018a12.556,12.556,0,0,1-.283-1.362l-.265-1.893-.548.053-.088-.619,1.911-.265.088.619-.513.088.6,4.176-1.274.177-1.769-2.336a13.283,13.283,0,0,1-.849-1.274h-.035a12.559,12.559,0,0,1,.283,1.362l.265,1.893.548-.053.088.619-1.964.283Z" transform="translate(-37.247 -139.81)" fill="#2d2a26"/></g><path d="M96.836,129.194a1.335,1.335,0,0,1,1.044.248c.584.442.973,1.469,1.239,3.309l5.626-1.38c-.442-3.026-1.38-5.043-2.884-6.175a6.677,6.677,0,0,0-5.184-.973,8.6,8.6,0,0,0-5.556,2.8A7.471,7.471,0,0,0,89.706,133c.69,4.83,4.052,6.122,7.024,7.29h.035c2.194.832,4.1,1.539,4.388,3.556a2.4,2.4,0,0,1-.124,1.433,1.167,1.167,0,0,1-.973.619c-1.557.23-2.353-.814-2.831-3.716l-5.821,1.5a.206.206,0,0,1-.248-.124l-6.263-16.632-7.767,1.115L75.8,150.019a.207.207,0,0,1-.159.195.213.213,0,0,1-.23-.106l-4.565-8.652a.266.266,0,0,1-.018-.142l3.344-15.995-6.617.938-1.592,11.129a.206.206,0,0,1-.177.177h-.177a.156.156,0,0,1-.212-.088l-3.379-7.307L28.54,134.891l.743,5.149,4.229-.6a.213.213,0,0,1,.23.177l2.831,20.135,5.821-.814-2.831-20.117a.361.361,0,0,1,.035-.159.385.385,0,0,1,.142-.088l3.627-.513a.213.213,0,0,1,.23.177l2.831,20.117,12.226-1.716h.035a.161.161,0,0,1,.142.071.17.17,0,0,1,.053.177l-1.221,6.387,7.29-.973,1.716-15.287a.206.206,0,0,1,.177-.177h.142a.153.153,0,0,1,.212.106l3.539,8.033L81.6,153.433l.088-5.2a.193.193,0,0,1,.177-.195l4.211-.6a.237.237,0,0,1,.23.142l1.557,4.99,6.3-.9-.814-2.282a.2.2,0,0,1,.088-.248.187.187,0,0,1,.248.035c1.522,1.5,3.716,2.035,6.741,1.592,4.83-.69,7.2-3.963,6.476-8.953-.672-4.689-4.335-6.157-7.254-7.325l-.389-.159c-1.982-.849-3.291-1.539-3.539-3.309a1.686,1.686,0,0,1,.177-1.132,1.3,1.3,0,0,1,1.009-.619Zm-34.98,13.642-1.716,8.05s-.088.142-.177.159l-8.316,1.168h-.035a.168.168,0,0,1-.124-.035.385.385,0,0,1-.088-.142l-.69-4.866a.361.361,0,0,1,.035-.159.243.243,0,0,1,.142-.088l5.839-.849L56,141.066l-5.821.832a.361.361,0,0,1-.159-.035.243.243,0,0,1-.088-.142l-.619-4.37a.361.361,0,0,1,.035-.159.243.243,0,0,1,.142-.088l8.369-1.168a.453.453,0,0,1,.212.106l3.733,6.6a.266.266,0,0,1,.018.142Zm22.736-.354s-.088.088-.142.088l-2.512.354H81.9a.161.161,0,0,1-.142-.053.172.172,0,0,1-.071-.159l-.071-8.723a.21.21,0,0,1,.177-.212l.212-.035a.237.237,0,0,1,.23.142l2.371,8.4a.61.61,0,0,1-.018.159Z" transform="translate(-28.54 -104.795)" fill="#2d2a26"/><g transform="translate(74.86 19.126)"><path d="M72.035,124.441l-.389.053.212,1.5-.372.053-.212-1.5-.389.053-.035-.3L72,124.14Z" transform="translate(-70.85 -123.892)" fill="#2d2a26"/><path d="M72.138,124.142l.442,1.239h0l.071-1.309.531-.071.265,1.8-.336.053-.212-1.433h0l-.106,1.486-.283.035-.531-1.4h0l.212,1.433-.336.053-.265-1.8.548-.071Z" transform="translate(-70.281 -124)" fill="#2d2a26"/></g><g transform="translate(28.769 10.474)"><path d="M54.142,119.11,44.8,128.293l5.007-.725,2.336,4.512Z" transform="translate(-44.8 -119.11)" fill="#f5af2d"/><path d="M49.5,121.842l-4-2.052,2.052,3.963Z" transform="translate(-44.261 -118.587)" fill="#f5af2d"/><path d="M50.135,122.07l-.425,2.689,4.423-.637Z" transform="translate(-41.023 -116.833)" fill="#f5af2d"/></g></g></g><rect width="278.563" height="3.875" transform="translate(45.684 200.606)" opacity="0.32"/></g></g></svg>