<svg xmlns="http://www.w3.org/2000/svg" width="204.585" height="251.891" viewBox="0 0 204.585 251.891"><g transform="translate(0 0)"><path d="M101.5,189.267,59.734,143.684s-1.464-39.746,1.2-42.8S95.978,73.42,95.978,73.42l24.681,1.594,33.316,34.78v79.473H101.5Z" transform="translate(50.609 62.624)" fill="#fff"/><path d="M170.1,135.073c-.611,4.688-60,25.423-60,25.423h0a66.2,66.2,0,0,1-18.048-7.078c-7.041-4.188-43.8-33.223-61.87-38.523-.241-.074-.463-.148-.686-.2-.3-.093-.611-.167-.926-.241-.241-.056-.463-.13-.7-.167-1.39-.352-2.779-.667-4.206-.964a66.64,66.64,0,0,1-13.471-4.54A17.951,17.951,0,0,1,5.414,105.7c-.185-.185-.371-.352-.556-.537-.241-.241-.445-.482-.686-.741-.167-.2-.334-.408-.482-.611a10.278,10.278,0,0,1-1.742-8.079c.908-5.133,3.521-8.394,9.005-9.913A33.738,33.738,0,0,1,20.015,84.8a62.827,62.827,0,0,1,10.821,1.019c8.8,1.575,16.806,4.54,26.238,5.744C70.193,93.233,78.7,84.043,79.866,69.83a74.047,74.047,0,0,0-.63-14.36l35.095,16.825,10.21,4.892,3,1.427,21.661,10.4,3.224,1.538,10.821,5.188s7.5,34.669,6.874,39.338h0Z" transform="translate(1.497 47.313)" fill="#fff"/><path d="M38.186,51.024H3.221A1.368,1.368,0,0,1,1.85,49.653V44.891A1.368,1.368,0,0,1,3.221,43.52H38.186a1.368,1.368,0,0,1,1.371,1.371v4.762a1.368,1.368,0,0,1-1.371,1.371Z" transform="translate(1.578 37.121)" fill="#ffcc69"/><path d="M39.531,47.255H1.86V44.92H39.531v2.335Z" transform="translate(1.586 38.315)" fill="#7a4c28"/><path d="M39.818,55.074H4.871A1.368,1.368,0,0,1,3.5,53.7V48.941A1.368,1.368,0,0,1,4.871,47.57H39.818a1.368,1.368,0,0,1,1.371,1.371V53.7a1.368,1.368,0,0,1-1.371,1.371Z" transform="translate(2.985 40.575)" fill="#ffcc69"/><path d="M41.171,51.313H3.5V48.96H41.171v2.353Z" transform="translate(2.985 41.761)" fill="#7a4c28"/><path d="M39.268,59.114H4.321A1.368,1.368,0,0,1,2.95,57.743V52.981A1.368,1.368,0,0,1,4.321,51.61H39.268a1.368,1.368,0,0,1,1.371,1.371v4.762a1.368,1.368,0,0,1-1.371,1.371Z" transform="translate(2.516 44.021)" fill="#ffcc69"/><path d="M40.639,55.345H2.95V53.01H40.639v2.335Z" transform="translate(2.516 45.215)" fill="#7a4c28"/><path d="M36.318,63.164H1.371A1.368,1.368,0,0,1,0,61.793V57.031A1.368,1.368,0,0,1,1.371,55.66H36.318a1.368,1.368,0,0,1,1.371,1.371v4.762a1.368,1.368,0,0,1-1.371,1.371Z" transform="translate(0 47.476)" fill="#ffcc69"/><path d="M37.689,59.4H0V57.05H37.689V59.4Z" transform="translate(0 48.661)" fill="#7a4c28"/><path d="M39.818,71.254H4.871A1.368,1.368,0,0,1,3.5,69.883V65.121A1.368,1.368,0,0,1,4.871,63.75H39.818a1.368,1.368,0,0,1,1.371,1.371v4.762a1.368,1.368,0,0,1-1.371,1.371Z" transform="translate(2.985 54.376)" fill="#ffcc69"/><path d="M41.171,67.493H3.5V65.14H41.171v2.353Z" transform="translate(2.985 55.562)" fill="#7a4c28"/><path d="M38.186,75.294H3.221A1.368,1.368,0,0,1,1.85,73.923V69.161A1.368,1.368,0,0,1,3.221,67.79H38.186a1.368,1.368,0,0,1,1.371,1.371v4.762a1.368,1.368,0,0,1-1.371,1.371Z" transform="translate(1.578 57.822)" fill="#ffcc69"/><path d="M39.531,71.525H1.86V69.19H39.531v2.335Z" transform="translate(1.586 59.016)" fill="#7a4c28"/><path d="M39.058,67.2H4.111A1.368,1.368,0,0,1,2.74,65.833V61.071A1.368,1.368,0,0,1,4.111,59.7H39.058a1.368,1.368,0,0,1,1.371,1.371v4.762A1.368,1.368,0,0,1,39.058,67.2Z" transform="translate(2.337 50.921)" fill="#ffcc69"/><path d="M40.429,63.435H2.74V61.1H40.429v2.335Z" transform="translate(2.337 52.116)" fill="#7a4c28"/><path d="M126,113.5s-4.076-.741-8.876-1.631c-6.856-1.26-15.194-2.8-15.472-2.891-.463-.148-22.643-24.033-22.643-24.033S75.9,69.025,71.5,62.465c-3.465-5.207-10.062-8.042-16.121-8.616-7.634-.723-14.9,3.039-21.661,5.967a47.078,47.078,0,0,1-11.062,3.039,32.733,32.733,0,0,1-10.84,0c-4.466-.889-8.1-3.206-9.339-7.875a15.441,15.441,0,0,1-.408-2.335,4.6,4.6,0,0,1-.037-.7,7.42,7.42,0,0,1,0-.908,4.485,4.485,0,0,1,.037-.7c0-.167.037-.334.037-.5a7.42,7.42,0,0,1,.148-.889c.074-.426.185-.834.3-1.241a3.839,3.839,0,0,1,.259-.778c.074-.2.148-.408.241-.611,1.612-4.021,4.966-7.375,8.6-9.987A85.373,85.373,0,0,1,27.96,27.333a92.032,92.032,0,0,1,15.472-5.114c10.21-2.316,23.81-1.464,34.039,1.556,15.305,4.54,27.2,18.585,30.778,25.145a47.593,47.593,0,0,1,2.427,6.615c3.965,12.674,10.562,38.764,13.656,51.16,1.056,4.206,1.7,6.856,1.7,6.856h0Z" transform="translate(1.724 17.823)" fill="#fff"/><path d="M153.159,125.954s-1.371.445-3.539,1.112c-4.021,1.241-10.8,3.224-16.491,4.429h0c-4.651.982-8.579,1.445-9.709.556-1.186-.926-3.521-7.69-6.078-15.991h0c-.982-3.206-2-6.671-3.02-10.117C110.708,93.6,107.372,81.464,106.78,81c-1.167-.945-38.412-35.836-40.283-35.836-1.334,0-32.946,4.818-50.7,7.542h0c-.537.093-1.075.167-1.575.241-1.093.167-2.112.315-3.057.463h0c-2.483.389-4.429.686-5.689.871l-.352.056c-.741.111-1.13.185-1.13.185s0-.019-.037-.056A18.429,18.429,0,0,1,2.81,51.836a16.978,16.978,0,0,1-.519-10.08c.074-.222.13-.445.2-.667a8.673,8.673,0,0,1,.334-.889c.093-.222.185-.445.3-.667A15.2,15.2,0,0,1,5,36.512,49.08,49.08,0,0,1,17,26.265c.167-.093.315-.2.463-.3.463-.3.945-.574,1.445-.871.2-.13.408-.241.611-.352.278-.167.556-.315.834-.463l.611-.334A66.765,66.765,0,0,1,39.8,17.26a68.279,68.279,0,0,1,17.344-1.13c23.032,1.445,37.949,8.839,45.342,13.786,1.038.686,1.927,1.334,2.65,1.909a31.652,31.652,0,0,1,4.892,5.3c2.854,3.613,5.966,8.264,8.561,12.267.611.964,1.2,1.89,1.76,2.742,2.242,3.576,3.761,6.152,3.761,6.152l27.7,64.557.593,1.371.76,1.76h0Z" transform="translate(1.489 13.648)" fill="#fff"/><path d="M111.942,53.6c-.111.834-.259,1.631-.389,2.409-.093.5-.185,1-.278,1.464-.686,3.558-1.445,6.189-1.779,6.411-.519.334-1.038,1.594-2.39,2.224a5,5,0,0,1-3.28.185,14.3,14.3,0,0,1-1.575-.463l-.556-.222c-.482-.2-1.5-.593-2.965-1.112C87.52,60.473,50.387,47.929,28.188,40.461c-1.334-.445-2.594-.871-3.8-1.279-1.149-.389-2.242-.741-3.261-1.093-2.224-.741-4.169-1.408-5.744-1.927-.241-.093-.463-.167-.686-.241-.334-.111-.63-.222-.926-.315-.259-.093-.482-.167-.7-.241-1.334-.445-2.075-.686-2.075-.686a10.4,10.4,0,0,1-.371-1.3c-.056-.241-.111-.519-.185-.815-.074-.371-.13-.76-.2-1.186-.408-2.835-.408-6.967,2.02-10.339a1.6,1.6,0,0,1,.13-.185c.093-.111.167-.222.259-.334a.145.145,0,0,1,.074-.074A4.441,4.441,0,0,1,13.124,20h0a2.756,2.756,0,0,1,.315-.334,4.386,4.386,0,0,1,.519-.5c3.261-2.983,8.709-5.411,14.064-7.152a5.863,5.863,0,0,1,.686-.222,1.276,1.276,0,0,1,.148-.056c.259-.093.5-.167.76-.241.037,0,.093-.037.111-.037l.556-.167a76.592,76.592,0,0,1,7.857-1.909c7.616-1.408,27.164-2.65,42.47,3.28a49.312,49.312,0,0,1,6.319,2.983c.222.13.445.241.686.371a73.288,73.288,0,0,1,14.62,11.229l.019.019a86.133,86.133,0,0,1,6.393,6.949c.037.037.056.074.093.111,1.038,1.241,1.853,2.335,2.483,3.169a7.466,7.466,0,0,1,.537.945v.037c1.371,3.224,1,9.58.185,15.12Z" transform="translate(8.556 7.011)" fill="#fff"/><path d="M123.485,143.03a119.342,119.342,0,0,1-13.6-2.316c-1.575-.371-3.5-.834-6.059-1.427-.741-.185-1.427-.352-2.075-.519-8.6-2.353-8.987-4.836-10.729-5.652-.556-.259-1.8-3.187-3.224-7.208-3.3-9.265-7.727-24.255-7.8-25.348-.056-.889-3-15.12-5.577-27.442-1.964-9.469-3.687-17.788-3.687-17.992s-.167-1.8-.334-3.558c-.037-.278-.056-.537-.093-.834-.111-1.241-.241-2.483-.315-3.243h0c-.037-.426-.074-.723-.074-.8,0-.463-6.559-12.489-11.247-19.048a34.752,34.752,0,0,0-4.447-4.984c-3.057-2.946-5.577-5.17-5.855-10.636C48,4.243,54.833-.037,61.856,0h.037a4.485,4.485,0,0,1,.7.037,1.387,1.387,0,0,1,.389.037c.222,0,.426.037.63.056h.056c.241.037.463.056.686.093,5.114.76,9.543,3.539,13.378,7.134.185.167.352.334.519.5.241.222.463.445.686.686l.222.222c.093.093.185.2.278.3.13.13.259.259.371.389a75.67,75.67,0,0,1,6.671,8.394c7.5,10.729,10.673,23.032,14.194,35.447,3.3,11.562,6.467,23.18,10.154,34.65,4.855,15.1,18.882,48.974,19.2,49.733h0c.111.3,2.594,6.6-6.559,5.392h0Z" transform="translate(41.242 0)" fill="#fff"/><path d="M109.01,57.792a1.175,1.175,0,0,1-1.019-.593c-1.927-3.446-4.076-6.93-6.578-10.673C90.944,30.869,69.857,22.364,48.975,25.347,38.542,26.848,23.719,30.424,12.342,39a40.185,40.185,0,0,0-7.819,7.412,1.194,1.194,0,0,1-1.649.185,1.177,1.177,0,0,1-.185-1.649,42.81,42.81,0,0,1,8.227-7.819c11.785-8.894,27-12.582,37.708-14.12,21.772-3.113,43.748,5.818,54.718,22.2,2.539,3.8,4.725,7.338,6.671,10.84a1.169,1.169,0,0,1-.463,1.594,1.261,1.261,0,0,1-.574.148h0Z" transform="translate(2.074 19.105)" fill="#2d2a26"/><path d="M112.791,54.14A1.179,1.179,0,0,1,111.7,53.4c-.111-.278-11.6-28.313-42.951-35.484C37.264,10.706,11.99,28.272,11.731,28.439a1.181,1.181,0,0,1-1.631-.278,1.164,1.164,0,0,1,.278-1.631c.259-.185,26.4-18.344,58.887-10.9,32.575,7.449,44.489,36.614,44.6,36.911a1.175,1.175,0,0,1-.649,1.519,1.216,1.216,0,0,1-.426.074Z" transform="translate(8.43 11.807)" fill="#2d2a26"/><path d="M84.892,51.536a1.149,1.149,0,0,1-1.13-.889c-.019-.093-2.279-8.987-12.267-21.161-6.6-8.042-18.937-15.6-19.067-15.676a1.173,1.173,0,1,1,1.223-2c.519.315,12.8,7.838,19.66,16.195C83.669,40.622,85.948,49.72,86.04,50.091a1.173,1.173,0,0,1-.852,1.408,1.431,1.431,0,0,1-.278.037h0Z" transform="translate(44.241 9.926)" fill="#2d2a26"/></g></svg>