<svg id="Banner" xmlns="http://www.w3.org/2000/svg" xmlns:xlink="http://www.w3.org/1999/xlink" width="1920" height="545" viewBox="0 0 1920 545">
  <defs>
    <clipPath id="clip-path">
      <rect id="Rectangle_6" data-name="Rectangle 6" width="1920" height="545" fill="#fff" stroke="#707070" stroke-width="1"/>
    </clipPath>
    <linearGradient id="linear-gradient" x1="0.437" y1="0.932" x2="0.749" y2="0.182" gradientUnits="objectBoundingBox">
      <stop offset="0" stop-color="#fcb400"/>
      <stop offset="0.665" stop-color="#fbb101"/>
      <stop offset="1" stop-color="#ec5815"/>
    </linearGradient>
  </defs>
  <g id="Mask_Group_1" data-name="Mask Group 1" clip-path="url(#clip-path)">
    <g id="Banner-2" data-name="Banner" transform="translate(-302.494 -299.776)">
      <rect id="Rectangle_1" data-name="Rectangle 1" width="1920" height="545" transform="translate(302.494 299.776)" fill="url(#linear-gradient)"/>
      <g id="Artboard_4" data-name="Artboard 4" transform="translate(1368.902)">
        <g id="Artboard_4-2" data-name="Artboard 4" transform="translate(0 -0.005)" opacity="0.6" style="mix-blend-mode: multiply;isolation: isolate">
          <path id="Path_16" data-name="Path 16" d="M621.594,622.324q67.581-254.286,206.917-395.065,139.336-140.737,339.3-140.748,100.936,0,159.288,39.8,49.549,33.822,72.211,92.288c-17.316-50.847-45.49-95.963-87.8-130.47,0,0-126.256-143.883-351.174-63.948S592.548,287.968,220.8,271.981c0,0,25.766,79.935,151.087,79.935,0,0-108.089,111.909-354.5,95.922,0,0,33.843,255.792,414.769,207.831,68.578-8.637,129.059-9.156,182.293-4.318,2.367-9.675,4.526-19.143,7.142-29.026Z" transform="translate(18.716 0)" fill="#9a3523"/>
          <path id="Path_17" data-name="Path 17" d="M612.31,763.757q-63.47-38.8-88.551-108.711-25.1-69.886-17.295-165.019c4.339-52.84,14.222-110.435,29.047-172.286C269.13,317.222,88.83,450.059,88.83,450.059s151.876,0,258.823,91.769c94.8,81.347,156.527,209.845,312.6,243.376-17.752-5.751-33.843-12.81-47.94-21.427Z" transform="translate(95.602 341.955)" fill="#9a3523"/>
          <path id="Path_18" data-name="Path 18" d="M0,112.17S27.095,341.78,213.416,216.044C213.416,216.044,68.017,201.49,0,112.17Z" transform="translate(0 120.715)" fill="#9a3523"/>
          <path id="Path_19" data-name="Path 19" d="M441.841,369.969c29.939,5.73,55.809,12.229,78.668,18.956,4.277-23.108,9.135-46.715,15.011-71.194-191.3-.374-338.2,68.017-405.8,106.615-.145.083-.27.145-.394.228-11.627,6.644-20.908,12.4-27.614,16.755h0c-1.37.893-2.575,1.682-3.737,2.45-.415.27-.872.581-1.267.851-.934.623-1.765,1.184-2.554,1.723-.478.332-.976.664-1.391.955-.54.374-1.059.727-1.495,1.038-.457.332-.872.623-1.2.851-.187.145-.478.332-.623.436-.311.228-.6.436-.6.436s193.256-110.6,353.022-80.1Z" transform="translate(95.612 341.944)" fill="#c83e27"/>
          <path id="Path_20" data-name="Path 20" d="M1031.18,719.207q-34.382,114.577-85,188.314Q895.478,981.3,833.689,1024q-61.882,42.728-129.308,59.214-67.488,16.475-131.55,16.506-112.615,0-176.044-38.826-63.47-38.8-88.551-108.711-25.1-69.886-17.295-165.019,7.817-95.112,38.244-209.679Q396.767,323.2,536.1,182.418,675.439,41.68,875.4,41.67q100.936,0,159.289,39.8,58.3,39.8,79.5,113.57,21.146,73.779,5.855,182.48-15.354,108.722-63.076,244.6h-436.8q-29.4,110.653-27.925,170.832,1.464,60.2,65.547,60.19,36.843,0,63.325-30.085,26.41-30.085,51.1-115.522L1031.2,719.186Zm-217.3-285.378q15.852-52.414,19.018-82.509,3.114-30.085-3.4-45.615-6.571-15.509-17.876-20.389a58.3,58.3,0,0,0-22.984-4.858,90,90,0,0,0-32.618,5.813q-15.136,5.824-28.963,21.364-13.859,15.572-27.9,46.591-14.077,31.081-28.922,79.6H813.882Z" transform="translate(311.124 44.841)" fill="#c83e27"/>
          <path id="Path_21" data-name="Path 21" d="M828.521,227.258q139.336-140.737,339.3-140.748,100.936,0,159.288,39.8,49.985,34.133,72.627,93.285c-17.336-51.241-45.615-96.711-88.219-131.467,0,0-126.256-143.883-351.174-63.948s-367.784,263.785-739.533,247.8c0,0,25.766,79.935,151.087,79.935,0,0-108.089,111.909-354.5,95.922,0,0,176.21,159.87,423.987,79.935C543.911,494.7,644.754,427.407,727.845,359.888c29.732-50.286,63.159-94.7,100.7-132.609Z" transform="translate(18.726 0)" fill="#c83e27"/>
        </g>
      </g>
      <g id="Group_5" data-name="Group 5" transform="matrix(0.985, -0.174, 0.174, 0.985, -629.131, 445.149)" opacity="0.09">
        <g id="TEXAS_LOGO" data-name="TEXAS LOGO" transform="translate(637 10.415)">
          <g id="Group_1" data-name="Group 1" transform="translate(46.624)">
            <path id="Path_1" data-name="Path 1" d="M108.09,303.268C159.429,168.21,290.035,72.219,443.1,72.219c116.855,0,220.633,55.955,286.051,142.533l79.71-11.352C732.862,81.288,597.492,0,443.1,0,245.5,0,79.012,133.152,28.38,314.62l79.694-11.352Z" transform="translate(-28.38 0)" fill="#e23310"/>
            <path id="Path_2" data-name="Path 2" d="M695.953,405.826C630.239,485.849,530.535,536.908,418.9,536.908S214.01,489.085,148.313,413.465L65.99,425.2C143.828,536.4,272.873,609.128,418.9,609.128c160.111,0,299.8-87.415,373.976-217.117l-96.927,13.816Z" transform="translate(-4.203 251.999)" fill="#e23310"/>
          </g>
          <g id="Group_2" data-name="Group 2" transform="translate(478.063 552.996)">
            <path id="Path_3" data-name="Path 3" d="M320.079,391.625h0l-1.939-9.923a19.835,19.835,0,0,0-4.781.1c-8.707,1.249-12.633,4.863-9.972,23.493,2.349,16.428,7.031,18.827,16.757,17.447a42.148,42.148,0,0,0,11.188-3.335l2.481,8.2a61.868,61.868,0,0,1-14.227,4.025c-16.379,2.333-24.56-1.889-27.78-24.413-3.5-24.56,4.551-31.608,20.766-33.908a50.35,50.35,0,0,1,13.028-.2l2.316,17.43-7.853,1.117Z" transform="translate(-290.999 -313.36)" fill="#e23310"/>
            <path id="Path_4" data-name="Path 4" d="M332.735,422.959h0l6.7-1.281-5.881-41.235-6.785.624-1.051-7.311,24.495-3.5,1.035,7.327-6.194,1.134,2.2,15.443,21.768-3.089-2.2-15.459-6.259.641-1.051-7.311,24.413-3.483,1.035,7.311-6.686,1.3,5.865,41.235,6.8-.641,1.035,7.311-24.4,3.483-1.051-7.311,6.193-1.134-2.431-17.086-21.768,3.1,2.431,17.069,6.276-.641,1.035,7.327-24.478,3.483Z" transform="translate(-268.678 -318.064)" fill="#e23310"/>
            <path id="Path_5" data-name="Path 5" d="M381.465,414.158h0l6.7-1.281-5.881-41.235-6.8.641-1.035-7.327,25-3.565,1.035,7.327L393.8,370l5.881,41.235,6.785-.641,1.035,7.327-25,3.565Z" transform="translate(-237.353 -320.681)" fill="#e23310"/>
            <path id="Path_6" data-name="Path 6" d="M435.149,375.224h0l-1.939-9.923a19.826,19.826,0,0,0-4.781.1c-8.707,1.249-12.633,4.863-9.972,23.493,2.349,16.428,7.031,18.827,16.757,17.447A42.146,42.146,0,0,0,446.4,403l2.481,8.2a61.869,61.869,0,0,1-14.227,4.025c-16.379,2.333-24.56-1.889-27.78-24.413-3.5-24.56,4.551-31.608,20.766-33.908a50.353,50.353,0,0,1,13.028-.2l2.316,17.43-7.853,1.117Z" transform="translate(-217.027 -323.902)" fill="#e23310"/>
            <path id="Path_7" data-name="Path 7" d="M447.8,406.289h0l6.686-1.3-5.865-41.235-6.8.641-1.035-7.311L464,353.768l1,7.081-4.929.871,2.711,19.024,14.457-21.39-5.323.509-1-7.081,23.213-3.3,1.035,7.311-4.567.9-15.081,21.9,21.932,19.451,4.8-.526,1.035,7.327-24.051,3.434-1.019-7.081,5.273-.92-20.338-18.006,2.924,20.486,4.978-.542,1,7.081-23.213,3.3Z" transform="translate(-194.707 -328.337)" fill="#e23310"/>
            <path id="Path_8" data-name="Path 8" d="M522.265,381.807h0l-1.1-4.649-12.387,1.758,2.415,16.921,16.3-2.333-.542-6.9,7.853-1.117,2.136,14.966-42.845,6.111-1.035-7.327,6.686-1.281-5.865-41.235-6.8.641-1.035-7.327,42.829-6.095,2.086,14.556-7.853,1.117-1.347-6.358-16.3,2.316,2.251,15.788,12.371-1.774-.23-4.7,7.081-1,2.415,16.921Z" transform="translate(-165.619 -331.898)" fill="#e23310"/>
            <path id="Path_9" data-name="Path 9" d="M534.206,401.88h0l-1.051-7.327,6.7-1.281-5.881-41.235-6.785.641-1.051-7.327,21.932-3.121,20.618,27.353a162.44,162.44,0,0,1,9.89,15.016l.263-.033c-1.4-5.52-2.678-11.483-3.4-15.952L572.271,346.4l-6.358.657-1.035-7.245,22.441-3.2,1.052,7.327-6.029,1.117,6.982,48.957-15.016,2.136-20.7-27.337a162.424,162.424,0,0,1-9.89-15.016l-.345.049c1.4,5.536,2.76,11.467,3.4,15.952l3.171,22.195,6.358-.657,1.035,7.228-23.131,3.3Z" transform="translate(-139.841 -336.61)" fill="#e23310"/>
          </g>
          <path id="Path_10" data-name="Path 10" d="M802.576,197.748a15.473,15.473,0,0,1,12.173,2.859c6.949,5.257,11.451,17.3,14.506,38.853L895.4,223.2c-5.191-35.485-16.3-59.208-33.925-72.482-15.163-11.418-35.107-15.147-60.966-11.418-28.355,4.091-50.944,15.459-65.352,32.89-14.884,18.022-20.618,42.3-16.609,70.2,8.148,56.645,47.675,71.989,82.536,85.526l.361.148c25.858,9.594,48.2,17.874,51.618,41.679,1.051,7.36.559,12.863-1.528,16.856-2.152,4.107-5.98,6.588-11.4,7.36-18.219,2.645-27.649-9.66-33.267-43.7l-68.391,17.595a2.379,2.379,0,0,1-2.842-1.479L662,170.937l-91.26,13.143L555.115,442.252a2.4,2.4,0,0,1-4.518.969l-53.54-101.708a2.386,2.386,0,0,1-.23-1.61l39.362-187.826L458.417,163,439.656,293.673a2.4,2.4,0,0,1-2.037,2.037l-2.086.3a2.427,2.427,0,0,1-2.53-1.38l-39.74-85.773L0,264.48l8.707,60.407,49.745-7.1a2.423,2.423,0,0,1,2.727,2L94.414,556.281l68.342-9.611L129.538,310.348a2.389,2.389,0,0,1,.444-1.791,2.449,2.449,0,0,1,1.594-.953l42.714-6a2.408,2.408,0,0,1,2.727,2.037l33.218,236.371,143.518-20.19a2.453,2.453,0,0,1,.345-.033,2.411,2.411,0,0,1,1.741.739,2.37,2.37,0,0,1,.624,2.1l-14.441,74.946,85.707-11.451L447.87,406.569a2.423,2.423,0,0,1,2.054-2.119l1.659-.246a2.415,2.415,0,0,1,2.53,1.4l41.482,94.332,127.6-18.005,1.035-61.179a2.413,2.413,0,0,1,2.054-2.333l49.433-7.13a2.379,2.379,0,0,1,2.629,1.659l18.285,58.682,73.977-10.514-9.578-26.877a2.393,2.393,0,0,1,.953-2.859,2.432,2.432,0,0,1,3.006.312c17.792,17.71,43.65,23.854,79.1,18.745,56.826-8.181,84.573-46.542,76.129-105.224-7.935-55.084-50.813-72.3-85.28-86.134l-4.633-1.873c-23.18-9.972-38.574-18.071-41.58-38.935-.739-5.126-.033-9.693,2.021-13.208,2.366-4.025,6.473-6.555,11.861-7.343ZM391.62,358.023,371.363,452.6a2.415,2.415,0,0,1-2,1.873L271.61,468.192a2.3,2.3,0,0,1-1.791-.444,2.367,2.367,0,0,1-.936-1.577L260.85,409.05a2.412,2.412,0,0,1,2.037-2.727l68.638-9.873-8.461-58.814-68.424,9.857a2.411,2.411,0,0,1-2.727-2.037L244.7,294.15a2.411,2.411,0,0,1,2.037-2.727l98.225-13.8a2.413,2.413,0,0,1,2.448,1.216l43.946,77.526a2.377,2.377,0,0,1,.246,1.676Zm267.01-4.255a2.417,2.417,0,0,1-1.676,1.068l-29.505,4.239a2.452,2.452,0,0,1-.345.033,2.349,2.349,0,0,1-1.561-.575,2.413,2.413,0,0,1-.838-1.807l-.772-102.513a2.409,2.409,0,0,1,2.054-2.4l2.5-.361a2.411,2.411,0,0,1,2.661,1.725l27.78,98.62a2.4,2.4,0,0,1-.3,1.955Z" transform="translate(0 88.648)" fill="#e23310"/>
          <g id="Group_3" data-name="Group 3" transform="translate(880.824 226.4)">
            <path id="Path_11" data-name="Path 11" d="M549.845,141.352h-4.682l.016,17.874h-4.321l-.016-17.874H536.16V137.82h13.668v3.516Z" transform="translate(-536.16 -137.804)" fill="#e23310"/>
            <path id="Path_12" data-name="Path 12" d="M552.093,137.81l3.072,15.114h.066L558.3,137.81h6.391l.033,21.406h-3.959l-.016-17.086h-.066l-3.795,17.1h-3.351l-3.828-17.085h-.066l.016,17.085H545.7l-.033-21.406h6.407Z" transform="translate(-530.047 -137.81)" fill="#e23310"/>
          </g>
          <g id="Group_4" data-name="Group 4" transform="translate(338.112 122.983)">
            <path id="Path_13" data-name="Path 13" d="M315.568,74.86,205.81,182.745l58.929-8.526,27.468,52.8Z" transform="translate(-205.81 -74.86)" fill="#e23310"/>
            <path id="Path_14" data-name="Path 14" d="M261.619,107.423,214.7,83.47l24.117,46.361Z" transform="translate(-200.095 -69.325)" fill="#e23310"/>
            <path id="Path_15" data-name="Path 15" d="M272.893,112.24l-4.863,31.69,51.93-7.524Z" transform="translate(-165.813 -50.831)" fill="#e23310"/>
          </g>
        </g>
      </g>
    </g>
  </g>
</svg>
