<svg xmlns="http://www.w3.org/2000/svg" width="178.98" height="197.787" viewBox="0 0 178.98 197.787"><g transform="translate(-10 15)"><path d="M143.353,95.953c-21.732-1.549-37.785-17.7-51.791-32.735A74.714,74.714,0,0,0,72.584,48.982a93.071,93.071,0,0,0-25.167-9.435c-11.562-2.466-24-2.229-34.394,2.709A88.784,88.784,0,0,0,184.785,87.011C171.818,93.011,157.443,96.955,143.353,95.953Z" transform="translate(0.287 19.974)" fill="#faf1ef"/><path d="M50.019,54.411c15.975,3.936,32.207,12.153,43.455,24.362,13.742,14.917,29.941,30.951,51.556,31.444,13.729.314,27.516-3.816,39.984-9.958A88.785,88.785,0,0,0,13.233,55.489C24.717,50.978,38.018,51.455,50.019,54.411Z" transform="translate(1.218 2.311)" fill="#faf1ef"/><g transform="translate(10 -15)"><g transform="translate(0 80.721)"><g transform="translate(0 0)"><path d="M97.347,45.106l-2.2-1.159a.764.764,0,0,0-1.081.427h0a.769.769,0,0,0,.336.916l2.149,1.254a.767.767,0,0,0,1.066-.31l.05-.094A.769.769,0,0,0,97.347,45.106Z" transform="translate(21.658 -43.546)" fill="#010060"/><g transform="translate(0.471)"><path d="M112.167,84,113.4,86.05l4.513-3.27-1.721-1.587Z" transform="translate(28.023 -29.479)" fill="#233d5f"/><g transform="translate(6.117 57.76)"><circle cx="22.741" cy="22.741" r="22.741" fill="#010060"/><circle cx="12.003" cy="12.003" r="12.003" transform="translate(10.739 10.739)" fill="#fff"/><circle cx="3.793" cy="3.793" r="3.793" transform="translate(18.948 18.948)" fill="#010060"/></g><g transform="translate(132.973 58.113)"><circle cx="22.743" cy="22.743" r="22.743" fill="#010060"/><circle cx="12.003" cy="12.003" r="12.003" transform="translate(10.74 10.74)" fill="#fff"/><circle cx="3.793" cy="3.793" r="3.793" transform="translate(18.951 18.95)" fill="#010060"/></g><path d="M157.671,91.866a3.093,3.093,0,0,1-1.78,2.791c-7.247,3.408-11.62,10.591-11.62,10.591-10.432,21.456-14.109,18.8-17.343,20.4-2.81,1.4-48.655.811-60.512.633a1.8,1.8,0,0,1-1.609-2.565l1.534-3.307-56-.156a52.321,52.321,0,0,1,9.442-21.173,58.129,58.129,0,0,1,7.056-7.85,56.049,56.049,0,0,1,13.8-9.6l52.312-.775a3.526,3.526,0,0,1,.615,0,3.218,3.218,0,0,1,.329.045l.07.014a2.1,2.1,0,0,1,1.512,2.252s-10.4,9.648-11.324,20.478c-.011.15-.023.3-.033.447a13.653,13.653,0,0,0,13,14.353c8.111.413,24.648.969,28.444-1.088a23.527,23.527,0,0,0,5.386-3.62l0,0a26.558,26.558,0,0,0,3.95-4.984c1.11-1.711,2.353-3.845,3.838-6.567,5.108-9.369,3.412-16.267,2.222-20.82-.209-.815-.409-1.554-.545-2.219a11.739,11.739,0,0,0-.686-1.955c-1.922-4.543-7.167-13.927-10.218-20.968a.161.161,0,0,1-.022-.047c-.306-.709-.588-1.389-.838-2.039-.007-.021-.017-.04-.023-.056l-.047-.116a16.375,16.375,0,0,1-1.348-5.119,2.283,2.283,0,0,1,.135-.844c1.623-4.147,3.469-4.37,3.469-4.37L137.263,55.4,152.621,84.25C159.757,87.953,157.671,91.866,157.671,91.866Z" transform="translate(-10.342 -43.631)" fill="#e54750"/><path d="M148.759,94.664c-5.044.368-12.809-.142-16.775,2.033-6.692,3.668-14.094,13.787-27.917,11.674,0,0,3.739-17.733,16.894-25.3s29.256,2.956,32.237,8.441C154.414,93.745,152.229,94.409,148.759,94.664Z" transform="translate(24.971 -29.768)" fill="#e54750"/><path d="M90,69.908l0,.017A3.362,3.362,0,0,1,86.769,72.6L31.967,73.7a3.333,3.333,0,0,1-1.857-.516,3.078,3.078,0,0,1-.58-.463,3.308,3.308,0,0,1-.891-1.557l-.324-1.278A3.361,3.361,0,0,1,31.584,65.7l55.131.154A3.364,3.364,0,0,1,90,69.908Z" transform="translate(-3.61 -35.316)" fill="#01005f"/><path d="M66.339,107.642l-56-.156S18.8,76.892,45.017,77.538c.6.015,1.2.044,1.819.092C74.482,79.785,66.339,107.642,66.339,107.642Z" transform="translate(-10.342 -30.86)" fill="#e54750"/><path d="M98.987,48.308l-6.692,4.435a1.245,1.245,0,0,0-.339,1.744h0a1.245,1.245,0,0,0,1.658.368l6.932-4.085a1.245,1.245,0,0,0,.4-1.776l-.238-.35A1.245,1.245,0,0,0,98.987,48.308Z" transform="translate(20.325 -41.947)" fill="#010060"/><path d="M105.1,54.849a1.871,1.871,0,0,1-.836.194l-1.992-.006s-3.96-2.268-3.222-8.847L100.848,45a1.89,1.89,0,0,1,2.82.932l2.38,6.581A1.89,1.89,0,0,1,105.1,54.849Z" transform="translate(23.047 -43.233)" fill="#ebaf53"/><path d="M104.433,54.85a32.162,32.162,0,0,0-3.69-10.1l.007,0A1.893,1.893,0,0,1,103,45.931l2.38,6.581A1.889,1.889,0,0,1,104.433,54.85Z" transform="translate(23.718 -43.234)" fill="#010060"/><path d="M24.717,78.21a58.129,58.129,0,0,0-7.056,7.85h0a1.689,1.689,0,0,1-1.373-2.665l3.182-4.484a1.686,1.686,0,0,1,1.381-.712Z" transform="translate(-8.219 -30.607)" fill="#233d5f"/><path d="M71.138,70.773l-.4.01s.025-.023.066-.055c.167-.136.574-.435.406.044Z" transform="translate(12.415 -33.504)" fill="#233d5f" opacity="0.1"/></g><path d="M10.942,107.666l-.942-.29a67.36,67.36,0,0,1,6.423-13.733c5.715-9.231,12.7-14.627,20.186-15.606,12.447-1.625,20.9.044,25.827,5.105,4.791,4.915,6.312,13.2,4.52,24.613l-.975-.153c1.742-11.091.311-19.089-4.251-23.771-4.7-4.823-12.874-6.4-24.992-4.815-9.078,1.185-15.6,8.89-19.476,15.146A66.347,66.347,0,0,0,10.942,107.666Z" transform="translate(-10 -30.894)" fill="#010060"/><rect width="18.515" height="0.987" transform="translate(31.16 59.76) rotate(0.16)" fill="#010060"/><rect width="18.515" height="0.986" transform="translate(31.156 63.96) rotate(0.16)" fill="#010060"/><rect width="18.515" height="0.987" transform="translate(31.145 68.162) rotate(0.16)" fill="#010060"/><path d="M75.4,70.711q-2.53,2.323-4.883,4.809c-1.574,1.652-3.072,3.37-4.475,5.157-.694.9-1.362,1.812-1.995,2.749a30.962,30.962,0,0,0-1.721,2.9A13.131,13.131,0,0,0,60.6,92.655a19.574,19.574,0,0,0,.936,6.595,9.165,9.165,0,0,0,1.593,2.84,10.2,10.2,0,0,0,2.492,2.137,17.888,17.888,0,0,0,3.021,1.462c1.053.4,2.141.739,3.237,1.039,2.2.6,4.44,1.055,6.683,1.513a67.055,67.055,0,0,1-6.8-1.042,22.885,22.885,0,0,1-6.54-2.314c-.26-.138-.5-.31-.752-.465s-.482-.346-.717-.527l-.34-.289c-.114-.1-.223-.2-.328-.3l-.319-.315-.3-.336a10.041,10.041,0,0,1-1.809-3.074,15.29,15.29,0,0,1-.827-3.432,28.179,28.179,0,0,1-.219-3.482v-.434l.026-.45.028-.453.067-.445.069-.445c.028-.146.067-.289.1-.432a8.772,8.772,0,0,1,.23-.86A17.57,17.57,0,0,1,61.5,85.9a32.026,32.026,0,0,1,1.834-2.959C64,82,64.712,81.084,65.449,80.2a59.915,59.915,0,0,1,4.731-5.016A63.024,63.024,0,0,1,75.4,70.711Z" transform="translate(8.693 -33.428)" fill="#010060"/><path d="M98.908,114.065l-.73-.664c14.358-15.792,14.452-30.249,12-39.6a41.907,41.907,0,0,0-8.872-16.729l.713-.682a42.935,42.935,0,0,1,9.1,17.12,37.489,37.489,0,0,1,.249,18.383C109.571,99.49,105.377,106.949,98.908,114.065Z" transform="translate(23.223 -38.823)" fill="#010060"/><path d="M143.329,91.192a19.555,19.555,0,0,0-14.652-7.143,22.145,22.145,0,0,0-7.72,1.049l-.343-.925a22.805,22.805,0,0,1,8.06-1.11,20.778,20.778,0,0,1,15.4,7.487Z" transform="translate(31.676 -28.78)" fill="#010060"/></g><g transform="translate(169.79 67.119)"><path d="M134.041,119.365l-.716-.775c4.06-3.748,6.124-7.854,6.14-12.208.026-7.441-6.008-13.173-6.07-13.228l.721-.772c.262.245,6.425,6.089,6.4,13.995C140.508,111.039,138.328,115.408,134.041,119.365Z" transform="translate(-133.325 -92.382)" fill="#fff"/></g><g transform="translate(32.901 79.619)"><path d="M34.227,123.014l-.33-1c.161-.054,16.152-5.514,16.195-20.55h1.056C51.1,117.269,34.4,122.959,34.227,123.014Z" transform="translate(-33.897 -101.461)" fill="#fff"/></g></g><g transform="translate(53.069)"><path d="M72.242,10.667a7.4,7.4,0,0,0,1.656-3.2,8.4,8.4,0,0,0,.26-1.787c.128-3.2,11.764-2.557,11.764-2.557s.384,6.138,2.429,7.542S76.716,19.874,72.242,10.667Z" transform="translate(-39.619 21.809)" fill="#e4a7a0"/><g transform="translate(43.843 171.326)"><path d="M81.138,121.92s.021-9.838-.442-11.825,6.929,1.173,6.929,1.173.059,9.785.688,11.787C88.313,123.053,83.2,121.664,81.138,121.92Z" transform="translate(-80.284 -109.44)" fill="#e4a7a0"/><path d="M90.687,131.135c-.767,2.685-8.054,2.013-9.014.575a15.328,15.328,0,0,1-1.112-5.127.1.1,0,0,0,0-.022c-.015-.158-.03-.317-.043-.476,0-.012,0-.021,0-.029v-.023a18.762,18.762,0,0,1,.3-6.409,2.235,2.235,0,0,1,2.4-2.4c2.493.1,4.316,0,4.7,1.2s1.151,1.871,1.151,2.255c0,.251,1.015,3.464,1.514,6.419v0A10.439,10.439,0,0,1,90.687,131.135Z" transform="translate(-80.391 -106.507)" fill="#e54750"/><path d="M90.64,128.574c-.767,2.685-8.054,2.013-9.014.575a15.328,15.328,0,0,1-1.112-5.127c.143,1.168.7,3.856,2.839,4.552,2.748.894,6.8,1.084,7.172-4.031A10.431,10.431,0,0,1,90.64,128.574Z" transform="translate(-80.344 -103.946)" fill="#06065c"/><path d="M87.559,121.457a11.517,11.517,0,0,0-6.043,0l-.231-.72a12.082,12.082,0,0,1,6.487,0Z" transform="translate(-80.054 -105.354)" fill="#fff"/><path d="M87.649,122.791a11.532,11.532,0,0,0-6.045,0l-.229-.72a12.09,12.09,0,0,1,6.486,0Z" transform="translate(-80.02 -104.851)" fill="#fff"/><path d="M87.785,124.278a11.527,11.527,0,0,0-6.043,0l-.231-.721a12.136,12.136,0,0,1,6.489,0Z" transform="translate(-79.969 -104.29)" fill="#fff"/><path d="M90.357,125.343a15.033,15.033,0,0,0-9.681,0l-.07-.176a15.23,15.23,0,0,1,9.818,0Z" transform="translate(-80.31 -103.826)" fill="#06065c"/></g><g transform="translate(7.497 167.809)"><path d="M63.465,120.163a28.782,28.782,0,0,0,.958-10.26c-.575-5.276,6.233-2.111,7.1-1.726s-.384,11.316,0,13.713S63.944,123.232,63.465,120.163Z" transform="translate(-50.423 -106.886)" fill="#e4a7a0"/><path d="M75.985,118.573v5.755s-8.824,3.452-11,3.706-7.929,2.686-11-.639a8.135,8.135,0,0,1,.268-1.6,4.348,4.348,0,0,1,1.395-2.364c1.534-1.151,9.432-6.033,10.1-6.9,1.472-1.919,4.733-.9,4.988,0a1.889,1.889,0,0,0,2.686.894A1.851,1.851,0,0,1,75.985,118.573Z" transform="translate(-53.992 -103.664)" fill="#e54750"/><path d="M75.985,119.938v2.694s-8.824,3.452-11,3.706-7.929,2.686-11-.639a8.135,8.135,0,0,1,.268-1.6,7.026,7.026,0,0,0,5.548,1.535C63.252,125.15,72.983,121.184,75.985,119.938Z" transform="translate(-53.992 -101.969)" fill="#06065c"/><path d="M61.834,122.269a13.226,13.226,0,0,0-4.605-2.2l1.061-.691A13.08,13.08,0,0,1,62.38,121.5Z" transform="translate(-52.772 -102.179)" fill="#fff"/><path d="M63.268,120.981c-3.041-2.007-4.183-2.116-4.213-2.108a7.186,7.186,0,0,0,1.006-.659,17.207,17.207,0,0,1,3.727,1.98Z" transform="translate(-52.084 -102.618)" fill="#fff"/><path d="M64.7,119.733c-1.207-1.439-4.083-1.889-4.107-1.893l.878-.6a6.128,6.128,0,0,1,3.953,1.882Z" transform="translate(-51.506 -102.985)" fill="#fff"/><path d="M60.919,124.926C59.732,121.36,55.753,121,55.712,121l.015-.189c.041,0,4.144.366,5.371,4.055Z" transform="translate(-53.344 -101.639)" fill="#06065c"/></g><path d="M63.322,54.748,61.98,93.071l1.342,40.567s4.218,4.066,11.891,0l2.493-39.6L81.35,71.078l.77,22.959L85.8,134.465s2.649,3.609,11.665,0l-.193-41.205,3.644-38.512H63.322Z" transform="translate(-43.485 41.279)" fill="#e8aa50"/><path d="M64.851,72.559s25.317,5.369,37.593,0c0,0-.5-34.528.648-39.418l3.284,4.223s10.356-1.055,10.356-5.178c0,0-5.467-15.535-11.507-19.85L93.238,7.476s-5.369,5.115-10.1,3.581S78.15,7.988,78.15,7.988s-12.4,4.22-13.938,6.394-6.289,17.134-6.289,17.134.215,4.027,9.037,5.371Z" transform="translate(-45.014 23.468)" fill="#06065c"/><path d="M88.124,3.019a44.158,44.158,0,0,0-1.662,6.4c-.279,1.3-1.9,2.354-3.993,2.923a12.287,12.287,0,0,1-7.772-.366,3.792,3.792,0,0,1-1.517-1.307c-2.813-3.894-2.7-14.1-1.808-18.641,1.023-5.244,6.138-5.754,9.566-5.624s7.312,3.452,8.16,6.263S89.274-.306,88.124,3.019Z" transform="translate(-40.157 15.521)" fill="#e4a7a0"/><path d="M70.2-6.873s-.767-6.409,8.184-7.543A10.51,10.51,0,0,1,89.335-8.534c1.966,3.836.944,6.65.944,6.65L82.706-3.036S79.745-7.129,70.2-6.873Z" transform="translate(-40.393 15.184)" fill="#e8aa50"/><g transform="translate(1.994 52.242)"><g transform="translate(0 1.038)"><rect width="42.578" height="30.687" transform="translate(0.527 0.529)" fill="#fff"/><path d="M93.63,55.442H50V23.7H93.63V55.442ZM51.051,54.386H92.576V24.755H51.051Z" transform="translate(-49.995 -23.699)" fill="#010060"/></g><rect width="42.577" height="0.569" transform="translate(0.529 5.884)" fill="#010060"/><rect width="42.577" height="0.567" transform="translate(0.529 10.34)" fill="#010060"/><rect width="42.577" height="0.567" transform="translate(0.529 14.793)" fill="#010060"/><rect width="42.577" height="0.569" transform="translate(0.529 19.246)" fill="#010060"/><rect width="42.577" height="0.566" transform="translate(0.529 23.701)" fill="#010060"/><rect width="42.577" height="0.567" transform="translate(0.529 28.155)" fill="#010060"/><g transform="translate(42.581)"><path d="M81.307,24.328l3.706-.9V52.2l-3.706,2.813Z" transform="translate(-80.778 -22.762)" fill="#fff"/><path d="M80.923,56.261V24.095l4.764-1.15v29.7Zm1.055-31.335v29.21l2.652-2.011V24.286Z" transform="translate(-80.923 -22.945)" fill="#010060"/></g><g transform="translate(42.922 4.264)"><path d="M81.307,27.81,85.013,26.4Z" transform="translate(-81.119 -25.906)" fill="#fff"/><rect width="1.056" height="3.966" transform="matrix(0.355, 0.935, -0.935, 0.355, 3.708, 0)" fill="#010060"/></g><g transform="translate(42.922 8.596)"><path d="M81.307,30.957l3.706-1.406Z" transform="translate(-81.12 -29.052)" fill="#fff"/><rect width="1.056" height="3.966" transform="matrix(0.355, 0.935, -0.935, 0.355, 3.708, 0)" fill="#010060"/></g><g transform="translate(42.923 13.113)"><path d="M81.307,34.24l3.706-1.406Z" transform="translate(-81.12 -32.332)" fill="#fff"/><rect width="1.056" height="3.966" transform="translate(3.707) rotate(69.187)" fill="#010060"/></g><g transform="translate(42.917 17.641)"><path d="M81.307,37.525l3.706-1.406Z" transform="translate(-81.115 -35.622)" fill="#fff"/><rect width="1.055" height="3.966" transform="translate(3.707 0) rotate(69.164)" fill="#010060"/></g><g transform="translate(42.87 21.54)"><path d="M81.307,40.794l3.706-1.857Z" transform="translate(-81.067 -38.46)" fill="#fff"/><rect width="1.056" height="4.147" transform="matrix(0.448, 0.894, -0.894, 0.448, 3.707, 0)" fill="#010060"/></g><g transform="translate(42.841 25.777)"><path d="M81.307,44.16,85.013,42Z" transform="translate(-81.039 -41.542)" fill="#fff"/><rect width="1.056" height="4.291" transform="translate(3.709) rotate(59.794)" fill="#010060"/></g></g><path d="M96.255,30l2.237,4.134L85.4,37.949l.213,5s12.818-.373,14.99-.883,9.08-.64,9.591-2.941-4.15-12.666-4.15-12.666A57.749,57.749,0,0,1,96.255,30Z" transform="translate(-34.662 30.62)" fill="#e4a7a0"/><path d="M92.21,29.5s9.259-2.95,10.911-5.42l1.652,3.2s-1.919,3.366-11.126,5.036Z" transform="translate(-32.095 29.725)" fill="#e8aa50"/><path d="M81.477,5.333C80.3,7.361,73.445,6.755,73.445,6.755a8.4,8.4,0,0,0,.26-1.787A12.286,12.286,0,0,0,81.477,5.333Z" transform="translate(-39.165 22.523)" fill="#06065c"/><path d="M84.1-4.887S82.468-8.212,79.146-8.85a40.162,40.162,0,0,0-5.21-.57h0c-1.378-.07-2.352-.07-2.352-.07s-3.819-.639-4.714,1.151,0,2.429,0,2.429h5.7a3.755,3.755,0,0,1,3.368-2.4c.168-.006.344-.006.529,0A24.911,24.911,0,0,1,84.1-4.887ZM66.871-5.91a1.475,1.475,0,0,1,.178-.735A2.86,2.86,0,0,0,66.871-5.91Z" transform="translate(-41.792 17.034)" fill="#06065c"/><path d="M86.053-2.305a13.193,13.193,0,0,0-7.575-12.078c-3.81.929-4.9,6.947-4.914,7.008l-.186-.032c.01-.062,1.13-6.233,5.086-7.167l.029-.007.029.011A13.385,13.385,0,0,1,86.24-2.305h-.187Z" transform="translate(-39.191 15.157)" fill="#06065c"/><rect width="2.251" height="1.013" transform="translate(37.738)" fill="#06065c"/><path d="M73.684,1.214a1.718,1.718,0,0,1-.763-.182c-.822-.4.468-4.3.735-5.082l.179.061c-.6,1.742-1.351,4.6-.832,4.85a1.476,1.476,0,0,0,1.338,0l.1.162A1.545,1.545,0,0,1,73.684,1.214Z" transform="translate(-39.465 19.126)" fill="#06065c"/><g transform="translate(36.805 16.331)"><path d="M78.45,3.2A3.2,3.2,0,0,0,81.618.03,3.222,3.222,0,0,0,78.45-3.138,3.2,3.2,0,0,0,75.282.03,3.223,3.223,0,0,0,78.45,3.2Z" transform="translate(-75.279 3.138)" fill="#e54750"/></g><path d="M76.456,69.685c-2.513-1.74-1.384-9.266-1.334-9.586l.186.029c-.011.078-1.159,7.729,1.256,9.4Z" transform="translate(-38.645 43.295)" fill="#06065c"/><path d="M88.314,65.707c-5.266-4.049-4.534-7.122-4.5-7.25l.545.143-.273-.072.275.07c-.006.028-.637,2.864,4.3,6.655Z" transform="translate(-35.278 42.676)" fill="#06065c"/><path d="M87.2,129.923,85.514,92.734l3.372-27.267.186.021L85.7,92.741l1.685,37.174Z" transform="translate(-34.618 45.318)" fill="#06065c"/><path d="M70.6,129.346l-.187-.008,1.726-36.249L75.2,67l.187.025L72.323,93.106Z" transform="translate(-40.309 45.894)" fill="#06065c"/><path d="M85.258,58.162A162.068,162.068,0,0,1,64.615,56.6l.029-.186c.235.034,23.691,3.494,34.1,0l.061.179C95.3,57.769,90.328,58.162,85.258,58.162Z" transform="translate(-42.492 41.907)" fill="#06065c"/><path d="M57.622,33.4c-.24-.885-4.384-.318-4.384-.318L50.8,32.909V31.158c-2.941,1.981-2.111,3.58-2.237,5.358A2.016,2.016,0,0,0,49.72,38.73l3.083.224s3.376-.474,3.176-1.077c-.052-.161-.328-.253-.7-.3,1.041-.235,2.116-.574,1.988-.957-.114-.344-1.07-.43-2.042-.425,1.056-.235,2.171-.58,2.042-.969s-1.417-.45-2.532-.414C55.972,34.519,57.78,33.99,57.622,33.4Z" transform="translate(-48.546 32.391)" fill="#e4a7a0"/><path d="M81.268,28.491H75.936l1.348-16.107h2.493Z" transform="translate(-38.227 25.317)" fill="#e8aa50"/><rect width="8.562" height="2.013" transform="translate(24.901 49.836)" fill="#e8aa50"/><path d="M77.582,13.2l2.336-4.123,1.444,5.049,4.466-5.957L84.412,5.648,79.271,8.881Z" transform="translate(-37.607 22.78)" fill="#06065c"/><path d="M79.859,12.954,79.3,8.393l-5.59-2.105L71.538,8.831,77,11.807l1.29-2.164Z" transform="translate(-39.884 23.021)" fill="#06065c"/><path d="M75.956,9.538l1.319,3.918H79.77l1.313-3.918Z" transform="translate(-38.219 24.245)" fill="#e8aa50"/><path d="M78.484,10.067l1.095-1.932.552,1.932Z" transform="translate(-37.267 23.717)" fill="#e8aa50"/><path d="M77.154,9.844l-.53-1.119-.668,1.119Z" transform="translate(-38.219 23.939)" fill="#e8aa50"/><path d="M80.524,13.657l-.819-2.86.183-.052.712,2.493,4.355-5.8.15.113Z" transform="translate(-36.807 23.452)" fill="#fff"/><path d="M77.008,11.242,71.6,8.3l.089-.167,5.245,2.86L78.184,8.9l.161.1Z" transform="translate(-39.859 23.714)" fill="#fff"/><path d="M91.4,34.19,87.8,20.019,91.929,28.4Zm-2.97-12.471,2.883,11.354.424-4.641Z" transform="translate(-33.756 28.194)" fill="#fff"/><path d="M83.086,54.722A129.468,129.468,0,0,1,64.615,53.26l.03-.186c.2.032,20.216,3.281,32.181-.019l.051.183A54.117,54.117,0,0,1,83.086,54.722Z" transform="translate(-42.492 40.641)" fill="#fff"/><path d="M95.043,32.474l5.025,1.882-5.7-3.7Z" transform="translate(-31.284 32.204)" fill="#06065c"/><path d="M99.118,38.758h-.055l.006-.189c.036,0,3.26.078,4.389-2.142s-.859-4.344-.878-4.364l.136-.131c.022.022,2.1,2.248.91,4.582C102.527,38.675,99.557,38.758,99.118,38.758Z" transform="translate(-29.513 32.683)" fill="#06065c"/><path d="M89.2,35.009a26.689,26.689,0,0,0-4.771-.589h0s-3.516-.357-3.9,0c-.295.275.483.531.858.635a1,1,0,0,0-.081.067l-1.619.117s-4.143-.567-4.384.317c-.158.587,1.648,1.115,2.884,1.407-1.115-.036-2.4.014-2.532.414s.986.734,2.042.969c-.972,0-1.929.08-2.042.424-.127.381.949.721,1.989.957-.373.05-.648.142-.7.3-.2.6,3.178,1.077,3.178,1.077l2.185-.158a1.873,1.873,0,0,0,.767.153c4.985,0,5.314-1,6.337-1.093S92.953,34.973,89.2,35.009Z" transform="translate(-38.466 33.56)" fill="#e4a7a0"/></g></g></g></svg>