<svg xmlns="http://www.w3.org/2000/svg" width="150" height="197.787" viewBox="0 0 150 197.787"><g transform="translate(0 3.125)"><circle cx="28.421" cy="28.421" r="28.421" transform="translate(0.064 -3.125)" fill="#faf1ef"/><circle cx="28.421" cy="28.421" r="28.421" transform="translate(93.158 118.39)" fill="#faf1ef"/><g transform="translate(0 6.212)"><g transform="translate(15.131)"><g transform="translate(0 62.987)"><path d="M26.069,69.2s-7.522,2.569-7.215,7.354,7.215,6.811,7.215,6.811Z" transform="translate(-15.131 -69.199)" fill="#e5a7a1"/><path d="M26.069,83.363s-11.53,8.125-10.914,12.762,7.016,6.17,10.914,5.1Z" transform="translate(-15.131 -69.199)" fill="#e5a7a1"/><path d="M26.069,105.227s-9.681,5.943-9.681,11.377,3.329,8.057,9.681,5.512Z" transform="translate(-15.131 -69.199)" fill="#e5a7a1"/><path d="M28.722,121.381s-10.5,7.4-9.876,12.35,8.294,7.707,14.14,2.18Z" transform="translate(-15.131 -69.199)" fill="#e5a7a1"/></g><g transform="translate(7.018)"><g transform="translate(3.921 2.423)"><path d="M93.134,140.539H34.517a8.447,8.447,0,0,1-8.447-8.447V17.083a8.447,8.447,0,0,1,8.447-8.448H93.134a8.447,8.447,0,0,1,8.447,8.448V132.092A8.447,8.447,0,0,1,93.134,140.539Z" transform="translate(-26.07 -8.635)" fill="#72c8b7"/><path d="M81.068,133.73H46.582a16.615,16.615,0,0,1-16.615-16.615V32.059A16.614,16.614,0,0,1,46.582,15.445H81.068A16.613,16.613,0,0,1,97.682,32.059v85.056A16.613,16.613,0,0,1,81.068,133.73Z" transform="translate(-26.07 -8.635)" fill="#fff"/><path d="M71.045,12.807H49.237a1.055,1.055,0,0,1-1.055-1.055h0A1.055,1.055,0,0,1,49.237,10.7H71.045A1.055,1.055,0,0,1,72.1,11.752h0A1.056,1.056,0,0,1,71.045,12.807Z" transform="translate(-26.07 -8.635)" fill="#fff"/><path d="M76.9,12.807h-1.79a1.055,1.055,0,0,1-1.055-1.055h0A1.055,1.055,0,0,1,75.106,10.7H76.9a1.055,1.055,0,0,1,1.055,1.055h0A1.057,1.057,0,0,1,76.9,12.807Z" transform="translate(-26.07 -8.635)" fill="#fff"/></g><path d="M91.2,138.591H29.079a6.99,6.99,0,0,1-6.93-7.031V13.244a6.99,6.99,0,0,1,6.93-7.032H91.2a6.99,6.99,0,0,1,6.93,7.032V131.56A6.989,6.989,0,0,1,91.2,138.591ZM29.079,6.687a6.518,6.518,0,0,0-6.462,6.557V131.56a6.518,6.518,0,0,0,6.462,6.557H91.2a6.517,6.517,0,0,0,6.461-6.557V13.244A6.516,6.516,0,0,0,91.2,6.687H29.079Z" transform="translate(-22.149 -6.212)" fill="#06065c"/><g transform="translate(10.836 21.179)"><path d="M91.766,60.6a28.874,28.874,0,0,1-8.3,20.331,28.208,28.208,0,0,1-9.006,6.162,28.041,28.041,0,0,1-22.058,0,28.224,28.224,0,0,1-9.007-6.162,29,29,0,0,1,0-40.661A28.245,28.245,0,0,1,52.4,34.107a28.041,28.041,0,0,1,22.058,0,28.208,28.208,0,0,1,9.006,6.162,28.873,28.873,0,0,1,8.3,20.33Zm-56.492,0A28.159,28.159,0,1,0,63.43,32.029,28.4,28.4,0,0,0,35.274,60.6Z" transform="translate(-32.985 -27.391)" fill="#06065c"/><path d="M35.769,43.666c.6.305,1.3.646,2.062,1.013.7.339,1.465.7,2.272,1.079C48.615,49.75,62.044,55.6,62.044,55.6L51.112,33.932l-1.144-2.265L48.925,29.6A29.136,29.136,0,0,0,35.769,43.666Z" transform="translate(-32.985 -27.391)" fill="#e6a850"/><path d="M64.549,28.9a29.208,29.208,0,1,1-28.78,29.2,29.457,29.457,0,0,1,2.5-11.934c.6.3,1.3.646,2.062,1.014a27.118,27.118,0,0,0-2.277,10.92c0,9.959,5.77,17.184,13.7,21.83,3.892,2.278,7.976,5.052,12.791,5.052,7.462,0,13.064-4.145,17.88-9.182,4.625-4.84,8.611-10.425,8.611-17.7,0-9.013-4.956-15.33-11.664-20.207-4.342-3.156-9.078-6.674-14.827-6.674a26.06,26.06,0,0,0-12.074,2.949l-1.044-2.068A28.3,28.3,0,0,1,64.549,28.9Z" transform="translate(-32.985 -27.391)" fill="#e6a850"/><path d="M37.83,44.679c.7.339,1.465.7,2.272,1.079C48.614,49.75,62.043,55.6,62.043,55.6L51.112,33.932l-1.144-2.265A26.821,26.821,0,0,0,37.83,44.679Z" transform="translate(-32.985 -27.391)" fill="#e54750"/><path d="M64.549,31.226c5.749,0,10.485,3.518,14.827,6.674C86.084,42.777,91.04,49.094,91.04,58.107c0,7.274-3.986,12.86-8.611,17.7-4.815,5.037-10.418,9.182-17.88,9.182-4.815,0-8.9-2.773-12.791-5.052-7.931-4.646-13.7-11.871-13.7-21.83a27.118,27.118,0,0,1,2.277-10.92c.7.338,1.466.7,2.272,1.078a24.553,24.553,0,0,0-2.042,9.842A23.986,23.986,0,1,0,64.549,33.77a23.609,23.609,0,0,0-10.932,2.669l-1.143-2.265A26.078,26.078,0,0,1,64.549,31.226Z" transform="translate(-32.985 -27.391)" fill="#e54750"/><path d="M64.549,33.77A24.339,24.339,0,1,1,40.565,58.107a24.553,24.553,0,0,1,2.042-9.842c8.513,3.992,21.941,9.842,21.941,9.842L53.617,36.439A23.609,23.609,0,0,1,64.549,33.77Z" transform="translate(-32.985 -27.391)" fill="#e6a850"/><path d="M51.112,33.932,62.044,55.6S48.614,49.749,40.1,45.758A24.277,24.277,0,0,1,51.112,33.932Z" transform="translate(-32.985 -27.391)" fill="#e6a850"/><path d="M59.091,40.078l-.276-.226A6.4,6.4,0,0,1,61.387,38.2c1.664-.664,4.614-1.317,9.22-.657l-.05.356c-4.508-.646-7.388-.018-9.01.623A6.252,6.252,0,0,0,59.091,40.078Z" transform="translate(-32.985 -27.391)" fill="#6ec2b3"/><g transform="translate(26.152 6.535)"><path d="M69.288,37.565S68.964,42.855,64,42.6C64,42.6,64.29,39.271,69.288,37.565Z" transform="translate(-59.137 -33.926)" fill="#6ec2b3"/><path d="M66.13,37.446s-3.5-.6-4.311-3.52A4.674,4.674,0,0,1,66.13,37.446Z" transform="translate(-59.137 -33.926)" fill="#6ec2b3"/><path d="M62.044,38.152s1.47,3.03-2.128,5.132C59.916,43.284,58.894,40.623,62.044,38.152Z" transform="translate(-59.137 -33.926)" fill="#6ec2b3"/><g transform="translate(0 0.652)"><path d="M68.831,37.774l0,.081a7.189,7.189,0,0,1-.789,2.636,4.682,4.682,0,0,1-1.6,1.762,4.933,4.933,0,0,1-2.949.687l-.056,0,0-.056a4.448,4.448,0,0,1,.776-1.9A8.533,8.533,0,0,1,68.754,37.8Zm-5.282,5.059a4.419,4.419,0,0,0,4.393-2.393,7.1,7.1,0,0,0,.77-2.511,8.376,8.376,0,0,0-4.406,3.1A4.631,4.631,0,0,0,63.549,42.833Z" transform="translate(-59.137 -34.578)" fill="#06065c"/><path d="M65.44,38.221l-.09-.015a7.02,7.02,0,0,1-1.866-.67A4.787,4.787,0,0,1,61,34.647l-.018-.067.068,0a4.1,4.1,0,0,1,1.709.4,5.125,5.125,0,0,1,2.653,3.151Zm-4.319-3.534a4.7,4.7,0,0,0,2.413,2.752,7.1,7.1,0,0,0,1.742.641,4.992,4.992,0,0,0-2.564-3A4.2,4.2,0,0,0,61.121,34.687Z" transform="translate(-59.137 -34.578)" fill="#06065c"/><path d="M63.165,40.345c0,.1,0,.2-.012.308a4.335,4.335,0,0,1-2.44,3.4l-.054.032-.022-.059a3.572,3.572,0,0,1-.121-1.667,5.493,5.493,0,0,1,2.267-3.528l.052-.041.028.06A3.716,3.716,0,0,1,63.165,40.345Zm-2.449,3.577a4.275,4.275,0,0,0,2.33-3.272,3.79,3.79,0,0,0-.253-1.692,5.36,5.36,0,0,0-2.171,3.414A3.671,3.671,0,0,0,60.716,43.922Z" transform="translate(-59.137 -34.578)" fill="#06065c"/><path d="M70.59,38.1l-.017.108a14.638,14.638,0,0,0-11.363,2.55l-.006,0-.067-.085.006,0A14.743,14.743,0,0,1,70.59,38.1Z" transform="translate(-59.137 -34.578)" fill="#06065c"/></g></g><path d="M63.224,48.809s-2.017,2.691,0,4.118,2.928-.407,2.424-1.062-.87-1.1-.3-1.109,1.88,3.877,4.24,3.3,1.822-2.473.731-2.982-3.883-.881-3.94-1.621.345-.873.967-.438,1.647-.218,1.1-1.34S64.058,45.868,63.224,48.809Z" transform="translate(-32.985 -27.391)" fill="#fff"/><path d="M62.052,71.814s3.324.228,3.389-2.267-1.946-2.256-2.208-1.47-.43,1.345-.747.865,2.156-3.726.38-5.406-3.038-.183-2.856,1.021,1.411,3.774.834,4.23-.907.188-.892-.579-1.086-1.276-1.706-.191S59.172,72.726,62.052,71.814Z" transform="translate(-32.985 -27.391)" fill="#fff"/><g transform="translate(38.064 12.699)"><ellipse cx="4.608" cy="4.676" rx="4.608" ry="4.676" fill="#e54750"/><g transform="translate(0.767 0.785)"><ellipse cx="0.473" cy="1.069" rx="0.473" ry="1.069" transform="translate(0 2.704)" fill="#fff"/><path d="M73.3,46.941a.63.63,0,0,0-.128.859.931.931,0,0,0,.9.5c.553-.112.411-.929.312-1.313a.276.276,0,0,0-.261-.209,1.488,1.488,0,0,0-.815.159Z" transform="translate(-71.816 -40.875)" fill="#fff"/><ellipse cx="0.591" cy="0.866" rx="0.591" ry="0.866" transform="translate(2.659)" fill="#fff"/><path d="M76.428,47.833a.528.528,0,0,1,.676.3.536.536,0,0,1-.449.593.526.526,0,0,1-.676-.3A.535.535,0,0,1,76.428,47.833Z" transform="translate(-71.816 -40.875)" fill="#fff"/><ellipse cx="0.291" cy="0.368" rx="0.291" ry="0.368" transform="translate(1.036 2.108) rotate(-104.271)" fill="#fff"/><ellipse cx="0.291" cy="0.368" rx="0.291" ry="0.368" transform="translate(4.948 6.069) rotate(-104.259)" fill="#fff"/><ellipse cx="0.288" cy="0.373" rx="0.288" ry="0.373" transform="translate(7.205 6.207) rotate(-166.603)" fill="#fff"/><path d="M76.436,42.352a.541.541,0,0,1,.716-.255.558.558,0,0,1,.071.767.543.543,0,0,1-.717.255A.558.558,0,0,1,76.436,42.352Z" transform="translate(-71.816 -40.875)" fill="#fff"/><ellipse cx="0.872" cy="0.627" rx="0.872" ry="0.627" transform="translate(4.725 3.441)" fill="#fff"/><path d="M75.491,44.753a.8.8,0,0,1-.1,1.08c-.295.173-.73-.03-.971-.453a.8.8,0,0,1,.1-1.08C74.816,44.127,75.251,44.33,75.491,44.753Z" transform="translate(-71.816 -40.875)" fill="#fff"/><path d="M78.263,42.422a.619.619,0,0,0-.214.749c.234.572.756,1.641,1.218,1.145C79.8,43.742,79.007,41.926,78.263,42.422Z" transform="translate(-71.816 -40.875)" fill="#fff"/></g></g><g transform="translate(32.018 28.875)"><ellipse cx="4.608" cy="4.676" rx="4.608" ry="4.676" fill="#e54750"/><g transform="translate(0.768 0.784)"><ellipse cx="0.472" cy="1.069" rx="0.472" ry="1.069" transform="translate(0 2.705)" fill="#fff"/><path d="M67.252,63.117a.63.63,0,0,0-.129.859.933.933,0,0,0,.9.5c.553-.112.411-.93.312-1.313a.276.276,0,0,0-.261-.209,1.5,1.5,0,0,0-.815.158Z" transform="translate(-65.771 -57.05)" fill="#fff"/><ellipse cx="0.592" cy="0.867" rx="0.592" ry="0.867" transform="translate(2.657)" fill="#fff"/><path d="M70.381,64.01a.527.527,0,0,1,.677.3.537.537,0,0,1-.45.594.526.526,0,0,1-.676-.3A.536.536,0,0,1,70.381,64.01Z" transform="translate(-65.771 -57.05)" fill="#fff"/><ellipse cx="0.291" cy="0.368" rx="0.291" ry="0.368" transform="translate(1.033 2.109) rotate(-104.271)" fill="#fff"/><ellipse cx="0.291" cy="0.368" rx="0.291" ry="0.368" transform="translate(4.943 6.073) rotate(-104.271)" fill="#fff"/><ellipse cx="0.288" cy="0.373" rx="0.288" ry="0.373" transform="translate(7.202 6.209) rotate(-166.556)" fill="#fff"/><path d="M70.389,58.528a.543.543,0,0,1,.717-.255.559.559,0,0,1,.07.767.543.543,0,0,1-.717.255A.558.558,0,0,1,70.389,58.528Z" transform="translate(-65.771 -57.05)" fill="#fff"/><ellipse cx="0.873" cy="0.627" rx="0.873" ry="0.627" transform="translate(4.722 3.442)" fill="#fff"/><path d="M69.445,60.93a.8.8,0,0,1-.1,1.08c-.3.173-.73-.03-.971-.453a.8.8,0,0,1,.1-1.08C68.77,60.3,69.2,60.506,69.445,60.93Z" transform="translate(-65.771 -57.05)" fill="#fff"/><path d="M72.217,58.6a.619.619,0,0,0-.216.748c.235.573.758,1.641,1.219,1.146C73.754,59.918,72.961,58.1,72.217,58.6Z" transform="translate(-65.771 -57.05)" fill="#fff"/></g></g><g transform="translate(14.478 15.377)"><ellipse cx="3.504" cy="3.555" rx="3.504" ry="3.555" fill="#e54750"/><g transform="translate(0.584 0.596)"><ellipse cx="0.359" cy="0.813" rx="0.359" ry="0.813" transform="translate(0 2.056)" fill="#fff"/><path d="M49.174,47.976a.48.48,0,0,0-.1.654.708.708,0,0,0,.685.378c.42-.085.312-.707.237-1a.21.21,0,0,0-.2-.159,1.128,1.128,0,0,0-.62.121Z" transform="translate(-48.047 -43.364)" fill="#fff"/><ellipse cx="0.449" cy="0.659" rx="0.449" ry="0.659" transform="translate(2.022)" fill="#fff"/><ellipse cx="0.35" cy="0.443" rx="0.35" ry="0.443" transform="translate(3.246 6.079) rotate(-104.3)" fill="#fff"/><ellipse cx="0.221" cy="0.279" rx="0.221" ry="0.279" transform="translate(0.79 1.598) rotate(-104.175)" fill="#fff"/><ellipse cx="0.221" cy="0.279" rx="0.221" ry="0.279" transform="translate(3.763 4.611) rotate(-104.175)" fill="#fff"/><ellipse cx="0.219" cy="0.283" rx="0.219" ry="0.283" transform="matrix(-0.973, -0.232, 0.232, -0.973, 5.48, 4.72)" fill="#fff"/><path d="M51.559,44.488a.412.412,0,0,1,.545-.194.426.426,0,0,1,.054.583.413.413,0,0,1-.545.194A.424.424,0,0,1,51.559,44.488Z" transform="translate(-48.047 -43.364)" fill="#fff"/><ellipse cx="0.663" cy="0.477" rx="0.663" ry="0.477" transform="translate(3.592 2.617)" fill="#fff"/><path d="M50.841,46.313a.607.607,0,0,1-.075.821c-.225.132-.555-.022-.738-.344a.608.608,0,0,1,.075-.821C50.327,45.837,50.658,45.992,50.841,46.313Z" transform="translate(-48.047 -43.364)" fill="#fff"/><path d="M52.948,44.541a.471.471,0,0,0-.164.569c.179.436.576,1.248.927.871C54.117,45.544,53.514,44.164,52.948,44.541Z" transform="translate(-48.047 -43.364)" fill="#fff"/></g></g><g transform="translate(14.556 32.216)"><ellipse cx="4.608" cy="4.676" rx="4.608" ry="4.676" fill="#e54750"/><g transform="translate(0.767 0.784)"><ellipse cx="0.473" cy="1.069" rx="0.473" ry="1.069" transform="translate(0 2.705)" fill="#fff"/><path d="M49.79,66.458a.629.629,0,0,0-.128.859.93.93,0,0,0,.9.5c.554-.112.412-.929.313-1.313a.277.277,0,0,0-.262-.209,1.493,1.493,0,0,0-.814.158Z" transform="translate(-48.308 -60.391)" fill="#fff"/><ellipse cx="0.591" cy="0.867" rx="0.591" ry="0.867" transform="translate(2.66)" fill="#fff"/><ellipse cx="0.461" cy="0.582" rx="0.461" ry="0.582" transform="translate(4.275 7.998) rotate(-104.3)" fill="#fff"/><ellipse cx="0.291" cy="0.368" rx="0.291" ry="0.368" transform="translate(1.034 2.108) rotate(-104.271)" fill="#fff"/><ellipse cx="0.291" cy="0.367" rx="0.291" ry="0.367" transform="matrix(-0.248, -0.969, 0.969, -0.248, 4.945, 6.07)" fill="#fff"/><ellipse cx="0.287" cy="0.373" rx="0.287" ry="0.373" transform="translate(7.205 6.209) rotate(-166.532)" fill="#fff"/><path d="M52.928,61.869a.541.541,0,0,1,.716-.255.558.558,0,0,1,.07.767.541.541,0,0,1-.716.255A.557.557,0,0,1,52.928,61.869Z" transform="translate(-48.308 -60.391)" fill="#fff"/><ellipse cx="0.872" cy="0.627" rx="0.872" ry="0.627" transform="translate(4.725 3.441)" fill="#fff"/><path d="M51.983,64.271a.8.8,0,0,1-.1,1.08c-.3.173-.73-.03-.971-.453a.8.8,0,0,1,.1-1.08C51.308,63.644,51.742,63.847,51.983,64.271Z" transform="translate(-48.308 -60.391)" fill="#fff"/><path d="M54.755,61.939a.62.62,0,0,0-.215.749c.235.573.757,1.641,1.219,1.145C56.292,63.259,55.5,61.442,54.755,61.939Z" transform="translate(-48.308 -60.391)" fill="#fff"/></g></g><path d="M79.916,44.249a4.623,4.623,0,1,1-4.623-4.69A4.662,4.662,0,0,1,79.916,44.249Zm-9.138,0a4.516,4.516,0,1,0,4.515-4.582A4.553,4.553,0,0,0,70.778,44.249Z" transform="translate(-32.985 -27.391)" fill="#06065c"/><path d="M74.391,62.792a4.623,4.623,0,1,1-4.623-4.69A4.662,4.662,0,0,1,74.391,62.792Zm-9.138,0a4.516,4.516,0,1,0,4.515-4.582A4.554,4.554,0,0,0,65.253,62.792Z" transform="translate(-32.985 -27.391)" fill="#06065c"/><path d="M56.071,63.321a4.623,4.623,0,1,1-4.623-4.69A4.662,4.662,0,0,1,56.071,63.321Zm-9.137,0a4.515,4.515,0,1,0,4.515-4.581A4.554,4.554,0,0,0,46.934,63.321Z" transform="translate(-32.985 -27.391)" fill="#06065c"/><g transform="translate(42.455 18.82)"><path d="M82.786,48.737a23.766,23.766,0,0,1-.226,3.29,22.457,22.457,0,0,1-1.07,4.4,16.377,16.377,0,0,1-1.83,3.762l-.145-.107a16.224,16.224,0,0,0,1.809-3.724A23.319,23.319,0,0,0,82.479,46.23l.178-.019A24.935,24.935,0,0,1,82.786,48.737Z" transform="translate(-75.44 -46.211)" fill="#6ec2b3"/><path d="M81.324,56.356s-2.553,3.279-5.884,2.062C75.44,58.418,76.912,55.345,81.324,56.356Z" transform="translate(-75.44 -46.211)" fill="#6ec2b3"/><path d="M81.975,54.878s-.272,4.256,2.181,5.309C84.155,60.187,85.572,57.423,81.975,54.878Z" transform="translate(-75.44 -46.211)" fill="#6ec2b3"/><path d="M82.29,52.583a2.592,2.592,0,0,1-3.04.616S80.7,51.449,82.29,52.583Z" transform="translate(-75.44 -46.211)" fill="#6ec2b3"/><path d="M82.561,52.026s.4,2.742,2.467,2.576C85.027,54.6,85.653,52.438,82.561,52.026Z" transform="translate(-75.44 -46.211)" fill="#6ec2b3"/><path d="M82.6,49.09a1.785,1.785,0,0,1-2.541.97A2.975,2.975,0,0,1,82.6,49.09Z" transform="translate(-75.44 -46.211)" fill="#6ec2b3"/><path d="M82.786,48.737a2.423,2.423,0,0,0,2.293,2.1S85.4,49.066,82.786,48.737Z" transform="translate(-75.44 -46.211)" fill="#6ec2b3"/></g><g transform="translate(42.533 21.663)"><path d="M81.572,57.922l-.052.068a7.455,7.455,0,0,1-1.707,1.5,4.748,4.748,0,0,1-4.238.58l-.057-.021.026-.055a4.111,4.111,0,0,1,1.306-1.431,5.611,5.611,0,0,1,4.639-.66Zm-5.9,2.066a4.651,4.651,0,0,0,4.083-.589A7.47,7.47,0,0,0,81.38,57.99a5.477,5.477,0,0,0-4.464.66A4.184,4.184,0,0,0,75.671,59.988Z" transform="translate(-75.518 -49.054)" fill="#06065c"/><path d="M84.351,60.437a3.262,3.262,0,0,1-.28,1.376l-.023.044L84,61.837a3.93,3.93,0,0,1-2.042-3.088,9.917,9.917,0,0,1-.172-2.274l.006-.1.078.055a5.12,5.12,0,0,1,2.462,3.648C84.346,60.2,84.351,60.323,84.351,60.437ZM84,61.716a3.4,3.4,0,0,0,.23-1.63,4.971,4.971,0,0,0-2.336-3.5,9.941,9.941,0,0,0,.175,2.149A3.981,3.981,0,0,0,84,61.716Z" transform="translate(-75.518 -49.054)" fill="#06065c"/><path d="M82.238,54.175l-.042.045a3.319,3.319,0,0,1-.923.665,2.28,2.28,0,0,1-2.183-.039l-.058-.032.042-.051a3.39,3.39,0,0,1,.939-.746,1.975,1.975,0,0,1,2.173.121Zm-3.036.609a2.137,2.137,0,0,0,2.021,0,3.325,3.325,0,0,0,.85-.6,1.84,1.84,0,0,0-2.006-.079A3.372,3.372,0,0,0,79.2,54.784Z" transform="translate(-75.518 -49.054)" fill="#06065c"/><path d="M85,55.756a1.75,1.75,0,0,1-.056.462l-.01.036-.037,0A2.087,2.087,0,0,1,82.836,55a4.61,4.61,0,0,1-.463-1.368l-.011-.071.071.009A3.01,3.01,0,0,1,84.7,54.726,1.884,1.884,0,0,1,85,55.756Zm-.149.394a1.872,1.872,0,0,0-.236-1.367,2.866,2.866,0,0,0-2.123-1.092,4.605,4.605,0,0,0,.44,1.262A1.963,1.963,0,0,0,84.852,56.15Z" transform="translate(-75.518 -49.054)" fill="#06065c"/><path d="M82.54,50.65l-.02.058a1.931,1.931,0,0,1-.929,1.044,2.075,2.075,0,0,1-1.683-.041l-.072-.029.053-.059a3.052,3.052,0,0,1,2.592-.986Zm-2.515.988a1.934,1.934,0,0,0,1.52.015,1.841,1.841,0,0,0,.852-.923A2.9,2.9,0,0,0,80.025,51.638Z" transform="translate(-75.518 -49.054)" fill="#06065c"/><path d="M85.013,52.258a1.09,1.09,0,0,1-.014.193l-.009.049-.05,0a2.475,2.475,0,0,1-2.34-2.153l-.006-.067.066.008a2.815,2.815,0,0,1,2.028.979A1.7,1.7,0,0,1,85.013,52.258Zm-.114.123a1.607,1.607,0,0,0-.3-1.057,2.67,2.67,0,0,0-1.885-.924,2.526,2.526,0,0,0,.334.881A2.379,2.379,0,0,0,84.9,52.381Z" transform="translate(-75.518 -49.054)" fill="#06065c"/><path d="M82.636,49.056a47.687,47.687,0,0,1-1.193,9.592,40.978,40.978,0,0,1-1.428,4.869c-.057.158-.1.283-.105.306a.047.047,0,0,0-.012-.036l-.04.035v.056l-.045-.024c-.021-.032-.021-.032.1-.374a46.418,46.418,0,0,0,2.614-14.426Z" transform="translate(-75.518 -49.054)" fill="#06065c"/></g><path d="M73.751,73.207s.093,3.042,1.946,2.82,2.762-.387,2.853-1.658-1.044-.443-1.268-1.162,1.559-.94,2.686-.442,2.823-.222,2.356-2.71-4.666,1.161-5.21.773a.95.95,0,0,1,.611-1.649c.97.045.588-2.056-1.156-2.056S73.059,69.612,73.751,73.207Z" transform="translate(-32.985 -27.391)" fill="#fff"/><g transform="translate(22.543 21.115)"><path d="M58.115,48.6c.724.345.88,1.555.349,2.7s-1.549,1.8-2.272,1.453-.88-1.555-.349-2.7S57.392,48.253,58.115,48.6Z" transform="translate(-55.528 -48.506)" fill="#06065c"/><path d="M58.266,50.308a2.393,2.393,0,0,1-.352,1.332,1.856,1.856,0,0,1-1.181.809l-.021-.144.011.072-.011-.072a1.738,1.738,0,0,0,1.084-.747,3.028,3.028,0,0,0,.16-2.426l.139-.037A4.895,4.895,0,0,1,58.266,50.308Z" transform="translate(-55.528 -48.506)" fill="#fff"/></g><g transform="translate(15.325 8.954)"><path d="M51.552,37.781c-.117.579-.935.9-1.826.713s-1.52-.8-1.4-1.383.934-.9,1.825-.713S51.668,37.2,51.552,37.781Z" transform="translate(-48.31 -36.345)" fill="#06065c"/><path d="M50.384,38.182a1.683,1.683,0,0,1-.989-.024,1.371,1.371,0,0,1-.767-.709l.1-.04-.048.02.048-.02a1.276,1.276,0,0,0,.707.651,2.123,2.123,0,0,0,1.72-.3l.05.093A3.48,3.48,0,0,1,50.384,38.182Z" transform="translate(-48.31 -36.345)" fill="#fff"/></g><g transform="translate(33.867 43.694)"><path d="M71.629,73.2c-.173.853-1.377,1.322-2.69,1.05s-2.238-1.185-2.066-2.038,1.376-1.323,2.689-1.051S71.8,72.348,71.629,73.2Z" transform="translate(-66.852 -71.085)" fill="#06065c"/><path d="M69.909,73.791a2.474,2.474,0,0,1-1.459-.036,2.007,2.007,0,0,1-1.128-1.045l.143-.06-.071.029.071-.029a1.88,1.88,0,0,0,1.04.959,3.13,3.13,0,0,0,2.535-.442l.072.138A5.039,5.039,0,0,1,69.909,73.791Z" transform="translate(-66.852 -71.085)" fill="#fff"/></g><g transform="translate(50.085 35.083)"><ellipse cx="1.933" cy="1.219" rx="1.933" ry="1.219" transform="translate(2.601 0.104) rotate(92.447)" fill="#06065c"/><path d="M83.625,65.108a2.023,2.023,0,0,1-.153-1.151,1.588,1.588,0,0,1,.659-1.017l.062.1-.031-.052.031.052a1.493,1.493,0,0,0-.6.937,2.552,2.552,0,0,0,.651,1.938l-.1.074A4.1,4.1,0,0,1,83.625,65.108Z" transform="translate(-83.07 -62.474)" fill="#fff"/></g><g transform="translate(39.778 23.25)"><ellipse cx="1.447" cy="2.295" rx="1.447" ry="2.295" fill="#06065c"/><path d="M75.155,52.692a3.986,3.986,0,0,1-.636,1.947l-.089-.061a3.625,3.625,0,0,0,.582-2.272,1.717,1.717,0,0,0-.76-1.115l.06-.091a1.819,1.819,0,0,1,.806,1.185A2.17,2.17,0,0,1,75.155,52.692Z" transform="translate(-72.763 -50.641)" fill="#fff"/></g><g transform="translate(21.77 28.675)"><path d="M54.958,56.492c.485-.646,1.684-.546,2.678.223s1.406,1.914.921,2.56-1.683.546-2.677-.223S54.474,57.138,54.958,56.492Z" transform="translate(-54.755 -56.066)" fill="#06065c"/><path d="M57.141,56.973a3.977,3.977,0,0,1,1.142,1.693l-.1.035a3.585,3.585,0,0,0-1.429-1.846,1.665,1.665,0,0,0-1.334-.063l-.034-.1a1.769,1.769,0,0,1,1.417.068A2.157,2.157,0,0,1,57.141,56.973Z" transform="translate(-54.755 -56.066)" fill="#fff"/></g><g transform="translate(12.97 41.072)"><path d="M48.388,72.791c-.742.3-1.722-.4-2.189-1.58s-.245-2.375.5-2.678,1.721.4,2.188,1.579S49.129,72.486,48.388,72.791Z" transform="translate(-45.955 -68.463)" fill="#06065c"/><path d="M46.754,71.246a4.023,4.023,0,0,1-.129-2.047l.105.023a3.63,3.63,0,0,0,.3,2.327,1.686,1.686,0,0,0,1.115.746l-.021.107a1.8,1.8,0,0,1-1.184-.794A2.126,2.126,0,0,1,46.754,71.246Z" transform="translate(-45.955 -68.463)" fill="#fff"/></g><g transform="translate(20.781 43.004)"><path d="M69.25,77.514a25.843,25.843,0,0,1-6.785.059,20.21,20.21,0,0,1-4.837-1.232,13.277,13.277,0,0,1-3.862-2.229l.081-.089a13.19,13.19,0,0,0,3.832,2.207,22.828,22.828,0,0,0,11.556,1.164Z" transform="translate(-53.766 -70.395)" fill="#6ec2b3"/><path d="M65.66,77.618s-4.127-.579-4.639-3.979C61.021,73.639,64.285,72.918,65.66,77.618Z" transform="translate(-53.766 -70.395)" fill="#6ec2b3"/><path d="M61.9,77.431s-1.445,3.485-5.3,1.366C56.605,78.8,58.149,77.244,61.9,77.431Z" transform="translate(-53.766 -70.395)" fill="#6ec2b3"/><path d="M57.133,76.066s-2.911-.977-3.188-5.671A5.638,5.638,0,0,1,57.133,76.066Z" transform="translate(-53.766 -70.395)" fill="#6ec2b3"/><path d="M65.448,77.593l-.087-.008a7.7,7.7,0,0,1-2.227-.632,4.01,4.01,0,0,1-2.533-3.2l-.008-.067h.067a5.226,5.226,0,0,1,1.982.474,4.972,4.972,0,0,1,2.781,3.35Zm-4.719-3.784a3.858,3.858,0,0,0,2.455,3.034,7.619,7.619,0,0,0,2.1.61A4.845,4.845,0,0,0,62.6,74.27,5.311,5.311,0,0,0,60.729,73.809Z" transform="translate(-53.766 -70.395)" fill="#06065c"/><path d="M62.028,77.385l-.079.087a6.122,6.122,0,0,1-1.77,1.26,4.422,4.422,0,0,1-4.252-.184l-.046-.026.021-.049c.007-.019.189-.452,1.032-.8a10.129,10.129,0,0,1,4.978-.3Zm-5.99,1.087a4.306,4.306,0,0,0,4.088.151,6.144,6.144,0,0,0,1.649-1.146,9.922,9.922,0,0,0-4.776.3A1.946,1.946,0,0,0,56.038,78.472Z" transform="translate(-53.766 -70.395)" fill="#06065c"/><path d="M57.176,76.171l-.077-.054a5.59,5.59,0,0,1-1.3-1.411,6.01,6.01,0,0,1-.94-4.17l.013-.1.081.057A6.1,6.1,0,0,1,56.3,71.948a5.637,5.637,0,0,1,.9,4.129ZM54.96,70.656a5.884,5.884,0,0,0,.932,3.979,5.816,5.816,0,0,0,1.2,1.324A5.512,5.512,0,0,0,56.2,72.02,6.154,6.154,0,0,0,54.96,70.656Z" transform="translate(-53.766 -70.395)" fill="#06065c"/><path d="M66.391,77.691c-1.36.363-3.718.084-7.006-.832-2.445-.681-4.519-1.479-4.539-1.486l.043-.113c.082.031,8.271,3.17,11.472,2.314Z" transform="translate(-53.766 -70.395)" fill="#06065c"/></g><g transform="translate(8.748 10.858)"><g transform="translate(0 0.254)"><path d="M41.733,45.557a17.659,17.659,0,0,1,2.911-3.513,13.582,13.582,0,0,1,2.711-1.951,8.8,8.8,0,0,1,2.786-1.02l.01.081a8.711,8.711,0,0,0-2.763,1.013A15.517,15.517,0,0,0,41.8,45.6Z" transform="translate(-41.733 -38.503)" fill="#6ec2b3"/><path d="M43.237,43.666s2.076-1.87,4-.659C47.233,43.007,46.179,45,43.237,43.666Z" transform="translate(-41.733 -38.503)" fill="#6ec2b3"/><path d="M44.958,41.818s-1.113-2.253,1.614-3.315A4.882,4.882,0,0,1,44.958,41.818Z" transform="translate(-41.733 -38.503)" fill="#6ec2b3"/><path d="M47.706,39.956s1.749-1.072,4.213.819A3.662,3.662,0,0,1,47.706,39.956Z" transform="translate(-41.733 -38.503)" fill="#6ec2b3"/></g><path d="M43.342,43.568l.041-.041a5.207,5.207,0,0,1,1.28-.871,2.61,2.61,0,0,1,2.695.085l.037.025-.029.035a3.512,3.512,0,0,1-1.1.813,3.237,3.237,0,0,1-2.877-.022Zm3.933-.785a2.513,2.513,0,0,0-2.578-.054,5.175,5.175,0,0,0-1.215.815,3.156,3.156,0,0,0,2.752,0A3.581,3.581,0,0,0,47.275,42.783Z" transform="translate(-41.733 -38.249)" fill="#06065c"/><path d="M44.928,41.9l-.01-.079a4.22,4.22,0,0,1,.138-1.455,3.014,3.014,0,0,1,1.935-2.106l.032-.012.017.031a1.226,1.226,0,0,1-.047.878,6.949,6.949,0,0,1-2.007,2.688Zm2.052-3.549a2.936,2.936,0,0,0-1.847,2.035,4.266,4.266,0,0,0-.144,1.345,6.812,6.812,0,0,0,1.922-2.583A1.322,1.322,0,0,0,46.98,38.352Z" transform="translate(-41.733 -38.249)" fill="#06065c"/><path d="M47.636,39.933l.061-.017a3.666,3.666,0,0,1,1.269-.059,3.887,3.887,0,0,1,2.489,1.324l.044.05-.063.017a3.988,3.988,0,0,1-1.31.062,3.647,3.647,0,0,1-2.449-1.328Zm3.713,1.251a3.819,3.819,0,0,0-3.57-1.2,3.564,3.564,0,0,0,2.352,1.249A4.04,4.04,0,0,0,51.349,41.184Z" transform="translate(-41.733 -38.249)" fill="#06065c"/><path d="M42.884,44.01a10.439,10.439,0,0,1,3.451-3.24c1.4-.961,2.695-1.682,2.709-1.688l.038.071c-.052.028-5.167,2.877-6.126,4.893Z" transform="translate(-41.733 -38.249)" fill="#06065c"/></g><g transform="translate(8.31 24.675)"><path d="M42.409,65.931a24.2,24.2,0,0,1,.36-6.17,18.794,18.794,0,0,1,1.383-4.32,12.112,12.112,0,0,1,2.2-3.375l.074.079a12.018,12.018,0,0,0-2.182,3.349,21.369,21.369,0,0,0-1.729,10.432Z" transform="translate(-41.295 -52.066)" fill="#6ec2b3"/><path d="M42.535,62.661s.762-3.715,3.794-3.973C46.329,58.688,46.767,61.7,42.535,62.661Z" transform="translate(-41.295 -52.066)" fill="#6ec2b3"/><path d="M42.929,59.26s-2.988-1.526-.884-4.9C42.045,54.361,43.322,55.859,42.929,59.26Z" transform="translate(-41.295 -52.066)" fill="#6ec2b3"/><path d="M44.423,55.006s1.039-2.586,5.2-2.553A4.975,4.975,0,0,1,44.423,55.006Z" transform="translate(-41.295 -52.066)" fill="#6ec2b3"/><path d="M42.57,62.471l.013-.079a7.2,7.2,0,0,1,.692-1.985A3.557,3.557,0,0,1,46.254,58.3l.06,0,0,.061a4.886,4.886,0,0,1-.538,1.773,4.426,4.426,0,0,1-3.125,2.324ZM46.2,58.412a3.424,3.424,0,0,0-2.828,2.046A7.094,7.094,0,0,0,42.7,62.33a4.312,4.312,0,0,0,2.972-2.247A5,5,0,0,0,46.2,58.412Z" transform="translate(-41.295 -52.066)" fill="#06065c"/><path d="M42.962,59.375,42.89,59.3a5.619,5.619,0,0,1-1-1.685,4.132,4.132,0,0,1,.42-3.853l.026-.04.042.021a1.629,1.629,0,0,1,.646.987,9.476,9.476,0,0,1-.038,4.542Zm-.6-5.51a4.024,4.024,0,0,0-.382,3.706A5.62,5.62,0,0,0,42.9,59.14a9.288,9.288,0,0,0,.028-4.359A1.776,1.776,0,0,0,42.366,53.865Z" transform="translate(-41.295 -52.066)" fill="#06065c"/><path d="M44.328,55.039l.052-.067a5.029,5.029,0,0,1,1.324-1.1,5.194,5.194,0,0,1,3.738-.6l.087.018-.056.07A5.462,5.462,0,0,1,48.108,54.5a4.872,4.872,0,0,1-3.7.564Zm5-1.679a5.086,5.086,0,0,0-3.567.6,5.205,5.205,0,0,0-1.242,1.008,4.761,4.761,0,0,0,3.53-.571A5.478,5.478,0,0,0,49.33,53.36Z" transform="translate(-41.295 -52.066)" fill="#06065c"/><path d="M42.427,63.321c-.239-1.258.151-3.384,1.159-6.317.749-2.18,1.579-4.016,1.588-4.035l.1.046c-.033.073-3.3,7.325-2.739,10.285Z" transform="translate(-41.295 -52.066)" fill="#06065c"/></g><path d="M48.072,28.381a20.417,20.417,0,0,0-10.5,8.686,20.171,20.171,0,0,0-2.408,5.715l-.14-.029A20.25,20.25,0,0,1,37.448,37a21.044,21.044,0,0,1,3.958-4.8,20.447,20.447,0,0,1,6.617-3.953Z" transform="translate(-32.985 -27.391)" fill="#06065c"/><path d="M46.031,27.528a20.419,20.419,0,0,0-10.5,8.69,20.1,20.1,0,0,0-2.4,5.71l-.141-.028a20.275,20.275,0,0,1,2.422-5.758,21.047,21.047,0,0,1,3.959-4.8,20.437,20.437,0,0,1,6.617-3.953Z" transform="translate(-32.985 -27.391)" fill="#06065c"/></g><path d="M91.907,22.764H36.517a1.622,1.622,0,0,1,0-3.243h55.39a1.622,1.622,0,0,1,0,3.243ZM36.518,19.878a1.266,1.266,0,0,0,0,2.531h55.39a1.266,1.266,0,0,0,0-2.531Z" transform="translate(-22.149 -6.212)" fill="#0d0067"/><g transform="translate(20.331 106.007)"><path d="M81.321,125.76H47.541A5.068,5.068,0,0,1,42.48,120.7v-3.418a5.068,5.068,0,0,1,5.061-5.062h33.78a5.068,5.068,0,0,1,5.062,5.062V120.7A5.068,5.068,0,0,1,81.321,125.76Zm-33.78-12.477a4,4,0,0,0-4,4V120.7a4,4,0,0,0,4,4h33.78a4,4,0,0,0,4-4v-3.418a4,4,0,0,0-4-4Z" transform="translate(-42.48 -112.219)" fill="#0d0067"/><g transform="translate(8.288 3.646)"><path d="M56.713,118.994a3.583,3.583,0,0,1-.215,1.262,2.9,2.9,0,0,1-.606.988,2.737,2.737,0,0,1-.939.643,3.138,3.138,0,0,1-1.215.229,3.093,3.093,0,0,1-1.211-.229,2.7,2.7,0,0,1-.938-.643,2.874,2.874,0,0,1-.606-.988,3.811,3.811,0,0,1,0-2.524,2.923,2.923,0,0,1,.606-.99,2.7,2.7,0,0,1,.938-.647,3.314,3.314,0,0,1,2.426,0,2.7,2.7,0,0,1,.939.647,2.892,2.892,0,0,1,.606.99A3.579,3.579,0,0,1,56.713,118.994Zm-.838,0a3.175,3.175,0,0,0-.151-1.012,2.109,2.109,0,0,0-.43-.758,1.864,1.864,0,0,0-.673-.477,2.423,2.423,0,0,0-1.763,0,1.881,1.881,0,0,0-.676.477,2.111,2.111,0,0,0-.431.758,3.46,3.46,0,0,0,0,2.022,2.137,2.137,0,0,0,.431.756,1.859,1.859,0,0,0,.676.473,2.437,2.437,0,0,0,1.763,0,1.819,1.819,0,0,0,.673-.473,2.15,2.15,0,0,0,.43-.756A3.167,3.167,0,0,0,55.875,118.994Z" transform="translate(-50.768 -115.865)" fill="#06065c"/><path d="M58.724,119.5v2.553h-.812v-6.118h1.7a3.685,3.685,0,0,1,.989.117,1.894,1.894,0,0,1,.688.339,1.346,1.346,0,0,1,.4.537,1.809,1.809,0,0,1,.131.7,1.77,1.77,0,0,1-.1.607,1.611,1.611,0,0,1-.293.506,1.781,1.781,0,0,1-.467.382,2.269,2.269,0,0,1-.625.239.863.863,0,0,1,.27.26l1.759,2.43h-.724a.356.356,0,0,1-.328-.176l-1.565-2.186a.459.459,0,0,0-.155-.146.545.545,0,0,0-.253-.045h-.619Zm0-.6h.854a2.039,2.039,0,0,0,.629-.087,1.294,1.294,0,0,0,.454-.248,1.015,1.015,0,0,0,.275-.383,1.251,1.251,0,0,0,.093-.49.981.981,0,0,0-.355-.824,1.7,1.7,0,0,0-1.059-.277h-.892V118.9Z" transform="translate(-50.768 -115.865)" fill="#06065c"/><path d="M68.473,118.994a3.463,3.463,0,0,1-.215,1.25,2.8,2.8,0,0,1-.605.966,2.727,2.727,0,0,1-.938.621,3.236,3.236,0,0,1-1.212.22H63.248v-6.118H65.5a3.216,3.216,0,0,1,1.212.22,2.68,2.68,0,0,1,.938.623,2.8,2.8,0,0,1,.605.967A3.49,3.49,0,0,1,68.473,118.994Zm-4.406-2.39v4.777H65.5a2.326,2.326,0,0,0,.88-.162,1.841,1.841,0,0,0,.673-.469,2.111,2.111,0,0,0,.43-.748,3.462,3.462,0,0,0,0-2.016,2.129,2.129,0,0,0-.43-.752,1.83,1.83,0,0,0-.673-.469Z" transform="translate(-50.768 -115.865)" fill="#06065c"/><path d="M73.3,115.933v.675H70.4v2.032h2.343v.649H70.4v2.087H73.3v.675H69.583v-6.118Z" transform="translate(-50.768 -115.865)" fill="#06065c"/><path d="M75.369,119.5v2.553h-.812v-6.118h1.7a3.685,3.685,0,0,1,.989.117,1.894,1.894,0,0,1,.688.339,1.365,1.365,0,0,1,.4.537,1.828,1.828,0,0,1,.13.7,1.77,1.77,0,0,1-.1.607,1.611,1.611,0,0,1-.293.506,1.8,1.8,0,0,1-.467.382,2.269,2.269,0,0,1-.625.239.884.884,0,0,1,.27.26l1.759,2.43h-.724a.355.355,0,0,1-.328-.176L76.4,119.689a.459.459,0,0,0-.155-.146.545.545,0,0,0-.253-.045h-.619Zm0-.6h.854a2.046,2.046,0,0,0,.63-.087,1.294,1.294,0,0,0,.454-.248,1.015,1.015,0,0,0,.275-.383,1.251,1.251,0,0,0,.093-.49.984.984,0,0,0-.355-.824,1.7,1.7,0,0,0-1.059-.277h-.892Z" transform="translate(-50.768 -115.865)" fill="#06065c"/></g></g><rect width="12.717" height="4.008" transform="translate(13.847 86.249)" fill="#e6a850"/><rect width="12.717" height="4.006" transform="translate(13.847 95.009)" fill="#e6a850"/><path d="M47.573,106.641H34.4v-4.463H47.573Zm-12.716-.457h12.26v-3.551H34.857Z" transform="translate(-22.149 -6.212)" fill="#06065c"/><path d="M47.573,98.251H34.4V93.788H47.573Zm-12.716-.456h12.26V94.244H34.857Z" transform="translate(-22.149 -6.212)" fill="#06065c"/><rect width="40.871" height="1.707" transform="translate(30.31 89.059)" fill="#06065c"/><rect width="40.871" height="1.707" transform="translate(30.31 96.158)" fill="#06065c"/></g><path d="M104.756,194.45a65.727,65.727,0,0,0-6.475-11.1c-3.392-4.316-12.642-8.942-16.958-13.875s-21.446-28.937-21.446-28.937H81.183a11.162,11.162,0,0,0,11.068-9.52c1.335-9.225-.942-20.442-2.911-21.974a63.419,63.419,0,0,0-17.575-9.25C64.9,97.6,58.528,93.691,56.778,89.16a6.9,6.9,0,0,1-.429-1.7c-.616-5.242,3.392-6.475,12.333-5.242a156.284,156.284,0,0,0,18.19,1.541c2.159,0,27.441,17.885,31.757,21.582s2.775,11.1,4.626,21.584S139.9,165.467,139.9,165.467C141.754,177.8,104.756,194.45,104.756,194.45Z" transform="translate(-15.131 -6.212)" fill="#e5a7a1"/><path d="M114.3,166.318c-3.189,0-7.051-1.4-10.7-3.985-4.95-3.5-10.261-9.845-10.316-17.172-.173-22.818-2.436-32.454-2.459-32.548l.443-.107c.023.1,2.3,9.781,2.472,32.652.054,7.154,5.266,13.37,10.124,16.8,4.7,3.323,9.733,4.658,13.123,3.486l.148.431A8.656,8.656,0,0,1,114.3,166.318Z" transform="translate(-15.131 -6.212)" fill="#06065c"/><path d="M80.289,92.486l-.452-.061c.707-5.274,6.67-8.716,6.924-8.859l.225.4C86.926,84,80.965,87.438,80.289,92.486Z" transform="translate(-15.131 -6.212)" fill="#06065c"/><path d="M85.626,92.493c-.691-4.124,2.594-8.018,2.733-8.181l.347.3c-.032.038-3.285,3.9-2.631,7.81Z" transform="translate(-15.131 -6.212)" fill="#06065c"/><path d="M109.8,114.34l-.281-.359c3.429-2.68,9.922-7.7,9.986-7.748l.279.36C119.715,106.643,113.224,111.66,109.8,114.34Z" transform="translate(-15.131 -6.212)" fill="#06065c"/><path d="M115.9,115.864h-.457c0-3.39,4.983-7.427,5.195-7.6l.285.355C120.869,108.664,115.9,112.693,115.9,115.864Z" transform="translate(-15.131 -6.212)" fill="#06065c"/><path d="M56.622,89.394l-.058-.149a7.145,7.145,0,0,1-.442-1.754A4.861,4.861,0,0,1,57.264,83.2c1.719-1.684,5.249-2.053,11.449-1.2l.1.015.057.084c.931,1.37,1.131,2.591.595,3.628-1.607,3.111-9.4,3.6-12.683,3.668Zm6.633-7.379c-2.8,0-4.642.5-5.672,1.507a4.44,4.44,0,0,0-1.008,3.916,6.683,6.683,0,0,0,.358,1.493c2.67-.063,10.621-.5,12.127-3.417a2.993,2.993,0,0,0-.511-3.079A39.99,39.99,0,0,0,63.255,82.015Z" transform="translate(-15.131 -6.212)" fill="#06065c"/><path d="M78.67,148.418l-.29-.352c4.411-3.642,12.854-14.369,12.938-14.477l.358.281C91.592,133.979,83.119,144.746,78.67,148.418Z" transform="translate(-15.131 -6.212)" fill="#06065c"/><path d="M74.877,143.459a62.961,62.961,0,0,1-7.186-.355l.054-.453a97.957,97.957,0,0,0,16.078,0l.039.454C83.8,143.109,79.631,143.459,74.877,143.459Z" transform="translate(-15.131 -6.212)" fill="#06065c"/><path d="M104.839,194.662l-.166-.424c16.273-6.365,24.926-13.864,29.319-19.034s5.522-9.123,5.671-9.707c-.578-1.162-7.7-15.5-11.732-24.417-4.2-9.279-6.015-24.321-6.032-24.472l.453-.054c.018.15,1.823,15.122,5.994,24.338,4.186,9.244,11.687,24.324,11.763,24.475l.034.072-.016.077c-.036.172-.945,4.273-5.76,9.95C129.941,180.687,121.226,188.254,104.839,194.662Z" transform="translate(-15.131 -6.212)" fill="#06065c"/></g><g transform="translate(104.506 55.921)"><circle cx="8.781" cy="8.781" r="8.781" transform="translate(5.375 0.607)" fill="#e54750"/><path d="M113.667,80.454a9.16,9.16,0,1,1,9.16-9.161A9.171,9.171,0,0,1,113.667,80.454Zm0-17.562a8.4,8.4,0,1,0,8.4,8.4A8.411,8.411,0,0,0,113.667,62.892Z" transform="translate(-104.506 -62.133)" fill="#06065c"/><circle cx="5.39" cy="5.39" r="5.39" transform="translate(28.742 3.998)" fill="#e54750"/></g><g transform="translate(0 45.475)"><path d="M0,54.547,5.368,67.7l8.654-11.234Z" transform="translate(0 -51.687)" fill="#e54750"/><path d="M6.824,65.548,1.167,51.687l14.777,2.022Zm-4.96-13.32L6.942,64.672,15.13,54.044Z" transform="translate(0 -51.687)" fill="#06065c"/></g></g></g></svg>