<?xml version="1.0" encoding="utf-8"?>
<!-- Generator: Adobe Illustrator 24.3.0, SVG Export Plug-In . SVG Version: 6.00 Build 0)  -->
<svg version="1.1" id="Layer_1" xmlns="http://www.w3.org/2000/svg" xmlns:xlink="http://www.w3.org/1999/xlink" x="0px" y="0px"
	 viewBox="0 0 600 450" style="enable-background:new 0 0 600 450;" xml:space="preserve">
<style type="text/css">
	.st0{fill:#F8B02D;}
	.st1{fill:#9A3324;}
	.st2{fill:#FFFFFF;}
	.st3{fill:#2D2926;}
	.st4{fill:#F5AF2D;}
	.st5{fill:#F2F2F2;}
</style>
<g>
	<circle class="st3" cx="302.31" cy="141.11" r="64.91"/>
	<path class="st0" d="M352.23,276.77c0,5.38,4.96,10.26,12.34,12.15c2.13,0.55,4.29,0.82,6.47,0.82c10.22,0,18.86-5.94,18.86-12.97
		c0-7.03-8.64-12.97-18.86-12.97C360.85,263.8,352.23,269.74,352.23,276.77z"/>
	<path class="st0" d="M477.72,269.5h-73.81c-4-11.68-17.18-20.29-32.85-20.29c-18.79,0-34.1,12.35-34.1,27.56
		c0,9.81,6.38,18.58,16.35,23.46l-5.66,17.8H232.38l10.12-77.7h5.61c15.05,18.48,33.11,35.19,52.27,51.33
		c3.27,2.7,6.33,3.74,9.76-0.21c15.16-17.54,32.75-32.7,47.13-51.12h113.61L477.72,269.5z"/>
	<polygon class="st0" points="110.87,318.05 217,318.05 227.13,240.34 129.11,240.34 	"/>
	<polygon class="st0" points="351.62,332.62 230.47,332.62 224,382.27 465.94,382.27 	"/>
	<polygon class="st0" points="215.1,332.62 107.45,332.62 95.79,382.27 208.63,382.27 	"/>
	<path class="st0" d="M230.41,215.16l-1.4,10.59h-96.49l10.33-43.86h72.09C218.89,193.67,224.13,204.73,230.41,215.16z"/>
	<path class="st0" d="M467.45,225.75h-99.5c9.6-13.96,17.59-28.49,23.3-43.86h65.92L467.45,225.75z"/>
	<path class="st0" d="M481.15,284.05h-77.24c-3.97,11.66-17.18,20.25-32.86,20.25c-1.02,0-2.04-0.12-3.05-0.19l-5.46,17.24
		l140.28,60.91h1.39L481.15,284.05z"/>
	<path class="st3" d="M307.91,67.89c-14.83-1-28.04,2.96-40.31,9.79c-5.91,3.29-15.67,11.49-19.92,17
		c-9.71,12.58-15.66,26.78-15.61,44.02c0.17,53.17,31.81,87.78,69.16,119.23c2.38,1.99,4.64,2.75,7.17-0.15
		c11.37-13.08,24.52-24.43,35.24-38.28c19-24.55,32-50.96,31.4-82.65C374.38,102.19,346.58,70.47,307.91,67.89z M303.37,181.59
		c-22.36,0-40.48-18.12-40.48-40.48c0-22.36,18.12-40.48,40.48-40.48c22.36,0,40.48,18.12,40.48,40.48
		C343.85,163.47,325.73,181.59,303.37,181.59z"/>
	<g>
		<path class="st4" d="M265.47,127.43c5.6-14.74,19.86-25.22,36.57-25.22c12.76,0,24.08,6.11,31.22,15.56l8.7-1.24
			c-8.29-13.33-23.07-22.2-39.92-22.2c-21.57,0-39.74,14.53-45.27,34.34L265.47,127.43z"/>
		<path class="st4" d="M332.28,166.13c-7.17,8.74-18.06,14.31-30.24,14.31c-11.79,0-22.36-5.22-29.54-13.48l-8.99,1.28
			c8.5,12.14,22.58,20.08,38.52,20.08c17.48,0,32.72-9.54,40.82-23.7L332.28,166.13z"/>
		<path class="st2" d="M307.04,163.23L307.04,163.23l-0.21-1.08c-0.08-0.01-0.27-0.02-0.52,0.01c-0.95,0.14-1.38,0.53-1.09,2.56
			c0.26,1.79,0.77,2.06,1.83,1.9c0.4-0.06,0.8-0.18,1.22-0.36l0.27,0.89c-0.47,0.19-1.03,0.36-1.55,0.44
			c-1.79,0.26-2.68-0.21-3.03-2.67c-0.38-2.68,0.5-3.45,2.27-3.7c0.49-0.07,0.97-0.07,1.42-0.02l0.25,1.9L307.04,163.23z"/>
		<polygon class="st2" points="310.86,166.14 310.86,166.14 311.59,166 310.95,161.5 310.21,161.57 310.09,160.77 312.77,160.39 
			312.88,161.19 312.2,161.31 312.44,163 314.82,162.66 314.58,160.97 313.9,161.04 313.78,160.25 316.45,159.87 316.56,160.66 
			315.83,160.81 316.47,165.31 317.21,165.24 317.33,166.04 314.66,166.41 314.55,165.62 315.22,165.49 314.96,163.63 
			312.58,163.97 312.85,165.83 313.53,165.76 313.65,166.56 310.97,166.94 		"/>
		<polygon class="st2" points="319.6,164.9 319.6,164.9 320.33,164.76 319.69,160.26 318.95,160.32 318.83,159.52 321.56,159.14 
			321.67,159.94 320.94,160.08 321.58,164.58 322.33,164.51 322.44,165.31 319.71,165.7 		"/>
		<path class="st2" d="M327.68,160.29L327.68,160.29l-0.21-1.08c-0.08-0.01-0.27-0.02-0.52,0.01c-0.95,0.14-1.38,0.53-1.09,2.56
			c0.26,1.79,0.77,2.06,1.83,1.9c0.4-0.06,0.8-0.18,1.22-0.36l0.27,0.89c-0.47,0.19-1.03,0.36-1.55,0.44
			c-1.79,0.26-2.68-0.21-3.03-2.67c-0.38-2.68,0.5-3.45,2.27-3.7c0.49-0.07,0.97-0.07,1.42-0.02l0.25,1.9L327.68,160.29z"/>
		<polygon class="st2" points="331.49,163.2 331.49,163.2 332.22,163.06 331.58,158.56 330.84,158.63 330.73,157.83 333.26,157.47 
			333.37,158.24 332.83,158.34 333.13,160.41 334.71,158.08 334.13,158.13 334.02,157.36 336.55,157 336.66,157.8 336.16,157.9 
			334.52,160.29 336.91,162.41 337.44,162.35 337.55,163.15 334.92,163.53 334.81,162.75 335.39,162.65 333.17,160.69 
			333.49,162.92 334.03,162.87 334.14,163.64 331.61,164 		"/>
		<polygon class="st2" points="342.79,160.14 342.79,160.14 342.68,159.63 341.32,159.82 341.59,161.67 343.37,161.42 
			343.31,160.66 344.16,160.54 344.4,162.18 339.72,162.84 339.61,162.04 340.34,161.9 339.7,157.4 338.95,157.47 338.84,156.67 
			343.52,156.01 343.74,157.6 342.89,157.72 342.74,157.02 340.96,157.28 341.21,159 342.56,158.81 342.53,158.29 343.31,158.18 
			343.57,160.03 		"/>
		<path class="st2" d="M346.91,161.82L346.91,161.82l-0.11-0.8l0.73-0.14l-0.64-4.5l-0.74,0.07l-0.11-0.8l2.39-0.34l2.25,2.99
			c0.39,0.52,0.74,1.05,1.08,1.64l0.03,0c-0.15-0.6-0.29-1.25-0.37-1.74l-0.35-2.42l-0.69,0.07l-0.11-0.79l2.45-0.35l0.11,0.8
			l-0.66,0.12l0.76,5.34l-1.64,0.23l-2.26-2.98c-0.39-0.52-0.74-1.05-1.08-1.64l-0.04,0.01c0.15,0.6,0.3,1.25,0.37,1.74l0.34,2.42
			l0.69-0.07l0.11,0.79L346.91,161.82z"/>
		<path class="st2" d="M339.29,125.59c0.52-0.08,0.95,0.03,1.33,0.31c0.76,0.58,1.25,1.89,1.58,4.24l7.22-1.77
			c-0.57-3.87-1.78-6.46-3.7-7.91c-1.65-1.25-3.83-1.65-6.65-1.25c-3.1,0.45-5.56,1.69-7.13,3.59c-1.62,1.97-2.25,4.62-1.81,7.66
			c0.89,6.18,5.2,7.86,9.01,9.34l0.04,0.02c2.82,1.05,5.26,1.95,5.63,4.55c0.12,0.8,0.06,1.4-0.17,1.84
			c-0.23,0.45-0.65,0.72-1.24,0.8c-1.99,0.29-3.02-1.05-3.63-4.77l-7.47,1.92c-0.13,0.03-0.26-0.04-0.31-0.16l-8.08-21.61
			l-9.96,1.43l-1.67,28.46c-0.01,0.12-0.09,0.22-0.21,0.24c-0.12,0.02-0.23-0.03-0.29-0.14l-5.84-11.1
			c-0.03-0.05-0.04-0.12-0.02-0.18l4.29-20.53l-8.49,1.2l-2.04,14.28c-0.02,0.12-0.11,0.21-0.22,0.22l-0.23,0.03
			c-0.11,0.02-0.23-0.04-0.28-0.15l-4.34-9.41l-42.92,6.12l0.95,6.6l5.36-0.77c0.14-0.02,0.27,0.08,0.3,0.22l4.03,25.87l7.5-1.19
			l-3.98-25.76c-0.01-0.07,0.01-0.14,0.05-0.2c0.04-0.06,0.1-0.09,0.17-0.1l4.6-0.64c0.14-0.02,0.28,0.08,0.3,0.22l3.71,25.78
			l15.6-2.27c0.01,0,0.02,0,0.04,0c0.07,0,0.14,0.03,0.19,0.08c0.06,0.06,0.08,0.15,0.07,0.23l-1.56,8.29l9.35-1.25l2.2-19.6
			c0.01-0.12,0.11-0.21,0.22-0.23l0.18-0.03c0.12-0.02,0.23,0.05,0.28,0.15l4.5,10.13l13.93-1.97l0.14-6.51
			c0-0.13,0.1-0.24,0.23-0.25l5.4-0.78c0.12-0.02,0.25,0.06,0.29,0.18l1.97,6.21l8.07-1.16l-1.02-2.72c-0.04-0.12,0-0.25,0.1-0.31
			c0.1-0.07,0.24-0.05,0.33,0.03c1.94,1.93,4.77,2.6,8.63,2.05c6.2-0.89,9.23-5.08,8.31-11.49c-0.87-6.01-5.55-7.89-9.31-9.4
			l-0.51-0.2c-2.53-1.09-4.21-1.97-4.54-4.25c-0.08-0.56,0-1.06,0.22-1.44C338.25,125.95,338.7,125.68,339.29,125.59 M294.43,143.09
			l-2.24,10.36c-0.02,0.11-0.11,0.19-0.22,0.21l-10.57,1.52c-0.01,0-0.02,0-0.04,0c-0.06,0-0.11-0.02-0.16-0.05
			c-0.06-0.04-0.09-0.1-0.1-0.17l-0.91-6.3c-0.01-0.07,0.01-0.14,0.05-0.2c0.04-0.06,0.1-0.09,0.17-0.1l7.45-1.07l-0.92-6.42
			l-7.45,1.07c-0.07,0.01-0.14-0.01-0.2-0.05c-0.06-0.04-0.09-0.1-0.1-0.17l-0.84-5.8c-0.01-0.07,0.01-0.14,0.05-0.2
			c0.04-0.06,0.1-0.09,0.17-0.1l10.72-1.54c0.11-0.02,0.21,0.04,0.27,0.13l4.83,8.71C294.44,142.96,294.45,143.02,294.43,143.09
			 M323.58,142.62c-0.04,0.06-0.11,0.11-0.18,0.12l-3.22,0.46c-0.01,0-0.02,0-0.04,0c-0.06,0-0.12-0.02-0.17-0.06
			c-0.06-0.05-0.09-0.12-0.09-0.2l-0.08-11.19c0-0.13,0.09-0.24,0.22-0.26l0.27-0.04c0.13-0.02,0.25,0.06,0.29,0.19l3.03,10.77
			C323.63,142.48,323.62,142.56,323.58,142.62"/>
		<polygon class="st2" points="349.25,118.93 348.74,118.93 348.74,120.88 348.27,120.88 348.27,118.93 347.76,118.93 
			347.76,118.54 349.26,118.55 		"/>
		<polygon class="st2" points="350.17,118.55 350.5,120.2 350.51,120.2 350.84,118.55 351.54,118.55 351.54,120.89 351.11,120.89 
			351.11,119.02 351.1,119.02 350.68,120.89 350.32,120.88 349.9,119.02 349.9,119.02 349.89,120.88 349.46,120.88 349.47,118.55 		
			"/>
		<polygon class="st4" points="300.57,107.75 288.59,119.53 295.02,118.6 298.02,124.36 		"/>
		<polygon class="st4" points="295.31,111.91 290.18,109.3 292.82,114.36 		"/>
		<polygon class="st4" points="300.28,114.46 299.75,117.92 305.42,117.1 		"/>
	</g>
</g>
</svg>
