<svg id="Group_17" data-name="Group 17" xmlns="http://www.w3.org/2000/svg" xmlns:xlink="http://www.w3.org/1999/xlink" width="1920" height="545" viewBox="0 0 1920 545">
  <defs>
    <clipPath id="clip-path">
      <rect id="Rectangle_6" data-name="Rectangle 6" width="1920" height="545" fill="#fff" stroke="#707070" stroke-width="1"/>
    </clipPath>
    <linearGradient id="linear-gradient" x1="0.437" y1="0.932" x2="0.749" y2="0.182" gradientUnits="objectBoundingBox">
      <stop offset="0" stop-color="#fcb400"/>
      <stop offset="0.665" stop-color="#fbb101"/>
      <stop offset="1" stop-color="#ec5815"/>
    </linearGradient>
  </defs>
  <g id="Banner_without_texas" data-name="Banner without texas">
    <g id="Mask_Group_1" data-name="Mask Group 1" clip-path="url(#clip-path)">
      <g id="Banner" transform="translate(-302.494 -299.776)">
        <rect id="Rectangle_1" data-name="Rectangle 1" width="1920" height="545" transform="translate(302.494 299.776)" fill="url(#linear-gradient)"/>
        <g id="Artboard_4" data-name="Artboard 4" transform="translate(1368.902)">
          <g id="Artboard_4-2" data-name="Artboard 4" transform="translate(0 -0.005)" opacity="0.6" style="mix-blend-mode: multiply;isolation: isolate">
            <path id="Path_16" data-name="Path 16" d="M621.594,622.324q67.581-254.286,206.917-395.065,139.336-140.737,339.3-140.748,100.936,0,159.288,39.8,49.549,33.822,72.211,92.288c-17.316-50.847-45.49-95.963-87.8-130.47,0,0-126.256-143.883-351.174-63.948S592.548,287.968,220.8,271.981c0,0,25.766,79.935,151.087,79.935,0,0-108.089,111.909-354.5,95.922,0,0,33.843,255.792,414.769,207.831,68.578-8.637,129.059-9.156,182.293-4.318,2.367-9.675,4.526-19.143,7.142-29.026Z" transform="translate(18.716 0)" fill="#9a3523"/>
            <path id="Path_17" data-name="Path 17" d="M612.31,763.757q-63.47-38.8-88.551-108.711-25.1-69.886-17.295-165.019c4.339-52.84,14.222-110.435,29.047-172.286C269.13,317.222,88.83,450.059,88.83,450.059s151.876,0,258.823,91.769c94.8,81.347,156.527,209.845,312.6,243.376-17.752-5.751-33.843-12.81-47.94-21.427Z" transform="translate(95.602 341.955)" fill="#9a3523"/>
            <path id="Path_18" data-name="Path 18" d="M0,112.17S27.095,341.78,213.416,216.044C213.416,216.044,68.017,201.49,0,112.17Z" transform="translate(0 120.715)" fill="#9a3523"/>
            <path id="Path_19" data-name="Path 19" d="M441.841,369.969c29.939,5.73,55.809,12.229,78.668,18.956,4.277-23.108,9.135-46.715,15.011-71.194-191.3-.374-338.2,68.017-405.8,106.615-.145.083-.27.145-.394.228-11.627,6.644-20.908,12.4-27.614,16.755h0c-1.37.893-2.575,1.682-3.737,2.45-.415.27-.872.581-1.267.851-.934.623-1.765,1.184-2.554,1.723-.478.332-.976.664-1.391.955-.54.374-1.059.727-1.495,1.038-.457.332-.872.623-1.2.851-.187.145-.478.332-.623.436-.311.228-.6.436-.6.436s193.256-110.6,353.022-80.1Z" transform="translate(95.612 341.944)" fill="#c83e27"/>
            <path id="Path_20" data-name="Path 20" d="M1031.18,719.207q-34.382,114.577-85,188.314Q895.478,981.3,833.689,1024q-61.882,42.728-129.308,59.214-67.488,16.475-131.55,16.506-112.615,0-176.044-38.826-63.47-38.8-88.551-108.711-25.1-69.886-17.295-165.019,7.817-95.112,38.244-209.679Q396.767,323.2,536.1,182.418,675.439,41.68,875.4,41.67q100.936,0,159.289,39.8,58.3,39.8,79.5,113.57,21.146,73.779,5.855,182.48-15.354,108.722-63.076,244.6h-436.8q-29.4,110.653-27.925,170.832,1.464,60.2,65.547,60.19,36.843,0,63.325-30.085,26.41-30.085,51.1-115.522L1031.2,719.186Zm-217.3-285.378q15.852-52.414,19.018-82.509,3.114-30.085-3.4-45.615-6.571-15.509-17.876-20.389a58.3,58.3,0,0,0-22.984-4.858,90,90,0,0,0-32.618,5.813q-15.136,5.824-28.963,21.364-13.859,15.572-27.9,46.591-14.077,31.081-28.922,79.6H813.882Z" transform="translate(311.124 44.841)" fill="#c83e27"/>
            <path id="Path_21" data-name="Path 21" d="M828.521,227.258q139.336-140.737,339.3-140.748,100.936,0,159.288,39.8,49.985,34.133,72.627,93.285c-17.336-51.241-45.615-96.711-88.219-131.467,0,0-126.256-143.883-351.174-63.948s-367.784,263.785-739.533,247.8c0,0,25.766,79.935,151.087,79.935,0,0-108.089,111.909-354.5,95.922,0,0,176.21,159.87,423.987,79.935C543.911,494.7,644.754,427.407,727.845,359.888c29.732-50.286,63.159-94.7,100.7-132.609Z" transform="translate(18.726 0)" fill="#c83e27"/>
          </g>
        </g>
      </g>
    </g>
  </g>
</svg>
