<svg id="TC_Express" data-name="TC Express" xmlns="http://www.w3.org/2000/svg" width="575.95" height="148.247" viewBox="0 0 575.95 148.247">
  <g id="Group_7" data-name="Group 7" transform="translate(157.915 31.187)">
    <path id="Path_30" data-name="Path 30" d="M414.535,70.422l-9.82,45.614-7.706-19.955,10.4-34.692H393.188l-5.466,22.85-4.841-13.823H310.85v11.72h10.272v41.215h13.03V82.142h9.093v41.215h25.68l-2.9,7.818h14.61l7.209-23.028L393,123.357h23.587l2.068-10.612h7.58l2.068,10.612h13.8l-11.9-52.935Zm9.7,30.191h-3.714l1.88-11.227ZM379,96.153l-5.735,15.484H356.347V101.99h12.2V90.824h-12.2V82.142H373.3Z" transform="translate(-310.85 -61.39)" fill="#fff"/>
    <path id="Path_31" data-name="Path 31" d="M592.01,103.725a21.675,21.675,0,0,0-4.374-3.246c-1.529-.853-3.023-1.661-4.46-2.4a27.23,27.23,0,0,1-2.51-1.422,13.041,13.041,0,0,1-1.991-1.544,6.122,6.122,0,0,1-1.245-1.676A4.245,4.245,0,0,1,577,91.477a3.279,3.279,0,0,1,.635-1.991,2.543,2.543,0,0,1,2.123-.7,4.5,4.5,0,0,1,1.5.239,1.879,1.879,0,0,1,.894.8,6.934,6.934,0,0,1,.8,2.286,22.7,22.7,0,0,1,.32,4.252v1.346l12.751-1.773V94.921c0-5.934-1.361-10.384-4.044-13.213-2.7-2.85-6.558-4.3-11.466-4.3a19.753,19.753,0,0,0-6.482,1.031,14.978,14.978,0,0,0-5.268,3.1,14.436,14.436,0,0,0-3.531,5.1,17.771,17.771,0,0,0-1.265,6.9,16.675,16.675,0,0,0,1.2,6.64,15.038,15.038,0,0,0,3.1,4.633,19.049,19.049,0,0,0,4.186,3.16c1.473.818,2.906,1.6,4.283,2.332,1.006.5,1.951,1.006,2.809,1.488a10.377,10.377,0,0,1,2.1,1.544A6.544,6.544,0,0,1,583,115.175a5.206,5.206,0,0,1,.467,2.281c0,1.722-.371,2.484-.686,2.819a2.8,2.8,0,0,1-2.139.7,3.033,3.033,0,0,1-1.428-.315,2.653,2.653,0,0,1-1.016-1.046,7.633,7.633,0,0,1-.823-2.352,24.534,24.534,0,0,1-.391-4.034l-.036-1.27-13.462,1.422.056,1.107c.29,5.862,1.773,10.292,4.409,13.173,2.677,2.926,6.853,4.415,12.411,4.415a19.54,19.54,0,0,0,6.233-.991A14.268,14.268,0,0,0,591.817,128a14.706,14.706,0,0,0,3.526-5.273,19.835,19.835,0,0,0,1.29-7.473,16.067,16.067,0,0,0-1.316-6.8A15.79,15.79,0,0,0,592,103.73Z" transform="translate(-435.146 -69.272)" fill="#fff"/>
    <path id="Path_32" data-name="Path 32" d="M662.654,77.405c-12.167,0-18.334,9.368-18.334,27.849a74.545,74.545,0,0,0,.772,11.415,24.735,24.735,0,0,0,2.723,8.428,13.276,13.276,0,0,0,5.217,5.243,16.329,16.329,0,0,0,7.828,1.727,21.07,21.07,0,0,0,6.934-1.031,11.89,11.89,0,0,0,5.116-3.439,15.134,15.134,0,0,0,3.038-6.01,36.806,36.806,0,0,0,1.107-8.509l.031-1.128-12.817-.843-.036,1.219c-.046,1.57-.112,2.977-.2,4.181a12.142,12.142,0,0,1-.493,2.784,3.194,3.194,0,0,1-.813,1.4,1.677,1.677,0,0,1-1.179.351A2.166,2.166,0,0,1,660,120.52a4.806,4.806,0,0,1-1.112-2.276,25.87,25.87,0,0,1-.716-5.07c-.137-2.179-.2-4.938-.2-8.2s.091-5.959.274-8.138a25.143,25.143,0,0,1,.848-5.131,5.128,5.128,0,0,1,1.245-2.362,2.213,2.213,0,0,1,1.565-.564,2.494,2.494,0,0,1,1.265.284,2.144,2.144,0,0,1,.752,1.057,10.623,10.623,0,0,1,.61,2.814c.132,1.265.223,2.936.269,4.968l.025,1.24L677.6,98.132l.01-1.077c.046-6.188-1.077-11.024-3.338-14.382-2.357-3.5-6.269-5.273-11.623-5.273Z" transform="translate(-474.914 -69.267)" fill="#fff"/>
    <path id="Path_33" data-name="Path 33" d="M731.285,99.506h-6.543V79.17h-13.1v52.94h13.1V111.637h6.543V132.11h13.1V79.17h-13.1Z" transform="translate(-508.035 -70.138)" fill="#fff"/>
    <path id="Path_34" data-name="Path 34" d="M795.56,89.584h4.272V79.17H778.191V89.584h4.272V121.7H778.12V132.11H799.9V121.7H795.56Z" transform="translate(-540.742 -70.138)" fill="#fff"/>
    <path id="Path_35" data-name="Path 35" d="M839.054,77.405c-12.167,0-18.334,9.368-18.334,27.849a74.553,74.553,0,0,0,.772,11.415,24.847,24.847,0,0,0,2.723,8.428,13.277,13.277,0,0,0,5.217,5.243,16.329,16.329,0,0,0,7.828,1.727,21.071,21.071,0,0,0,6.934-1.031,11.889,11.889,0,0,0,5.116-3.439,15.1,15.1,0,0,0,3.038-6.01,36.816,36.816,0,0,0,1.107-8.509l.031-1.128-12.817-.843-.036,1.219c-.046,1.57-.112,2.977-.2,4.181a12.145,12.145,0,0,1-.493,2.784,3.194,3.194,0,0,1-.813,1.4,1.677,1.677,0,0,1-1.179.351,2.166,2.166,0,0,1-1.549-.518,4.806,4.806,0,0,1-1.113-2.276,25.88,25.88,0,0,1-.716-5.07c-.137-2.179-.2-4.938-.2-8.2s.091-5.959.274-8.138a25.44,25.44,0,0,1,.848-5.131,5.081,5.081,0,0,1,1.245-2.362,2.213,2.213,0,0,1,1.565-.564,2.494,2.494,0,0,1,1.265.284,2.144,2.144,0,0,1,.752,1.057,10.628,10.628,0,0,1,.61,2.814c.132,1.265.223,2.936.269,4.968l.025,1.24L854,98.132l.01-1.077c.046-6.188-1.077-11.029-3.338-14.382-2.357-3.5-6.269-5.273-11.623-5.273Z" transform="translate(-561.701 -69.267)" fill="#fff"/>
    <path id="Path_36" data-name="Path 36" d="M935.911,110.748h12.2V99.582h-12.2V90.9h13.645V79.18H911.547L901.036,96.153V79.18h-13.1v52.935h13.1v-15.23l1.651-2.535,6.772,17.765h41.266v-11.72H935.906v-9.647Zm-24.125-10.262,11.029-16.744v46.244Z" transform="translate(-594.773 -70.143)" fill="#fff"/>
    <path id="Path_37" data-name="Path 37" d="M1035.355,79.17v24.024l-7.62-24.024H1013.16v52.94h12.477V107.568l8.255,24.542h13.8V79.17Z" transform="translate(-656.38 -70.138)" fill="#fff"/>
  </g>
  <g id="Group_8" data-name="Group 8" transform="translate(372.056 106.124)">
    <path id="Path_38" data-name="Path 38" d="M751.1,226.163q1.875-7.049,5.735-10.953a12.739,12.739,0,0,1,9.408-3.9,7.764,7.764,0,0,1,4.415,1.1,5.382,5.382,0,0,1,2,2.56,7.8,7.8,0,0,0-2.433-3.617s-3.5-3.988-9.738-1.773-10.2,7.315-20.5,6.868c0,0,.716,2.215,4.191,2.215,0,0-3,3.1-9.83,2.662,0,0,.94,7.092,11.5,5.761a23.605,23.605,0,0,1,5.055-.122C750.972,226.7,751.033,226.437,751.1,226.163Z" transform="translate(-733.349 -208.906)" fill="#fff"/>
    <path id="Path_39" data-name="Path 39" d="M756.969,257.275a5.677,5.677,0,0,1-2.454-3.013,10.849,10.849,0,0,1-.478-4.577,32.026,32.026,0,0,1,.808-4.775,22.439,22.439,0,0,0-12.385,3.668,12.307,12.307,0,0,1,7.178,2.545c2.626,2.256,4.338,5.817,8.667,6.746a6.143,6.143,0,0,1-1.331-.594Z" transform="translate(-737.339 -226.617)" fill="#fff"/>
    <path id="Path_40" data-name="Path 40" d="M802.255,242.937l11.476-14.427-3.7-13.62H819.4l1.224,7.752h.269l5.238-7.752h8.936L824.2,228.83l3.678,14.1h-9.368l-1.473-8.021h-.107l-5.471,8.021H802.25Z" transform="translate(-766.755 -211.848)" fill="#fff"/>
    <path id="Path_41" data-name="Path 41" d="M851.25,252.163l10.074-37.892h7.32l-.7,3.013h.107a6.517,6.517,0,0,1,1.057-1.24,9.777,9.777,0,0,1,1.554-1.184,9.1,9.1,0,0,1,1.905-.889,6.869,6.869,0,0,1,2.22-.351,5.725,5.725,0,0,1,2.891.671,3.851,3.851,0,0,1,1.687,2.261,11.385,11.385,0,0,1,.315,4.277,38.919,38.919,0,0,1-1.275,6.726q-2.172,8.184-5.045,11.786t-6.477,3.607a4.677,4.677,0,0,1-2.987-.808,4.047,4.047,0,0,1-1.356-1.885h-.107l-3.16,11.9h-8.021Zm14.184-24.009a54.394,54.394,0,0,0-1.331,6.03c-.2,1.438.183,2.154,1.148,2.154a2.323,2.323,0,0,0,1.224-.351,3.562,3.562,0,0,0,1.133-1.321,15.92,15.92,0,0,0,1.133-2.637q.579-1.669,1.3-4.359c.437-1.651.742-2.967.914-3.957a8.716,8.716,0,0,0,.173-2.261,1.351,1.351,0,0,0-.457-1.021,1.6,1.6,0,0,0-.9-.244,2.006,2.006,0,0,0-1.5.671,6.034,6.034,0,0,0-1.118,1.778,20.548,20.548,0,0,0-.894,2.555c-.274.97-.549,1.956-.813,2.962Z" transform="translate(-790.863 -211.223)" fill="#fff"/>
    <path id="Path_42" data-name="Path 42" d="M918.868,225.634a25.8,25.8,0,0,0,1.006-3.688c.163-.95-.076-1.428-.726-1.428q-1.3,0-2.377,2.367a43.316,43.316,0,0,0-2.23,6.675l-3.388,12.756H903.13l7.452-28.042h7.158L917,217.882h.107a10.422,10.422,0,0,1,1.021-1.321,9.581,9.581,0,0,1,3.592-2.474,6.8,6.8,0,0,1,2.545-.457q3.658,0,4.252,2.931T927.1,225.04l-8.23.594Z" transform="translate(-816.387 -211.228)" fill="#fff"/>
    <path id="Path_43" data-name="Path 43" d="M969.863,232.421a18.8,18.8,0,0,1-2.357,5.222,12.415,12.415,0,0,1-3.119,3.231,10.818,10.818,0,0,1-3.586,1.641,15.359,15.359,0,0,1-3.648.457,9.364,9.364,0,0,1-4.882-1.077,5.677,5.677,0,0,1-2.454-3.013,10.85,10.85,0,0,1-.477-4.577,33.2,33.2,0,0,1,1.062-5.812q1.875-7.049,5.735-10.953a12.738,12.738,0,0,1,9.408-3.9,7.764,7.764,0,0,1,4.415,1.1,5.508,5.508,0,0,1,2.2,3.15,12.3,12.3,0,0,1,.163,5.06,35.767,35.767,0,0,1-1.747,6.782H958.468a18.085,18.085,0,0,0-.772,4.735c.025,1.113.635,1.666,1.819,1.666a2.279,2.279,0,0,0,1.758-.833,8.981,8.981,0,0,0,1.417-3.2l7.183.325Zm-6.025-7.915a13.443,13.443,0,0,0,.528-2.286,2.7,2.7,0,0,0-.1-1.265.975.975,0,0,0-.5-.564,1.565,1.565,0,0,0-.635-.132,2.508,2.508,0,0,0-.9.163,2.074,2.074,0,0,0-.8.594,5.265,5.265,0,0,0-.772,1.29,19.12,19.12,0,0,0-.8,2.2h3.983Z" transform="translate(-839.096 -211.233)" fill="#fff"/>
    <path id="Path_44" data-name="Path 44" d="M1006.218,223.582a5.007,5.007,0,0,0,.229-2.586,1.3,1.3,0,0,0-1.438-.97,1.976,1.976,0,0,0-1.118.351,1.836,1.836,0,0,0-.726,1.1,1.643,1.643,0,0,0,.376,1.722,7.976,7.976,0,0,0,1.742,1.24q1.082.594,2.383,1.265a8.381,8.381,0,0,1,2.266,1.7,5.97,5.97,0,0,1,1.392,2.555,7.556,7.556,0,0,1-.2,3.9,12.188,12.188,0,0,1-1.91,4.145,11.92,11.92,0,0,1-2.875,2.825,11.493,11.493,0,0,1-3.47,1.615,13.885,13.885,0,0,1-3.688.513q-4.74,0-6.716-2.073t-.919-7.077l7.991-.7a7.07,7.07,0,0,0-.117,2.662,1.209,1.209,0,0,0,1.336,1.052,1.778,1.778,0,0,0,1.3-.432,2.657,2.657,0,0,0,.65-1.24,1.662,1.662,0,0,0-.386-1.7,8.041,8.041,0,0,0-1.727-1.29q-1.074-.617-2.322-1.29a8.71,8.71,0,0,1-2.215-1.7,5.967,5.967,0,0,1-1.392-2.555,7.44,7.44,0,0,1,.188-3.851,11.847,11.847,0,0,1,1.92-4.089,12.227,12.227,0,0,1,6.558-4.521,13.786,13.786,0,0,1,3.749-.538q4.2,0,6,2.2t.655,6.944l-7.534.808Z" transform="translate(-859.703 -211.223)" fill="#fff"/>
    <path id="Path_45" data-name="Path 45" d="M1046.8,223.582a5.005,5.005,0,0,0,.229-2.586,1.3,1.3,0,0,0-1.438-.97,1.976,1.976,0,0,0-1.118.351,1.835,1.835,0,0,0-.726,1.1,1.644,1.644,0,0,0,.376,1.722,7.977,7.977,0,0,0,1.743,1.24q1.082.594,2.383,1.265a8.38,8.38,0,0,1,2.266,1.7,5.969,5.969,0,0,1,1.392,2.555,7.558,7.558,0,0,1-.2,3.9,12.188,12.188,0,0,1-1.91,4.145,11.921,11.921,0,0,1-2.875,2.825,11.494,11.494,0,0,1-3.47,1.615,13.884,13.884,0,0,1-3.688.513q-4.74,0-6.716-2.073t-.919-7.077l7.991-.7a7.071,7.071,0,0,0-.117,2.662,1.209,1.209,0,0,0,1.336,1.052,1.779,1.779,0,0,0,1.3-.432,2.656,2.656,0,0,0,.65-1.24,1.662,1.662,0,0,0-.386-1.7,8.041,8.041,0,0,0-1.727-1.29q-1.074-.617-2.322-1.29a8.715,8.715,0,0,1-2.215-1.7,5.97,5.97,0,0,1-1.392-2.555,7.442,7.442,0,0,1,.188-3.851,11.846,11.846,0,0,1,1.92-4.089,12.227,12.227,0,0,1,6.558-4.521,13.785,13.785,0,0,1,3.749-.538q4.2,0,6,2.2t.655,6.944l-7.534.808Z" transform="translate(-879.668 -211.223)" fill="#fff"/>
    <path id="Path_46" data-name="Path 46" d="M732.38,221.62s.752,6.365,5.918,2.88C738.3,224.5,734.265,224.1,732.38,221.62Z" transform="translate(-732.38 -215.159)" fill="#fff"/>
    <path id="Path_47" data-name="Path 47" d="M752.239,246.353c.828.157,1.549.34,2.179.523.117-.64.254-1.3.417-1.976a23.008,23.008,0,0,0-11.252,2.957.016.016,0,0,0-.01.005c-.32.183-.579.345-.767.462h0c-.041.025-.071.046-.1.066-.01.01-.025.015-.036.025-.025.015-.051.036-.071.046a.178.178,0,0,1-.041.025.286.286,0,0,0-.041.03.215.215,0,0,0-.036.025c-.005,0-.015.01-.015.01a.061.061,0,0,0-.015.01s5.359-3.068,9.789-2.22Z" transform="translate(-737.334 -226.612)" fill="#fff"/>
    <path id="Path_48" data-name="Path 48" d="M785.713,232.421a18.8,18.8,0,0,1-2.357,5.222,12.414,12.414,0,0,1-3.119,3.231,10.816,10.816,0,0,1-3.586,1.641,15.36,15.36,0,0,1-3.648.457,9.364,9.364,0,0,1-4.882-1.077,5.677,5.677,0,0,1-2.454-3.013,10.851,10.851,0,0,1-.478-4.577,33.213,33.213,0,0,1,1.062-5.812q1.875-7.049,5.735-10.953a12.738,12.738,0,0,1,9.408-3.9,7.764,7.764,0,0,1,4.415,1.1,5.508,5.508,0,0,1,2.2,3.15,12.3,12.3,0,0,1,.163,5.06,35.763,35.763,0,0,1-1.748,6.782H774.318a18.082,18.082,0,0,0-.772,4.735c.025,1.113.635,1.666,1.819,1.666a2.279,2.279,0,0,0,1.758-.833,8.981,8.981,0,0,0,1.417-3.2l7.183.325Zm-6.025-7.915a13.455,13.455,0,0,0,.528-2.286,2.7,2.7,0,0,0-.1-1.265.975.975,0,0,0-.5-.564,1.565,1.565,0,0,0-.635-.132,2.508,2.508,0,0,0-.9.163,2.074,2.074,0,0,0-.8.594,5.267,5.267,0,0,0-.772,1.29,19.142,19.142,0,0,0-.8,2.2h3.983Z" transform="translate(-748.496 -211.233)" fill="#fff"/>
    <path id="Path_49" data-name="Path 49" d="M756.84,215.205a12.739,12.739,0,0,1,9.408-3.9,7.764,7.764,0,0,1,4.415,1.1,5.352,5.352,0,0,1,2.012,2.586,7.872,7.872,0,0,0-2.444-3.647s-3.5-3.988-9.738-1.773-10.2,7.315-20.5,6.868c0,0,.716,2.215,4.191,2.215,0,0-3,3.1-9.83,2.662a12.506,12.506,0,0,0,11.755,2.215,26,26,0,0,0,7.94-4.653,18.782,18.782,0,0,1,2.794-3.678Z" transform="translate(-733.349 -208.902)" fill="#fff"/>
  </g>
  <circle id="Ellipse_1" data-name="Ellipse 1" cx="74.124" cy="74.124" r="74.124" fill="#010101"/>
  <g id="Group_13" data-name="Group 13" transform="translate(7.722 12.482)">
    <g id="Group_9" data-name="Group 9" transform="translate(6.68)">
      <path id="Path_50" data-name="Path 50" d="M39.76,67.985a51.311,51.311,0,0,1,88.922-12.67l11.41-1.626A61.651,61.651,0,0,0,28.35,69.615L39.76,67.99Z" transform="translate(-28.35 -24.57)" fill="#f5af2d"/>
      <path id="Path_51" data-name="Path 51" d="M135.952,208.046a51.2,51.2,0,0,1-39.665,18.766,50.375,50.375,0,0,1-38.741-17.674L45.76,210.82a61.648,61.648,0,0,0,104.071-4.75Z" transform="translate(-36.916 -113.866)" fill="#f5af2d"/>
    </g>
    <g id="Group_10" data-name="Group 10" transform="translate(68.44 79.184)">
      <path id="Path_52" data-name="Path 52" d="M154.091,199.849h0l-.279-1.422a2.9,2.9,0,0,0-.686.015c-1.245.178-1.809.7-1.428,3.363.335,2.352,1.006,2.7,2.4,2.494a6.083,6.083,0,0,0,1.6-.478l.356,1.173a8.7,8.7,0,0,1-2.037.574c-2.347.335-3.515-.269-3.978-3.5-.5-3.515.65-4.526,2.972-4.857a7.425,7.425,0,0,1,1.864-.031l.33,2.494-1.123.163Z" transform="translate(-149.921 -188.657)" fill="#fff"/>
      <path id="Path_53" data-name="Path 53" d="M167.016,202h0l.955-.183-.838-5.9-.97.091-.152-1.046,3.505-.5.152,1.052-.889.163.315,2.21,3.119-.442-.315-2.215-.9.091-.147-1.046,3.49-.5.152,1.046-.96.183.843,5.9.97-.086.147,1.047-3.49.5-.152-1.046.889-.163-.351-2.449-3.114.447.345,2.444.9-.091.147,1.047-3.505.5Z" transform="translate(-157.837 -186.998)" fill="#fff"/>
      <path id="Path_54" data-name="Path 54" d="M189.576,199.444h0l.96-.183-.843-5.9-.97.086-.152-1.046,3.581-.508.147,1.047-.955.183.838,5.9.975-.091.147,1.052-3.581.508Z" transform="translate(-168.936 -186.073)" fill="#fff"/>
      <path id="Path_55" data-name="Path 55" d="M207.371,192.249h0l-.279-1.422a2.9,2.9,0,0,0-.686.015c-1.245.178-1.809.7-1.428,3.363.335,2.352,1.006,2.7,2.4,2.494a6.084,6.084,0,0,0,1.6-.478l.356,1.173a8.7,8.7,0,0,1-2.037.574c-2.347.335-3.515-.269-3.978-3.5-.5-3.515.65-4.526,2.972-4.857a7.425,7.425,0,0,1,1.864-.03l.33,2.494-1.123.163Z" transform="translate(-176.134 -184.918)" fill="#fff"/>
      <path id="Path_56" data-name="Path 56" d="M220.291,194.5h0l.96-.183-.843-5.9-.97.091-.147-1.052,3.322-.472.142,1.011-.706.127.391,2.723,2.068-3.063-.762.076-.142-1.016,3.322-.472.147,1.046-.655.132-2.154,3.134,3.134,2.784.691-.076.147,1.052-3.444.488-.142-1.011.752-.132-2.911-2.581.417,2.936.716-.076.142,1.011-3.322.472Z" transform="translate(-184.05 -183.358)" fill="#fff"/>
      <path id="Path_57" data-name="Path 57" d="M245.427,189.226h0l-.157-.665-1.773.249.345,2.423,2.332-.33-.076-.991,1.123-.158.3,2.139-6.132.879-.152-1.052.96-.183-.843-5.9-.97.091-.147-1.046,6.132-.879.295,2.088-1.123.157-.193-.909-2.332.33.32,2.261,1.773-.254-.03-.671,1.011-.142.345,2.418Z" transform="translate(-194.357 -182.093)" fill="#fff"/>
      <path id="Path_58" data-name="Path 58" d="M259.968,189.772h0l-.147-1.046.96-.183-.843-5.9-.97.091-.147-1.046,3.139-.447,2.952,3.917a23.113,23.113,0,0,1,1.417,2.149h.036c-.2-.8-.381-1.651-.488-2.286l-.452-3.18-.909.1-.147-1.036,3.216-.457.147,1.047-.864.157,1,7.011-2.149.3-2.962-3.912a23.122,23.122,0,0,1-1.417-2.149h-.051c.2.8.4,1.651.488,2.291l.452,3.18.909-.091.147,1.036-3.312.472Z" transform="translate(-203.498 -180.44)" fill="#fff"/>
    </g>
    <path id="Path_59" data-name="Path 59" d="M130.107,96.984a2.217,2.217,0,0,1,1.742.411c1,.752,1.641,2.474,2.078,5.563l9.469-2.327c-.742-5.08-2.332-8.479-4.857-10.379-2.169-1.636-5.024-2.169-8.728-1.636-4.059.584-7.3,2.215-9.358,4.709-2.129,2.581-2.952,6.055-2.377,10.048,1.168,8.113,6.823,10.308,11.816,12.248l.051.02c3.7,1.372,6.9,2.56,7.392,5.969a3.985,3.985,0,0,1-.218,2.413,2.048,2.048,0,0,1-1.631,1.057c-2.606.376-3.957-1.382-4.765-6.254l-9.794,2.52a.337.337,0,0,1-.406-.213L109.979,93.153l-13.066,1.88L94.673,132a.342.342,0,0,1-.645.137l-7.666-14.56a.327.327,0,0,1-.03-.229l5.634-26.894L80.83,92.015l-2.687,18.71a.339.339,0,0,1-.29.29l-.3.041a.348.348,0,0,1-.361-.2L71.5,98.579l-56.3,7.955,1.245,8.646,7.122-1.016a.346.346,0,0,1,.391.29l4.76,33.859,9.784-1.377L33.747,113.1a.361.361,0,0,1,.061-.259.349.349,0,0,1,.229-.137l6.116-.859a.347.347,0,0,1,.391.29L45.3,145.976l20.549-2.891H65.9a.338.338,0,0,1,.249.107.347.347,0,0,1,.091.3l-2.068,10.729,12.268-1.641,2.885-25.71a.345.345,0,0,1,.295-.3l.239-.036a.352.352,0,0,1,.366.2l5.939,13.508,18.268-2.581.147-8.758a.343.343,0,0,1,.295-.335l7.077-1.021a.343.343,0,0,1,.376.239l2.616,8.4,10.592-1.509-1.372-3.846a.346.346,0,0,1,.569-.366c2.55,2.535,6.249,3.414,11.324,2.682,8.138-1.173,12.111-6.665,10.9-15.068-1.138-7.889-7.275-10.353-12.207-12.329l-.665-.269c-3.317-1.428-5.522-2.586-5.954-5.573a2.889,2.889,0,0,1,.29-1.89,2.254,2.254,0,0,1,1.7-1.052ZM71.269,119.931l-2.9,13.544a.346.346,0,0,1-.29.269l-14,1.961h-.051a.345.345,0,0,1-.34-.3l-1.148-8.179a.324.324,0,0,1,.066-.254.342.342,0,0,1,.229-.132l9.825-1.412-1.214-8.418-9.794,1.412a.324.324,0,0,1-.254-.066.342.342,0,0,1-.132-.229l-1.031-7.346a.324.324,0,0,1,.066-.254.342.342,0,0,1,.229-.132l14.062-1.976a.35.35,0,0,1,.351.173l6.294,11.1a.353.353,0,0,1,.036.239Zm38.228-.61a.359.359,0,0,1-.239.152l-4.222.61h-.051a.355.355,0,0,1-.224-.081.359.359,0,0,1-.122-.259l-.112-14.676a.35.35,0,0,1,.295-.345l.356-.051a.345.345,0,0,1,.381.249l3.978,14.123a.357.357,0,0,1-.041.279Z" transform="translate(-15.2 -55.982)" fill="#fff"/>
    <g id="Group_11" data-name="Group 11" transform="translate(126.113 32.685)">
      <path id="Path_60" data-name="Path 60" d="M265.411,89.423h-.671l-.01,2.555h-.62l.01-2.56h-.671V88.91l1.956.01v.508Z" transform="translate(-263.45 -88.91)" fill="#fff"/>
      <path id="Path_61" data-name="Path 61" d="M268.76,88.925l.427,2.164h.01l.452-2.159h.914L270.548,92h-.569l.01-2.449h-.01l-.554,2.444h-.483l-.533-2.454h-.01l-.01,2.449h-.569l.015-3.068h.919Z" transform="translate(-265.6 -88.915)" fill="#fff"/>
    </g>
    <g id="Group_12" data-name="Group 12" transform="translate(48.408 17.603)">
      <path id="Path_62" data-name="Path 62" d="M126.208,59.22,110.49,74.669l8.438-1.224,3.932,7.564Z" transform="translate(-110.49 -59.22)" fill="#f5af2d"/>
      <path id="Path_63" data-name="Path 63" d="M121.326,66.639,114.61,63.21l3.449,6.64Z" transform="translate(-112.517 -61.183)" fill="#f5af2d"/>
      <path id="Path_64" data-name="Path 64" d="M140,76.53l-.7,4.537,7.437-1.077Z" transform="translate(-124.664 -67.736)" fill="#f5af2d"/>
    </g>
  </g>
  <text id="TM" transform="translate(545.95 106.124)" fill="#fff" font-size="10" font-family="TabletGothic, Tablet Gothic"><tspan x="-7" y="8">TM</tspan></text>
</svg>
