<svg xmlns="http://www.w3.org/2000/svg" xmlns:xlink="http://www.w3.org/1999/xlink" width="362.357" height="356" viewBox="0 0 362.357 356"><defs><clipPath id="a"><path d="M332.563,0H29.794A29.781,29.781,0,0,0,0,29.794V356H362.357V29.794A29.794,29.794,0,0,0,332.563,0Z" transform="translate(0 0)" fill="none"/></clipPath></defs><g clip-path="url(#a)"><g transform="translate(-250.499 -68.149)"><path d="M55.011,168.277H20.6a9.392,9.392,0,0,1-9.387-9.387V148.57h43.8v19.707h0Z" transform="translate(263.043 234.405)" fill="#efefef"/><path d="M58.625,117.92,28.09,222.94l100.718,6.421,24.772-86.669L58.625,117.92Z" transform="translate(281.933 200.107)" fill="#efefef"/><path d="M110.877,33.55s-18.139,8.391-30.069,30.9S31.37,212.864,31.37,212.864s46.471,13.392,79.485,21.975,37.867,9.112,37.867,9.112L110.855,33.55h0Z" transform="translate(285.603 105.693)" fill="#9e3223"/><path d="M178.941,50.449,154.805,81.79l-30.938-9.239s-5.488-15-10.171-27.463c-1.208-3.157-2.352-6.166-3.327-8.709-1.632-4.153-2.818-7.12-3.179-7.629l1.971-49.84,45.644,8.625,24.136,62.915h0Z" transform="translate(370.45 44.548)" fill="#fff"/><path d="M147.373,9.749c-2.564,11.1-13.9,19.283-22.61,21.424a74.97,74.97,0,0,1-12.735,1.865c-1.208-3.157-2.352-6.166-3.327-8.709L133.323-.444l8.052-9.9s8.561,8.964,6.018,20.089h0Z" transform="translate(372.139 56.578)" fill="#efefef"/><path d="M87.31-11.648s8.2,30.959,19.5,46.026c14.028,18.711,21.805,21.085,34.138,17.4,14.855-4.429,21.4-11.845,29.942-27.8,7.523-14.049,8.964-56.134,8.964-56.134L87.31-11.669h0Z" transform="translate(348.203 32.16)" fill="#fff"/><path d="M99.33,34.441l26.128-16.868L180.68,3.99l55.689,22.822S202.612,105.175,201,106.382s-63.084,13.265-64.292,13.265S99.33,34.462,99.33,34.462h0Z" transform="translate(361.654 72.614)" fill="#fff"/><path d="M264.518,54.945c-.106,1.038-.233,2.119-.36,3.221-1.271,11.443-2.861,25.577-4.535,41.088-.106,1.06-.233,2.14-.36,3.221-1.271,12.036-2.585,24.793-3.835,37.74-.106,1.081-.212,2.14-.3,3.221-1.06,11.146-2.056,22.4-2.9,33.333-.106,1.1-.17,2.183-.254,3.263-2.818,36.363-4.026,68.827-1.06,82.961A662.728,662.728,0,0,1,262.166,343.9L119.258,347.12s-1.017-11.464-2.564-29.306c-.106-1.06-.191-2.14-.3-3.242-.784-8.836-1.7-19.071-2.67-30.133-.085-1.06-.17-2.14-.275-3.242-2.9-32.739-6.378-72.111-9.239-104.363-.085-1.123-.212-2.225-.3-3.348-1-11.273-1.907-21.593-2.712-30.324-.085-1.1-.17-2.161-.275-3.221-1.038-11.634-1.822-20.067-2.161-23.627-.487-5.192-1.25-12.248-2.119-20-.106-1.06-.233-2.14-.36-3.221-.975-8.815-2.077-18.287-3.073-26.87-.127-1.1-.254-2.161-.36-3.221C91.223,49.012,89.93,38.226,89.93,38.226l32.379-15.151s12.757,23.5,23.182,40.77c.636,1.038,1.25,2.077,1.865,3.073,5.171,8.434,9.493,14.77,10.892,14.939,1.314.17,6.357-6.76,12.693-16.444q1.049-1.589,2.161-3.306c14.325-22.186,33.65-55.138,33.65-55.138S265.43,28.8,267.04,29.347c.36.106-.7,9.96-2.437,25.6h0Z" transform="translate(351.135 75.948)" fill="#9e3223"/><path d="M129.8,19.011s6.315,106.228,11.888,157.127,17.842,163.421,17.842,163.421h-40.94s-27.06-106.63-36.7-151.639S59.918,68.618,65.809,57.175C71.7,45.754,129.783,18.99,129.783,18.99h0Z" transform="translate(322.428 89.399)" fill="#9e3223"/><path d="M167.883,11.1s-14.9,117.077-19.2,197.983c-4.281,80.905,0,139.306,0,139.306h137.7s3.751-260.94-5.891-281.833S167.862,11.1,167.862,11.1h0Z" transform="translate(414.755 80.57)" fill="#9e3223"/><path d="M344.6,220.153c-16.084,23.034-55.18,14.473-70.713,9.642C263,226.425,187.646,195.4,143.506,177.157c-1.314-.551-2.606-1.081-3.857-1.589-6.272-2.606-11.782-4.9-16.211-6.739a.874.874,0,0,1-.17-.064c-7.353-3.03-11.74-4.874-11.74-4.874l26.679-63.211,11.21,2.8.148.042,17.079,4.238,3.221.805L261.22,131.3,268.53,96.93l79.295,27.336s12.863,72.874-3.221,95.908h0Z" transform="translate(375.306 176.618)" fill="#fff"/><path d="M174.287,130.962s-25.068-36.977-52.531-48.23S86.791,69.87,86.791,69.87l-7.5,20.618s58.676,27.336,59.736,28.12c1.081.805,35.261,12.312,35.261,12.312h0Z" transform="translate(339.228 146.336)" fill="#fff"/><path d="M124.077,111.2,55.4,114.934a4.56,4.56,0,0,1-4.81-4.323L48.533,72.744a4.574,4.574,0,0,1,4.323-4.81l68.678-3.73a4.56,4.56,0,0,1,4.81,4.323l2.055,37.867a4.574,4.574,0,0,1-4.323,4.81h0Z" transform="translate(304.803 139.987)" fill="#075d9b"/><path d="M201.806,125.9s-32.04-25.98-43.017-31.341S113.78,78.476,99.858,75.806s-24.115-2.267-24.115,7.5c0,10.722,45.538,24.645,45.538,24.645s-34.032-6.209-47.424-7.8-18.224,3.369-19.029,9.26,2.14,9.239,8.836,12.735c6.7,3.475,13.117,6.7,13.117,6.7s-12.545-1.971-13.922,6.7c-1.822,11.379,15.066,17.419,35.558,24.856,17.461,6.336,76.688,28.734,76.688,28.734l43.928-21.424-17.249-41.788h0Z" transform="translate(311.709 151.398)" fill="#fff"/><path d="M652.836,182.635H-113.433a4.585,4.585,0,0,1-4.577-4.577v-8.37a4.585,4.585,0,0,1,4.577-4.577H652.836a4.585,4.585,0,0,1,4.577,4.577v8.285a4.622,4.622,0,0,1-4.577,4.683h0Z" transform="translate(118.44 252.914)" fill="#baa9a9"/><path d="M57.158,163.569c-4.026,16.359-9.705,26.276-21.572,26.276s-10.023-16.846-6-33.206,9.493-30.705,22.42-25.916c8.074,2.988,9.175,16.486,5.149,32.866h0Z" transform="translate(280.179 213.388)" fill="#fff"/><path d="M6.671,156.424c-4.132,16.338-4.831,33.1,6.7,33.333,8.794.17,16.762-10.15,20.894-26.488s10.892-36.342-7.607-33.417c-8.625,1.356-15.85,10.235-19.983,26.594h0Z" transform="translate(254.889 213.137)" fill="#fff"/><path d="M49.528,164.543c-4.535,18.436-11.761,29.222-24.75,29.328-12.99.085-12.841-19.029-8.285-37.465S32,125.3,41.242,127.078c16.74,3.242,12.841,19.008,8.285,37.465h0Z" transform="translate(265.814 210.169)" fill="#fff"/><path d="M49.151,130.71s18.351,18.309,24.39,35.2c6.018,16.868,5.615,22.377,5.615,22.377l-48.357.551L49.151,130.71h0Z" transform="translate(284.965 214.419)" fill="#fff"/><path d="M60.2,173.732c-8.074.17-21.551.085-23.9-10.129-3.009-13.075,15.469-10.955,22.674-8.73,1.971.614,2.84-2.479.848-3.094a41.464,41.464,0,0,0-9.832-1.738,48.754,48.754,0,0,0,2.161-8.476c.339-2.013-2.776-2.9-3.094-.848a49.683,49.683,0,0,1-2.289,8.879,1.468,1.468,0,0,0-.064.424c-7.268.275-13.943,3.073-13.859,11.528C32.968,175.512,49.878,177.186,60.2,177c2.077-.042,2.077-3.263,0-3.221h0Z" transform="translate(287.248 224.31)" fill="#2d2a26"/><path d="M35.092,133.989a126.367,126.367,0,0,0-7.84,36.532c-.127,2.055,3.073,2.055,3.221,0a123.96,123.96,0,0,1,7.713-35.685c.72-1.95-2.373-2.776-3.094-.848h0Z" transform="translate(280.991 216.862)" fill="#2d2a26"/><path d="M22.516,132.69c-3.666,12.418-8.5,26.53-7.756,39.605.106,2.055,3.327,2.077,3.221,0-.72-12.757,4.047-26.615,7.65-38.757.593-1.992-2.522-2.839-3.094-.848h0Z" transform="translate(266.931 215.364)" fill="#2d2a26"/><path d="M107.963,110.525c-12.481-4.365-25.323-7.311-38.206-10.171-1.992-.445-3.073,2.585-1.06,3.03,12.884,2.861,25.725,5.806,38.206,10.171a1.606,1.606,0,0,0,1.06-3.03Z" transform="translate(326.172 180.399)" fill="#2d2a26"/><path d="M126.371,93.034q-18.277-8.391-37.1-15.427c-1.95-.72-2.776,2.373-.848,3.094q18.436,6.9,36.342,15.109c1.865.869,3.5-1.907,1.632-2.776h0Z" transform="translate(348.217 154.874)" fill="#2d2a26"/><path d="M98.4,93.99,88.993,90.3c-1.928-.763-2.776,2.352-.848,3.094l9.409,3.687c1.928.763,2.776-2.352.848-3.094Z" transform="translate(347.918 169.068)" fill="#2d2a26"/><path d="M142.521,264.593H-74.321L-118.08,82.186a4.843,4.843,0,0,1,4.7-5.976H93.507a4.81,4.81,0,0,1,4.7,3.708l44.309,184.675Z" transform="translate(118.213 153.431)" fill="#d8d2d2"/><path d="M217.062,173.212H-6.37V157.87h209.7a13.706,13.706,0,0,1,13.71,13.71v1.61h0Z" transform="translate(243.37 244.813)" fill="#d8d2d2"/><path d="M62.428,73.554a5.764,5.764,0,1,0-5.764,5.764,5.77,5.77,0,0,0,5.764-5.764Z" transform="translate(307.458 144.009)" fill="#fff"/><path d="M66.788,73.234A5.764,5.764,0,1,0,61.024,79a5.77,5.77,0,0,0,5.764-5.764Z" transform="translate(312.337 143.651)" fill="#fff"/><path d="M164.967,105.445c-8.688,22.737-16.91,46.428-26.213,68.89-6.272-2.606-17.164-7.12-21.614-8.964q13.445-32.485,26-65.351l.148.042,21.7,5.4h0Z" transform="translate(381.584 180.076)" fill="#2d2a26"/><path d="M154.772,124.981a16.931,16.931,0,1,0-16.931,16.931,16.939,16.939,0,0,0,16.931-16.931Z" transform="translate(385.803 189.062)" fill="#f3af18"/><g transform="translate(507.772 299.167)"><g transform="translate(1.504)"><path d="M124.854,119.276a12.125,12.125,0,0,1,21.021-2.988l2.691-.381a14.593,14.593,0,0,0-26.446,3.772l2.691-.381Z" transform="translate(-122.12 -109.02)" fill="#fff"/><path d="M144.459,119.766a12.084,12.084,0,0,1-9.387,4.429,11.862,11.862,0,0,1-9.154-4.175l-2.8.4a14.588,14.588,0,0,0,24.623-1.123Z" transform="translate(-121.001 -97.516)" fill="#fff"/></g><g transform="translate(16.138 18.69)"><path d="M130.01,119.433h0l-.064-.339h-.17c-.3.042-.424.17-.339.805.085.551.233.636.572.593a1.287,1.287,0,0,0,.381-.106l.085.275a1.833,1.833,0,0,1-.487.127c-.551.085-.826-.064-.932-.826-.127-.826.148-1.081.7-1.144a1.563,1.563,0,0,1,.445,0l.085.593-.275.042Z" transform="translate(-129.026 -116.763)" fill="#fff"/><path d="M130.173,120.55h0l.233-.042-.191-1.4-.233.021-.042-.233.826-.127.042.254-.212.042.064.509.742-.106-.064-.509-.212.021-.042-.254.826-.127.042.254-.233.042.191,1.4.233-.021.042.254-.826.106-.042-.233.212-.042-.085-.572-.72.085.064.593.212-.021.042.233-.826.127Z" transform="translate(-128.002 -116.989)" fill="#fff"/><path d="M131.453,120.28h0l.233-.042-.191-1.4-.233.021-.042-.254.848-.106.042.233-.233.064.191,1.377.233-.021.042.254-.848.127Z" transform="translate(-126.57 -117.101)" fill="#fff"/><path d="M133.03,119h0l-.064-.339h-.17c-.3.042-.424.17-.339.805.085.551.233.636.572.593a1.286,1.286,0,0,0,.381-.106l.085.275a1.834,1.834,0,0,1-.487.127c-.551.085-.826-.064-.932-.826-.127-.826.148-1.081.7-1.144a1.567,1.567,0,0,1,.445,0l.085.593-.275.042Z" transform="translate(-125.646 -117.244)" fill="#fff"/><path d="M133.193,120.108h0l.233-.042-.191-1.4-.233.021-.042-.233.784-.127.042.254-.17.021.085.636.487-.72-.169.021-.042-.233.784-.127.042.254-.148.042-.509.742.742.657.148-.021.042.254-.805.106-.042-.233.169-.042-.678-.615.106.7L134,120l.021.254-.784.106Z" transform="translate(-124.623 -117.46)" fill="#fff"/><path d="M135.379,119.311h0l-.042-.148-.424.064.085.572.551-.085-.021-.233.275-.042.064.509-1.441.212-.042-.254.233-.042-.212-1.4-.212.021-.042-.233,1.441-.212.085.487-.275.042-.042-.212-.551.085.085.53.4-.064v-.17l.233-.021.085.572Z" transform="translate(-123.291 -117.616)" fill="#fff"/><path d="M135.475,120.065h0l-.042-.254.233-.042-.191-1.4h-.233l-.042-.233.742-.106.7.932a4.243,4.243,0,0,1,.339.509h0c-.042-.191-.085-.381-.106-.551l-.106-.742h-.212l-.042-.233.763-.106.042.254-.212.042.233,1.653-.509.064-.7-.932a4.247,4.247,0,0,1-.339-.509h0c.042.191.085.381.106.551l.106.742h.212l.042.233-.784.106Z" transform="translate(-122.116 -117.84)" fill="#fff"/></g><path d="M148.555,114.656a.44.44,0,0,1,.4.106c.233.17.381.593.487,1.314l2.246-.551a3.538,3.538,0,0,0-1.144-2.458,2.66,2.66,0,0,0-2.055-.381,3.454,3.454,0,0,0-2.2,1.123,2.992,2.992,0,0,0-.572,2.373c.276,1.928,1.61,2.437,2.8,2.9h0c.869.339,1.632.615,1.759,1.42a1.157,1.157,0,0,1-.042.572.456.456,0,0,1-.381.254c-.615.085-.932-.318-1.123-1.483l-2.31.593s-.085,0-.106-.042l-2.5-6.611-3.094.445-.53,8.752a.165.165,0,0,1-.064.085c-.042,0-.064,0-.085-.042l-1.822-3.454v-.064l1.335-6.357-2.628.36-.636,4.429s-.042.064-.064.064h-.064s-.064,0-.085-.042l-1.335-2.9-13.329,1.886.3,2.055,1.674-.233s.085.021.085.064l1.123,8.01,2.31-.318-1.123-8.01v-.064a.3.3,0,0,0,.064-.042l1.441-.212s.085.021.085.064l1.123,8.01,4.853-.678h0a.078.078,0,0,1,.064.021.213.213,0,0,1,.021.064l-.487,2.543,2.9-.381.678-6.082s.042-.064.064-.064h.064s.064,0,.085.042l1.4,3.2,4.323-.615.042-2.077a.165.165,0,0,1,.064-.085l1.674-.233s.085,0,.085.064l.614,1.992,2.5-.36-.318-.911s0-.085.042-.106h.106a2.989,2.989,0,0,0,2.67.636,2.834,2.834,0,0,0,2.585-3.56c-.275-1.865-1.716-2.458-2.882-2.924l-.148-.064c-.784-.339-1.314-.615-1.4-1.314a.765.765,0,0,1,.064-.445.611.611,0,0,1,.4-.254Zm-13.922,5.425-.678,3.2s-.042.064-.064.064l-3.306.466h-.042a.307.307,0,0,0-.042-.064l-.275-1.928v-.064c0-.021.042-.021.064-.042l2.331-.339-.3-1.992-2.31.339h-.064c-.021,0-.021-.042-.042-.064l-.254-1.738v-.064c0-.021.042-.021.064-.042l3.327-.466s.064,0,.085.042l1.483,2.628v.064Zm9.048-.148s-.042.042-.064.042l-1,.148h-.064a.214.214,0,0,1-.021-.064v-3.475s0-.085.042-.085h.085s.085,0,.085.042l.932,3.348v.064Z" transform="translate(-121.41 -104.972)" fill="#fff"/><g transform="translate(29.772 7.586)"><path d="M135.905,112.767h-.148l.085.615h-.148l-.085-.572h-.148V112.7l.466-.064v.127Z" transform="translate(-135.46 -112.555)" fill="#fff"/><path d="M135.9,112.642l.17.487h0l.021-.53h.212l.106.678h-.127l-.085-.551h0l-.042.593h-.106l-.212-.53h0l.085.572H135.8l-.106-.7h.212Z" transform="translate(-135.203 -112.6)" fill="#fff"/></g><g transform="translate(11.4 4.132)"><path d="M130.52,110.97l-3.73,3.666,1.992-.3.932,1.8Z" transform="translate(-126.79 -110.97)" fill="#fff"/><path d="M128.619,112.005l-1.589-.805.805,1.568Z" transform="translate(-126.521 -110.713)" fill="#fff"/><path d="M128.578,111.96l-.148,1.06,1.759-.254Z" transform="translate(-124.955 -109.862)" fill="#fff"/></g></g></g></g></svg>