<?xml version="1.0" encoding="UTF-8"?><svg id="Layer_1" xmlns="http://www.w3.org/2000/svg" viewBox="0 0 114.73 128.23"><defs><style>.cls-1{fill:#f5a920;}.cls-2{fill:#fff;}.cls-3{stroke:#fff;}.cls-3,.cls-4{fill:none;stroke-linecap:round;stroke-linejoin:round;stroke-width:1.14px;}.cls-5{fill:#2d2a26;}.cls-6{fill:#f5af2d;}.cls-4{stroke:#2d2a26;}</style></defs><g><path class="cls-1" d="M100.08,14.6l14.07,31.28v82.36h-28.15V45.87l14.07-31.28Z"/><path class="cls-2" d="M86.01,128.23l14.07-14.07,14.07,14.07h-28.15Z"/><path class="cls-2" d="M94.87,0H19.29c-2.88,0-5.21,2.33-5.21,5.21V14.6H100.08V5.21c0-2.88-2.33-5.21-5.21-5.21Z"/><path class="cls-2" d="M0,45.87v82.36H86.01V45.87l14.07-31.28H14.07L0,45.87Z"/></g><g><g><path class="cls-6" d="M20.62,75.74c3.56-9.36,12.61-16.01,23.22-16.01,8.1,0,15.29,3.88,19.82,9.88l5.52-.79c-5.27-8.46-14.65-14.1-25.35-14.1-13.69,0-25.23,9.23-28.74,21.8l5.52-.79Z"/><path class="cls-6" d="M63.04,100.31c-4.55,5.55-11.46,9.08-19.2,9.08s-14.2-3.31-18.75-8.56l-5.7,.81c5.39,7.71,14.34,12.75,24.46,12.75,11.1,0,20.78-6.06,25.92-15.05l-6.72,.96Z"/></g><g><path class="cls-5" d="M47.01,98.47h0l-.13-.69s-.17-.02-.33,0c-.6,.09-.88,.34-.69,1.63,.16,1.14,.49,1.3,1.16,1.21,.25-.04,.51-.11,.78-.23l.17,.57c-.3,.12-.65,.23-.99,.28-1.14,.16-1.7-.13-1.93-1.69-.24-1.7,.32-2.19,1.44-2.35,.31-.04,.61-.05,.9-.01l.16,1.21-.54,.08Z"/><polygon class="cls-5" points="49.44 100.32 49.44 100.32 49.9 100.23 49.49 97.37 49.02 97.41 48.95 96.91 50.65 96.66 50.72 97.17 50.29 97.25 50.45 98.32 51.95 98.11 51.8 97.03 51.37 97.08 51.29 96.57 52.99 96.33 53.06 96.84 52.59 96.93 53 99.78 53.47 99.74 53.54 100.25 51.85 100.49 51.78 99.98 52.21 99.9 52.04 98.72 50.53 98.93 50.7 100.12 51.14 100.07 51.21 100.58 49.51 100.82 49.44 100.32"/><polygon class="cls-5" points="54.99 99.52 54.99 99.52 55.45 99.44 55.04 96.58 54.57 96.62 54.5 96.11 56.23 95.87 56.31 96.37 55.84 96.46 56.25 99.32 56.72 99.28 56.79 99.78 55.06 100.03 54.99 99.52"/><path class="cls-5" d="M60.12,96.6h0l-.13-.69s-.17-.02-.33,0c-.6,.09-.88,.34-.69,1.63,.16,1.14,.49,1.3,1.16,1.21,.25-.04,.51-.11,.78-.23l.17,.57c-.3,.12-.65,.23-.99,.28-1.14,.16-1.7-.13-1.93-1.69-.24-1.7,.32-2.19,1.44-2.35,.31-.04,.61-.05,.9-.01l.16,1.21-.54,.08Z"/><polygon class="cls-5" points="62.54 98.45 62.54 98.45 63 98.36 62.6 95.5 62.13 95.55 62.05 95.04 63.66 94.81 63.73 95.3 63.39 95.36 63.58 96.68 64.58 95.2 64.21 95.23 64.14 94.74 65.75 94.51 65.82 95.02 65.51 95.08 64.46 96.6 65.98 97.95 66.31 97.91 66.38 98.42 64.72 98.66 64.65 98.16 65.01 98.1 63.6 96.85 63.81 98.27 64.15 98.24 64.22 98.73 62.61 98.96 62.54 98.45"/><polygon class="cls-5" points="69.72 96.5 69.72 96.5 69.64 96.18 68.78 96.3 68.95 97.48 70.08 97.32 70.04 96.84 70.58 96.76 70.73 97.8 67.76 98.22 67.69 97.71 68.16 97.62 67.75 94.77 67.28 94.81 67.21 94.3 70.17 93.88 70.32 94.89 69.77 94.97 69.68 94.53 68.55 94.69 68.71 95.78 69.56 95.66 69.55 95.33 70.04 95.26 70.21 96.43 69.72 96.5"/><path class="cls-5" d="M72.33,97.57h0l-.07-.51,.46-.09-.41-2.86-.47,.04-.07-.51,1.52-.22,1.43,1.9c.25,.33,.47,.67,.69,1.04h.02c-.1-.39-.19-.8-.24-1.11l-.22-1.54-.44,.05-.07-.5,1.56-.22,.07,.51-.42,.08,.48,3.39-1.04,.15-1.43-1.89c-.25-.33-.47-.67-.69-1.04h-.02c.1,.39,.19,.8,.24,1.11l.22,1.54,.44-.05,.07,.5-1.6,.23Z"/></g><path class="cls-5" d="M67.49,74.57c.33-.05,.61,.02,.84,.2,.48,.36,.79,1.2,1.01,2.69l4.58-1.13c-.36-2.46-1.13-4.1-2.35-5.02-1.05-.79-2.43-1.05-4.23-.79-1.97,.28-3.53,1.07-4.53,2.28-1.03,1.25-1.43,2.93-1.15,4.86,.57,3.93,3.3,4.99,5.72,5.93h.03c1.79,.67,3.34,1.25,3.58,2.9,.07,.51,.04,.89-.11,1.17-.15,.28-.41,.46-.79,.51-1.26,.18-1.92-.67-2.31-3.03l-4.74,1.22c-.08,.02-.17-.02-.2-.1l-5.1-13.54-6.33,.91-1.08,17.89c0,.07-.06,.14-.13,.15-.07,.02-.15-.02-.18-.09l-3.71-7.05s-.02-.07-.02-.11l2.73-13.02-5.39,.76-1.3,9.06c-.01,.07-.07,.13-.14,.14l-.14,.02c-.07,0-.14-.03-.17-.1l-2.75-5.94-27.26,3.85,.6,4.19,3.45-.49c.09-.01,.17,.05,.19,.14l2.3,16.39,4.74-.67-2.3-16.38s0-.09,.03-.12c.03-.04,.07-.06,.11-.07l2.96-.42c.09-.01,.18,.05,.19,.14l2.3,16.38,9.95-1.4s.02,0,.02,0c.05,0,.09,.02,.12,.05,.04,.04,.05,.09,.04,.15l-1,5.19,5.94-.79,1.4-12.44c0-.08,.07-.14,.14-.15l.12-.02c.07,0,.15,.03,.18,.1l2.88,6.54,8.84-1.25,.07-4.24c0-.08,.06-.15,.14-.16l3.43-.49c.08-.01,.16,.04,.18,.11l1.27,4.07,5.13-.73-.66-1.86c-.03-.07,0-.16,.07-.2,.07-.04,.15-.03,.21,.02,1.23,1.23,3.03,1.65,5.48,1.3,3.94-.57,5.86-3.23,5.28-7.29-.55-3.82-3.52-5.01-5.91-5.97l-.32-.13c-1.61-.69-2.67-1.25-2.88-2.7-.05-.36,0-.67,.14-.92,.16-.28,.45-.45,.82-.51Zm-28.48,11.11l-1.4,6.55c-.01,.07-.07,.12-.14,.13l-6.77,.95s-.02,0-.02,0c-.04,0-.07-.01-.1-.03-.04-.03-.06-.07-.07-.11l-.56-3.96s0-.09,.03-.12,.07-.06,.11-.07l4.76-.68-.59-4.08-4.74,.68s-.09,0-.12-.03-.06-.07-.07-.11l-.5-3.56s0-.09,.03-.12,.07-.06,.11-.07l6.81-.96c.07,0,.14,.02,.17,.08l3.05,5.37s.03,.08,.02,.12Zm18.51-.29s-.07,.07-.12,.07l-2.04,.29s-.02,0-.02,0c-.04,0-.08-.01-.11-.04-.04-.03-.06-.08-.06-.13l-.05-7.1c0-.08,.06-.15,.14-.17l.17-.02c.08-.01,.16,.04,.18,.12l1.93,6.84s0,.1-.02,.14Z"/><g><path class="cls-5" d="M73.8,70.72l-.32,.05,.18,1.23-.3,.04-.18-1.23-.32,.05-.04-.24,.94-.14,.04,.24Z"/><path class="cls-5" d="M74.33,70.4l.36,1.01h0s.06-1.07,.06-1.07l.44-.06,.21,1.47-.27,.04-.17-1.17h0s-.09,1.21-.09,1.21l-.23,.03-.43-1.13h0s.17,1.17,.17,1.17l-.27,.04-.21-1.47,.44-.06Z"/></g><g><polygon class="cls-6" points="42.91 63.24 35.3 70.72 39.38 70.13 41.29 73.79 42.91 63.24"/><polygon class="cls-6" points="39.56 65.88 36.31 64.22 37.98 67.44 39.56 65.88"/><polygon class="cls-6" points="42.72 67.5 42.38 69.7 45.98 69.17 42.72 67.5"/></g></g><polyline class="cls-4" points="99.08 16.82 86.01 45.87 86.01 126.08"/><polyline class="cls-4" points="113.11 127.19 100.08 114.16 87.99 126.25"/><line class="cls-4" x1=".75" y1="45.87" x2="84.32" y2="45.87"/><line class="cls-4" x1="15.29" y1="14.6" x2="98.86" y2="14.6"/><line class="cls-4" x1="114.16" y1="45.87" x2="114.16" y2="120.12"/><line class="cls-3" x1="100.08" y1="46.76" x2="100.08" y2="110.15"/></svg>