<svg xmlns="http://www.w3.org/2000/svg" width="200.5" height="174.595" viewBox="0 0 200.5 174.595"><g transform="translate(0 -0.417)"><circle cx="31.238" cy="31.238" r="31.238" transform="translate(124.799 0.417)" fill="#f8e7e7"/><g transform="translate(0.199 38.432)"><path d="M4.557,80.182c.285.507.577,1.008.88,1.5H84.007c.3-.491.595-.992.88-1.5Z" transform="translate(1.335 -11.578)" fill="#f8e7e7"/><path d="M8.089,85.315q.634.764,1.3,1.5H77.677q.666-.736,1.3-1.5Z" transform="translate(2.524 -9.849)" fill="#f8e7e7"/><path d="M6.152,82.749c.348.507.7,1.008,1.069,1.5H81.148c.366-.491.722-.992,1.068-1.5Z" transform="translate(1.872 -10.713)" fill="#f8e7e7"/><path d="M1.386,72.485c.139.5.283,1,.438,1.5H89.757c.155-.5.3-1,.438-1.5Z" transform="translate(0.267 -14.169)" fill="#f8e7e7"/><path d="M2.2,75.051q.275.756.575,1.5H88.254q.3-.744.575-1.5Z" transform="translate(0.542 -13.305)" fill="#f8e7e7"/><path d="M3.251,77.616c.23.507.471,1.005.719,1.5H86.353c.249-.5.489-.994.72-1.5Z" transform="translate(0.895 -12.441)" fill="#f8e7e7"/><path d="M10.45,87.881q.78.768,1.6,1.5h61.38q.818-.732,1.6-1.5Z" transform="translate(3.319 -8.986)" fill="#f8e7e7"/><path d="M22.5,95.579a45.2,45.2,0,0,0,4.763,1.5H50.1a45.407,45.407,0,0,0,4.763-1.5Z" transform="translate(7.375 -6.394)" fill="#f8e7e7"/><path d="M.149,63.681v.039H92.263v-.039c0-.489-.009-.976-.025-1.461H.174C.16,62.705.149,63.192.149,63.681Z" transform="translate(-0.149 -17.625)" fill="#f8e7e7"/><path d="M49.279,30.363a46.354,46.354,0,0,0-23.442,0Z" transform="translate(8.499 -28.857)" fill="#f8e7e7"/><path d="M13.368,90.448q.992.776,2.028,1.5H68.117q1.035-.724,2.028-1.5Z" transform="translate(4.301 -8.121)" fill="#f8e7e7"/><path d="M17.131,93.012q1.347.794,2.752,1.5H61.093q1.406-.706,2.752-1.5Z" transform="translate(5.568 -7.258)" fill="#f8e7e7"/><path d="M.784,69.919c.1.5.2,1,.314,1.5H90.885q.17-.744.314-1.5Z" transform="translate(0.065 -15.033)" fill="#f8e7e7"/><path d="M10.424,39.126q-.724.734-1.416,1.5H77.436q-.69-.766-1.414-1.5Z" transform="translate(2.834 -25.4)" fill="#f8e7e7"/><path d="M4.541,46.825c-.27.493-.529.994-.781,1.5H86.22c-.251-.5-.511-1.005-.779-1.5Z" transform="translate(1.067 -22.808)" fill="#f8e7e7"/><path d="M6.136,44.259q-.493.74-.957,1.5H83.847c-.309-.507-.63-1.005-.957-1.5Z" transform="translate(1.544 -23.672)" fill="#f8e7e7"/><path d="M.386,67.353q.086.754.2,1.5H91.668c.075-.5.139-1,.2-1.5Z" transform="translate(-0.069 -15.897)" fill="#f8e7e7"/><path d="M8.071,41.692q-.6.738-1.162,1.5H80.951q-.565-.762-1.162-1.5Z" transform="translate(2.127 -24.536)" fill="#f8e7e7"/><path d="M22.352,31.428q-1.674.688-3.28,1.5H60.6q-1.6-.812-3.279-1.5Z" transform="translate(6.222 -27.991)" fill="#f8e7e7"/><path d="M17.071,33.994q-1.159.718-2.271,1.5H67.747q-1.111-.782-2.271-1.5Z" transform="translate(4.784 -27.128)" fill="#f8e7e7"/><path d="M13.334,36.561q-.9.728-1.754,1.5H73.136q-.858-.772-1.754-1.5Z" transform="translate(3.699 -26.263)" fill="#f8e7e7"/><path d="M.774,57.089q-.136.746-.249,1.5H91.632c-.075-.5-.158-1-.249-1.5Z" transform="translate(-0.022 -19.352)" fill="#f8e7e7"/><path d="M.376,59.655Q.3,60.4.242,61.153H92.107q-.054-.754-.134-1.5Z" transform="translate(-0.118 -18.488)" fill="#f8e7e7"/><path d="M3.239,49.391c-.219.5-.43.994-.632,1.5H88.15q-.3-.756-.632-1.5Z" transform="translate(0.679 -21.944)" fill="#f8e7e7"/><path d="M.183,64.786c.021.5.048,1,.084,1.5H92.122c.037-.5.063-1,.084-1.5Z" transform="translate(-0.138 -16.761)" fill="#f8e7e7"/><path d="M1.375,54.523q-.2.744-.368,1.5H90.828q-.172-.754-.369-1.5Z" transform="translate(0.14 -20.216)" fill="#f8e7e7"/><path d="M2.192,51.957c-.172.5-.341,1-.5,1.5H89.677c-.156-.5-.325-1-.5-1.5Z" transform="translate(0.371 -21.08)" fill="#f8e7e7"/></g><g transform="translate(7.921 4.594)"><g transform="translate(32.019)"><path d="M142.753,64.815a54.736,54.736,0,1,1-4.315-21.372A54.562,54.562,0,0,1,142.753,64.815Zm-109.465,0A54.559,54.559,0,1,0,87.847,10.257,54.621,54.621,0,0,0,33.288,64.815Z" transform="translate(-28.85 -1.398)" fill="#06065c"/><path d="M33.916,33.559c1.168.583,2.513,1.232,4,1.935,1.362.647,2.839,1.337,4.4,2.06,16.494,7.623,42.517,18.8,42.517,18.8L63.647,14.972l-2.215-4.325L59.412,6.7A55.981,55.981,0,0,0,33.916,33.559Z" transform="translate(-28.521 -2.48)" fill="#eaac50"/><path d="M89.686,5.7A55.731,55.731,0,1,1,38.771,38.683c1.168.581,2.513,1.232,4,1.935a51.134,51.134,0,0,0-4.414,20.855c0,19.018,11.18,32.817,26.548,41.685,7.541,4.352,15.455,9.649,24.786,9.649,14.459,0,25.314-7.916,34.645-17.536,8.964-9.242,16.687-19.908,16.687-33.8,0-17.212-9.6-29.276-22.6-38.588C110,16.858,100.824,10.138,89.686,10.138a51.1,51.1,0,0,0-23.4,5.631l-2.022-3.95A55.519,55.519,0,0,1,89.686,5.7Z" transform="translate(-28.521 -2.815)" fill="#eaac50"/><path d="M36.9,34.5c1.362.647,2.839,1.337,4.4,2.06,16.494,7.623,42.517,18.8,42.517,18.8L62.641,13.977,60.426,9.652A51.523,51.523,0,0,0,36.9,34.5Z" transform="translate(-27.515 -1.485)" fill="#e54750"/><path d="M88.568,9.021c11.138,0,20.316,6.718,28.729,12.746,13,9.313,22.6,21.376,22.6,38.588,0,13.892-7.723,24.557-16.687,33.8-9.33,9.62-20.186,17.536-34.645,17.536-9.333,0-17.246-5.3-24.786-9.649C48.415,93.172,37.235,79.374,37.235,60.356A51.134,51.134,0,0,1,41.649,39.5c1.362.646,2.84,1.337,4.4,2.058A46.457,46.457,0,1,0,67.386,18.978l-2.214-4.325A51.09,51.09,0,0,1,88.568,9.021Z" transform="translate(-27.404 -1.697)" fill="#e54750"/><path d="M87.345,12.656a46.44,46.44,0,1,1-42.518,27.68c16.494,7.623,42.517,18.8,42.517,18.8L66.161,17.754A46.272,46.272,0,0,1,87.345,12.656Z" transform="translate(-26.18 -0.474)" fill="#eaac50"/><path d="M61.532,12.888,82.716,54.266S56.693,43.094,40.2,35.47A46.644,46.644,0,0,1,61.532,12.888Z" transform="translate(-26.406 -0.396)" fill="#eaac50"/><path d="M67.861,23.019l-.535-.432a12.432,12.432,0,0,1,4.984-3.153c3.224-1.268,8.941-2.516,17.866-1.254l-.1.68c-8.735-1.234-14.314-.033-17.458,1.19A12.133,12.133,0,0,0,67.861,23.019Z" transform="translate(-17.273 1.209)" fill="#70c6b7"/><g transform="translate(50.677 12.48)"><path d="M85.088,18.079s-.627,10.1-10.239,9.612C74.849,27.691,75.4,21.336,85.088,18.079Z" transform="translate(-65.417 -11.128)" fill="#70c6b7"/><path d="M80.035,19.6s-6.776-1.143-8.353-6.722C71.682,12.879,77.6,12.679,80.035,19.6Z" transform="translate(-66.484 -12.879)" fill="#70c6b7"/><path d="M73.123,18.917S75.971,24.7,69,28.716C69,28.716,67.017,23.635,73.123,18.917Z" transform="translate(-67.49 -10.846)" fill="#70c6b7"/><g transform="translate(0 1.244)"><path d="M84.482,18.376l-.009.155a13.519,13.519,0,0,1-1.529,5.034,9,9,0,0,1-3.105,3.366,9.685,9.685,0,0,1-5.716,1.311l-.108-.005.009-.108a8.432,8.432,0,0,1,1.505-3.634c1.24-1.834,3.773-4.376,8.8-6.068ZM74.246,28.037c3.882.166,6.746-1.371,8.511-4.567a13.376,13.376,0,0,0,1.493-4.795c-4.869,1.671-7.33,4.138-8.54,5.924A8.79,8.79,0,0,0,74.246,28.037Z" transform="translate(-65.698 -12.272)" fill="#06065c"/><path d="M79.108,20.769l-.175-.029a13.813,13.813,0,0,1-3.614-1.281A9.178,9.178,0,0,1,70.5,13.942l-.036-.128.134,0a8.052,8.052,0,0,1,3.312.775A9.84,9.84,0,0,1,79.052,20.6Zm-8.37-6.75a9.031,9.031,0,0,0,4.676,5.256A14.043,14.043,0,0,0,78.791,20.5a9.591,9.591,0,0,0-4.971-5.725A8.231,8.231,0,0,0,70.738,14.019Z" transform="translate(-66.894 -13.809)" fill="#06065c"/><path d="M74.947,22.8c0,.19-.007.386-.024.588-.147,1.8-1.087,4.391-4.728,6.487l-.106.06-.044-.112a6.736,6.736,0,0,1-.234-3.183c.247-1.716,1.21-4.277,4.391-6.737l.1-.079.056.115A6.978,6.978,0,0,1,74.947,22.8ZM70.2,29.63c2.747-1.615,4.308-3.773,4.514-6.249a7.168,7.168,0,0,0-.489-3.231c-3.042,2.391-3.969,4.861-4.206,6.52A6.924,6.924,0,0,0,70.2,29.63Z" transform="translate(-67.141 -11.785)" fill="#06065c"/><path d="M89.986,18.944l-.031.206c-13.087-2.034-21.143,4.157-22.02,4.869l-.011.008-.131-.163.009-.008C68.686,23.138,76.81,16.894,89.986,18.944Z" transform="translate(-67.793 -12.219)" fill="#06065c"/></g></g><path d="M74.154,35.149s-3.907,5.139,0,7.865,5.671-.778,4.7-2.028-1.688-2.109-.585-2.117,3.642,7.4,8.215,6.293,3.531-4.724,1.418-5.694-7.524-1.683-7.636-3.1.67-1.667,1.874-.835,3.193-.416,2.124-2.558S75.772,29.533,74.154,35.149Z" transform="translate(-15.559 5.751)" fill="#fff"/><path d="M73.942,71.352s6.441.436,6.567-4.328-3.771-4.309-4.279-2.807-.833,2.569-1.448,1.652,4.177-7.115.735-10.324-5.887-.35-5.534,1.949S72.719,64.7,71.6,65.571s-1.759.36-1.728-1.105-2.1-2.435-3.3-.364S68.362,73.093,73.942,71.352Z" transform="translate(-17.617 13.483)" fill="#fff"/><g transform="translate(73.759 24.251)"><circle cx="8.93" cy="8.93" r="8.93" transform="translate(0 0)" fill="#e54750"/><g transform="translate(1.49 1.5)"><ellipse cx="0.914" cy="2.042" rx="0.914" ry="2.042" transform="translate(0 5.162)" fill="#fff"/><path d="M88.44,31.553a1.191,1.191,0,0,0-.249,1.641,1.81,1.81,0,0,0,1.743.952c1.073-.215.8-1.775.606-2.509a.534.534,0,0,0-.5-.4,2.92,2.92,0,0,0-1.58.3Z" transform="translate(-85.572 -19.969)" fill="#fff"/><ellipse cx="1.144" cy="1.655" rx="1.144" ry="1.655" transform="translate(5.152)" fill="#fff"/><ellipse cx="0.88" cy="1.125" rx="0.88" ry="1.125" transform="translate(8.29 15.274) rotate(-104.513)" fill="#fff"/><ellipse cx="0.557" cy="0.712" rx="0.557" ry="0.712" transform="translate(2.011 4.03) rotate(-104.46)" fill="#fff"/><ellipse cx="0.557" cy="0.711" rx="0.557" ry="0.711" transform="translate(9.589 11.599) rotate(-104.46)" fill="#fff"/><ellipse cx="0.556" cy="0.712" rx="0.556" ry="0.712" transform="translate(13.963 11.846) rotate(-166.745)" fill="#fff"/><ellipse cx="0.905" cy="1.159" rx="0.905" ry="1.159" transform="matrix(-0.842, -0.54, 0.54, -0.842, 9.843, 4.767)" fill="#fff"/><ellipse cx="1.69" cy="1.198" rx="1.69" ry="1.198" transform="translate(9.153 6.571)" fill="#fff"/><ellipse cx="1.198" cy="1.69" rx="1.198" ry="1.69" transform="translate(4.196 7.144) rotate(-29.988)" fill="#fff"/><path d="M95.648,25.059a1.171,1.171,0,0,0-.417,1.429c.454,1.093,1.468,3.133,2.362,2.187C98.628,27.579,97.091,24.11,95.648,25.059Z" transform="translate(-83.159 -22.104)" fill="#fff"/></g></g><g transform="translate(62.043 55.142)"><circle cx="8.93" cy="8.93" r="8.93" fill="#e54750"/><g transform="translate(1.488 1.5)"><ellipse cx="0.916" cy="2.042" rx="0.916" ry="2.042" transform="translate(0 5.162)" fill="#fff"/><path d="M79.674,54.663a1.194,1.194,0,0,0-.249,1.641,1.812,1.812,0,0,0,1.744.95c1.073-.214.8-1.775.606-2.508a.534.534,0,0,0-.505-.4,2.918,2.918,0,0,0-1.579.3Z" transform="translate(-76.804 -43.079)" fill="#fff"/><ellipse cx="1.144" cy="1.655" rx="1.144" ry="1.655" transform="translate(5.153)" fill="#fff"/><ellipse cx="0.881" cy="1.127" rx="0.881" ry="1.127" transform="translate(8.279 15.27) rotate(-104.471)" fill="#fff"/><ellipse cx="0.556" cy="0.712" rx="0.556" ry="0.712" transform="translate(2.018 4.027) rotate(-104.466)" fill="#fff"/><ellipse cx="0.556" cy="0.712" rx="0.556" ry="0.712" transform="matrix(-0.249, -0.969, 0.969, -0.249, 9.588, 11.596)" fill="#fff"/><ellipse cx="0.556" cy="0.712" rx="0.556" ry="0.712" transform="matrix(-0.974, -0.229, 0.229, -0.974, 13.967, 11.853)" fill="#fff"/><ellipse cx="0.905" cy="1.159" rx="0.905" ry="1.159" transform="matrix(-0.842, -0.54, 0.54, -0.842, 9.846, 4.765)" fill="#fff"/><ellipse cx="1.69" cy="1.198" rx="1.69" ry="1.198" transform="translate(9.155 6.571)" fill="#fff"/><ellipse cx="1.198" cy="1.691" rx="1.198" ry="1.691" transform="translate(4.196 7.142) rotate(-29.988)" fill="#fff"/><path d="M86.881,48.169a1.172,1.172,0,0,0-.416,1.429c.454,1.093,1.468,3.134,2.361,2.187C89.862,50.689,88.325,47.22,86.881,48.169Z" transform="translate(-74.391 -45.214)" fill="#fff"/></g></g><g transform="translate(28.057 29.365)"><circle cx="6.789" cy="6.789" r="6.789" fill="#e54750"/><g transform="translate(1.131 1.14)"><ellipse cx="0.696" cy="1.552" rx="0.696" ry="1.552" transform="translate(0 3.926)" fill="#fff"/><path d="M53.439,33.013a.908.908,0,0,0-.19,1.248,1.38,1.38,0,0,0,1.326.723c.814-.163.607-1.35.46-1.907a.407.407,0,0,0-.385-.3,2.22,2.22,0,0,0-1.2.23Z" transform="translate(-51.256 -24.207)" fill="#fff"/><ellipse cx="0.87" cy="1.258" rx="0.87" ry="1.258" transform="translate(3.918)" fill="#fff"/><ellipse cx="0.67" cy="0.855" rx="0.67" ry="0.855" transform="matrix(-0.25, -0.968, 0.968, -0.25, 6.3, 11.617)" fill="#fff"/><ellipse cx="0.424" cy="0.541" rx="0.424" ry="0.541" transform="translate(1.53 3.061) rotate(-104.466)" fill="#fff"/><ellipse cx="0.422" cy="0.541" rx="0.422" ry="0.541" transform="translate(7.292 8.81) rotate(-104.477)" fill="#fff"/><ellipse cx="0.424" cy="0.541" rx="0.424" ry="0.541" transform="translate(10.623 9.009) rotate(-166.756)" fill="#fff"/><ellipse cx="0.688" cy="0.881" rx="0.688" ry="0.881" transform="translate(7.49 3.629) rotate(-147.364)" fill="#fff"/><ellipse cx="1.285" cy="0.91" rx="1.285" ry="0.91" transform="translate(6.96 4.995)" fill="#fff"/><ellipse cx="0.91" cy="1.285" rx="0.91" ry="1.285" transform="matrix(0.866, -0.5, 0.5, 0.866, 3.2, 5.427)" fill="#fff"/><path d="M58.919,28.075a.889.889,0,0,0-.317,1.087c.346.831,1.115,2.382,1.8,1.663C61.184,29.992,60.015,27.355,58.919,28.075Z" transform="translate(-49.422 -25.829)" fill="#fff"/></g></g><g transform="translate(28.208 61.521)"><circle cx="8.929" cy="8.929" r="8.929" fill="#e54750"/><g transform="translate(1.486 1.498)"><ellipse cx="0.916" cy="2.042" rx="0.916" ry="2.042" transform="translate(0 5.164)" fill="#fff"/><path d="M54.361,59.434a1.193,1.193,0,0,0-.249,1.641,1.815,1.815,0,0,0,1.744.953c1.072-.215.8-1.775.606-2.509a.535.535,0,0,0-.505-.4,2.918,2.918,0,0,0-1.579.3A.2.2,0,0,0,54.361,59.434Z" transform="translate(-51.49 -47.851)" fill="#fff"/><ellipse cx="1.146" cy="1.655" rx="1.146" ry="1.655" transform="translate(5.152)" fill="#fff"/><ellipse cx="0.881" cy="1.127" rx="0.881" ry="1.127" transform="translate(8.282 15.272) rotate(-104.471)" fill="#fff"/><ellipse cx="0.556" cy="0.712" rx="0.556" ry="0.712" transform="translate(2.017 4.029) rotate(-104.466)" fill="#fff"/><ellipse cx="0.556" cy="0.712" rx="0.556" ry="0.712" transform="translate(9.594 11.598) rotate(-104.466)" fill="#fff"/><ellipse cx="0.556" cy="0.712" rx="0.556" ry="0.712" transform="translate(13.968 11.847) rotate(-166.745)" fill="#fff"/><ellipse cx="0.906" cy="1.159" rx="0.906" ry="1.159" transform="matrix(-0.842, -0.539, 0.539, -0.842, 9.848, 4.771)" fill="#fff"/><ellipse cx="1.691" cy="1.198" rx="1.691" ry="1.198" transform="translate(9.153 6.571)" fill="#fff"/><ellipse cx="1.198" cy="1.69" rx="1.198" ry="1.69" transform="translate(4.21 7.142) rotate(-29.998)" fill="#fff"/><path d="M61.568,52.941a1.171,1.171,0,0,0-.417,1.429c.454,1.093,1.468,3.133,2.362,2.187C64.548,55.462,63.011,51.993,61.568,52.941Z" transform="translate(-49.077 -49.985)" fill="#fff"/></g></g><path d="M102.427,29.882a8.957,8.957,0,1,1-8.957-8.957A8.967,8.967,0,0,1,102.427,29.882Zm-17.705,0a8.749,8.749,0,1,0,8.748-8.748A8.759,8.759,0,0,0,84.722,29.882Z" transform="translate(-11.487 2.31)" fill="#06065c"/><path d="M94.417,56.375a8.957,8.957,0,1,1-8.957-8.957A8.966,8.966,0,0,1,94.417,56.375Zm-17.705,0a8.748,8.748,0,1,0,8.748-8.748A8.758,8.758,0,0,0,76.712,56.375Z" transform="translate(-14.184 11.23)" fill="#06065c"/><path d="M67.86,57.131A8.957,8.957,0,1,1,58.9,48.174,8.967,8.967,0,0,1,67.86,57.131Zm-17.705,0A8.748,8.748,0,1,0,58.9,48.383,8.759,8.759,0,0,0,50.155,57.131Z" transform="translate(-23.124 11.484)" fill="#06065c"/><g transform="translate(82.268 35.942)"><path d="M103.673,35.254a44.714,44.714,0,0,1-.438,6.282,42.273,42.273,0,0,1-2.073,8.4,31.183,31.183,0,0,1-3.546,7.183l-.281-.2a30.888,30.888,0,0,0,3.506-7.11,43.947,43.947,0,0,0,2.238-19.339l.345-.035A46.8,46.8,0,0,1,103.673,35.254Z" transform="translate(-89.438 -30.431)" fill="#70c6b7"/><path d="M102.83,45.022s-4.947,6.262-11.4,3.938C91.427,48.961,94.281,43.091,102.83,45.022Z" transform="translate(-91.427 -25.65)" fill="#70c6b7"/><path d="M100.9,42.813s-.528,8.127,4.225,10.136C105.131,52.95,107.875,47.672,100.9,42.813Z" transform="translate(-88.242 -26.262)" fill="#70c6b7"/><path d="M102.842,39.718s-2.723,2.933-5.892,1.175C96.95,40.893,99.756,37.553,102.842,39.718Z" transform="translate(-89.568 -27.55)" fill="#70c6b7"/><path d="M101.749,38.739s.767,5.236,4.781,4.918C106.53,43.657,107.741,39.524,101.749,38.739Z" transform="translate(-87.952 -27.634)" fill="#70c6b7"/><path d="M103.052,34.567s-1.131,3.318-4.924,1.851C98.128,36.418,100.36,33.969,103.052,34.567Z" transform="translate(-89.171 -29.07)" fill="#70c6b7"/><path d="M102.077,34.039a4.654,4.654,0,0,0,4.443,4.018S107.136,34.669,102.077,34.039Z" transform="translate(-87.842 -29.216)" fill="#70c6b7"/></g><g transform="translate(82.42 41.368)"><path d="M103.272,47.269l-.1.13a14.288,14.288,0,0,1-3.308,2.864,9.308,9.308,0,0,1-8.212,1.108l-.108-.039.049-.1a7.9,7.9,0,0,1,2.53-2.733c1.643-1.131,4.537-2.267,8.989-1.26ZM91.835,51.213a9.131,9.131,0,0,0,7.913-1.124A14.353,14.353,0,0,0,102.9,47.4c-4.279-.922-7.062.17-8.65,1.259A8.062,8.062,0,0,0,91.835,51.213Z" transform="translate(-91.541 -30.332)" fill="#06065c"/><path d="M105.6,52.7a6.124,6.124,0,0,1-.544,2.628l-.044.086-.087-.037c-1.977-.835-3.346-2.875-3.958-5.9a18.524,18.524,0,0,1-.331-4.343l.011-.184.152.106c3.633,2.533,4.6,5.186,4.771,6.967C105.59,52.264,105.6,52.489,105.6,52.7Zm-.688,2.445a6.414,6.414,0,0,0,.448-3.113c-.167-1.707-1.091-4.244-4.527-6.694a18.709,18.709,0,0,0,.338,4.1C101.582,51.476,102.566,54.1,104.911,55.149Z" transform="translate(-88.485 -30.968)" fill="#06065c"/><path d="M102.846,42.013l-.082.087a6.436,6.436,0,0,1-1.788,1.27,4.48,4.48,0,0,1-4.231-.074l-.111-.061.082-.1a6.53,6.53,0,0,1,1.821-1.425,3.874,3.874,0,0,1,4.21.231Zm-5.883,1.163a4.2,4.2,0,0,0,3.918.008,6.416,6.416,0,0,0,1.645-1.14,3.607,3.607,0,0,0-3.887-.15A6.479,6.479,0,0,0,96.964,43.176Z" transform="translate(-89.826 -32.233)" fill="#06065c"/><path d="M106.576,45.12a3.414,3.414,0,0,1-.107.882l-.021.07-.071.005a4.049,4.049,0,0,1-4-2.394,8.632,8.632,0,0,1-.9-2.613l-.021-.136.136.017c2.153.282,3.636,1.023,4.4,2.2A3.577,3.577,0,0,1,106.576,45.12Zm-.29.754a3.537,3.537,0,0,0-.46-2.611c-.718-1.1-2.1-1.8-4.112-2.087a8.746,8.746,0,0,0,.851,2.41A3.813,3.813,0,0,0,106.286,45.874Z" transform="translate(-88.201 -32.322)" fill="#06065c"/><path d="M103.039,36.8l-.036.11a3.706,3.706,0,0,1-1.8,1.994,4.073,4.073,0,0,1-3.259-.079l-.142-.055.1-.112c.023-.025,2.3-2.488,5.023-1.883ZM98.167,38.69a3.787,3.787,0,0,0,2.942.028,3.5,3.5,0,0,0,1.649-1.762C100.543,36.538,98.635,38.23,98.167,38.69Z" transform="translate(-89.433 -33.753)" fill="#06065c"/><path d="M106.485,40.023a2.228,2.228,0,0,1-.027.369l-.016.095-.1-.009a4.865,4.865,0,0,1-3.846-2.216,4.723,4.723,0,0,1-.691-1.9l-.012-.128.128.016a5.484,5.484,0,0,1,3.93,1.869A3.206,3.206,0,0,1,106.485,40.023Zm-.219.235a3.022,3.022,0,0,0-.58-2.018,5.2,5.2,0,0,0-3.649-1.764,4.728,4.728,0,0,0,.646,1.683A4.618,4.618,0,0,0,106.265,40.258Z" transform="translate(-88.088 -33.904)" fill="#06065c"/><path d="M103.241,34.5a89.74,89.74,0,0,1-2.311,18.318,78.039,78.039,0,0,1-2.767,9.3c-.111.3-.2.54-.2.584a.1.1,0,0,0-.024-.07l-.078.067V62.8l-.087-.045c-.043-.061-.043-.061.2-.714a87.482,87.482,0,0,0,5.066-27.549Z" transform="translate(-89.451 -34.491)" fill="#06065c"/></g><path d="M89.054,71.926s.18,5.808,3.771,5.385,5.352-.738,5.527-3.168S96.328,73.3,95.9,71.926s3.02-1.8,5.2-.846,5.471-.422,4.567-5.174-9.041,2.216-10.1,1.477-.7-3.237,1.184-3.151,1.141-3.924-2.24-3.926S87.712,65.059,89.054,71.926Z" transform="translate(-10.059 15.569)" fill="#fff"/><g transform="translate(42.433 39.31)"><ellipse cx="4.383" cy="2.806" rx="4.383" ry="2.806" transform="translate(0 7.934) rotate(-64.837)" fill="#06065c"/><path d="M67.288,36.866a4.533,4.533,0,0,1-.682,2.545,3.6,3.6,0,0,1-2.287,1.544l-.041-.275.021.138-.021-.138a3.375,3.375,0,0,0,2.1-1.425c.722-1.1.827-2.66.31-4.634l.269-.071A9.241,9.241,0,0,1,67.288,36.866Z" transform="translate(-60.732 -32.413)" fill="#fff"/></g><g transform="translate(29.314 16.558)"><ellipse cx="3.193" cy="2.044" rx="3.193" ry="2.044" transform="matrix(0.98, 0.2, -0.2, 0.98, 0.82, 0)" fill="#06065c"/><path d="M55.961,19.331a3.311,3.311,0,0,1-1.918-.047,2.616,2.616,0,0,1-1.484-1.355l.187-.076-.094.039.094-.039A2.457,2.457,0,0,0,54.115,19.1a4.168,4.168,0,0,0,3.334-.573l.095.178A6.675,6.675,0,0,1,55.961,19.331Z" transform="translate(-51.558 -15.282)" fill="#fff"/></g><g transform="translate(65.062 82.648)"><ellipse cx="4.704" cy="3.01" rx="4.704" ry="3.01" transform="matrix(0.98, 0.2, -0.2, 0.98, 1.207, 0)" fill="#06065c"/><path d="M84.671,70.381a4.872,4.872,0,0,1-2.826-.07,3.87,3.87,0,0,1-2.187-2l.275-.112-.138.056.138-.056a3.63,3.63,0,0,0,2.018,1.83c1.329.475,2.981.191,4.911-.845l.14.262A9.814,9.814,0,0,1,84.671,70.381Z" transform="translate(-78.183 -64.42)" fill="#fff"/></g><g transform="translate(97.052 66.999)"><ellipse cx="3.691" cy="2.362" rx="3.691" ry="2.362" transform="matrix(-0.043, 0.999, -0.999, -0.043, 5.041, 0.205)" fill="#06065c"/><path d="M103.381,58.471a3.821,3.821,0,0,1-.3-2.2,3.031,3.031,0,0,1,1.275-1.941l.122.2-.06-.1.06.1a2.843,2.843,0,0,0-1.168,1.788,4.817,4.817,0,0,0,1.262,3.7l-.186.142A7.706,7.706,0,0,1,103.381,58.471Z" transform="translate(-102.305 -53.442)" fill="#fff"/></g><g transform="translate(77.079 44.399)"><ellipse cx="2.806" cy="4.383" rx="2.806" ry="4.383" fill="#06065c"/><path d="M91.456,40.455a7.555,7.555,0,0,1-1.232,3.719l-.172-.116c.016-.023,1.528-2.29,1.127-4.339a3.27,3.27,0,0,0-1.472-2.129l.116-.172a3.475,3.475,0,0,1,1.56,2.263A4.115,4.115,0,0,1,91.456,40.455Z" transform="translate(-86.817 -36.536)" fill="#fff"/></g><g transform="translate(40.881 53.341)"><ellipse cx="4.383" cy="2.806" rx="4.383" ry="2.806" transform="translate(6.972 9.776) rotate(-142.692)" fill="#06065c"/><path d="M65.756,46a7.589,7.589,0,0,1,2.212,3.232l-.2.067c-.008-.025-.9-2.6-2.768-3.525a3.268,3.268,0,0,0-2.585-.12l-.067-.2a3.471,3.471,0,0,1,2.746.131A3.851,3.851,0,0,1,65.756,46Z" transform="translate(-59.829 -42.846)" fill="#fff"/></g><g transform="translate(23.962 77.522)"><ellipse cx="4.383" cy="2.806" rx="4.383" ry="2.806" transform="translate(5.204) rotate(68.026)" fill="#06065c"/><path d="M49.942,67.18a7.568,7.568,0,0,1-.25-3.908l.2.043c-.005.028-.559,2.695.579,4.444a3.261,3.261,0,0,0,2.161,1.424l-.043.2A3.464,3.464,0,0,1,50.3,67.87,3.753,3.753,0,0,1,49.942,67.18Z" transform="translate(-47.222 -60.955)" fill="#fff"/></g><g transform="translate(40.267 82.123)"><path d="M90.012,76.831a50.776,50.776,0,0,1-13.149.112,39.4,39.4,0,0,1-9.371-2.355,25.9,25.9,0,0,1-7.487-4.255l.158-.172a25.544,25.544,0,0,0,7.425,4.216c4.526,1.772,12.083,3.594,22.392,2.224Z" transform="translate(-60.005 -63.237)" fill="#70c6b7"/><path d="M79.513,77.232s-8-1.1-8.988-7.6C70.525,69.634,76.849,68.26,79.513,77.232Z" transform="translate(-56.463 -63.44)" fill="#70c6b7"/><path d="M74.391,75.04s-2.8,6.657-10.268,2.608C64.123,77.647,67.114,74.681,74.391,75.04Z" transform="translate(-58.619 -61.605)" fill="#70c6b7"/><path d="M66.443,75.812S60.8,73.946,60.265,64.981C60.265,64.981,66.849,67.553,66.443,75.812Z" transform="translate(-59.917 -64.981)" fill="#70c6b7"/><path d="M79.311,77.144l-.17-.016a15.1,15.1,0,0,1-4.315-1.206c-2.9-1.326-4.6-3.439-4.907-6.113l-.016-.13h.131a10.309,10.309,0,0,1,3.842.9,9.537,9.537,0,0,1,5.388,6.4Zm-9.144-7.227c.345,2.56,1.944,4.51,4.757,5.793a14.99,14.99,0,0,0,4.069,1.167,9.283,9.283,0,0,0-5.2-6.076A10.472,10.472,0,0,0,70.167,69.917Z" transform="translate(-56.672 -63.399)" fill="#06065c"/><path d="M74.982,75.041l-.152.164A11.832,11.832,0,0,1,71.4,77.613a8.68,8.68,0,0,1-8.239-.35l-.088-.052.039-.094c.013-.033.368-.862,2-1.532,1.477-.606,4.351-1.2,9.645-.572ZM63.376,77.117a8.463,8.463,0,0,0,7.921.29,11.942,11.942,0,0,0,3.2-2.191c-5.062-.572-7.825-.011-9.255.569A3.745,3.745,0,0,0,63.376,77.117Z" transform="translate(-58.972 -61.693)" fill="#06065c"/><path d="M66.11,75.991l-.15-.1a10.7,10.7,0,0,1-2.526-2.692,11.352,11.352,0,0,1-1.823-7.964l.025-.19.156.108A11.792,11.792,0,0,1,64.4,67.927a10.642,10.642,0,0,1,1.738,7.884ZM61.816,65.459a11.106,11.106,0,0,0,1.806,7.6,11.257,11.257,0,0,0,2.32,2.529,10.415,10.415,0,0,0-1.727-7.521A11.839,11.839,0,0,0,61.816,65.459Z" transform="translate(-59.501 -64.961)" fill="#06065c"/><path d="M83.944,76.575c-2.637.7-7.2.159-13.577-1.588-4.736-1.3-8.755-2.824-8.8-2.84l.083-.217c.159.06,16.028,6.054,22.23,4.419Z" transform="translate(-59.477 -62.642)" fill="#06065c"/></g><g transform="translate(16.953 20.737)"><g transform="translate(0 0.483)"><path d="M42.563,32.614A33.836,33.836,0,0,1,48.2,25.9a26.354,26.354,0,0,1,5.254-3.725,17.207,17.207,0,0,1,5.4-1.948l.019.154a17.039,17.039,0,0,0-5.352,1.934A29.922,29.922,0,0,0,42.693,32.7Z" transform="translate(-42.563 -19.143)" fill="#70c6b7"/><path d="M44.743,27.307s4.025-3.57,7.742-1.259C52.486,26.049,50.443,29.847,44.743,27.307Z" transform="translate(-41.829 -17.447)" fill="#70c6b7"/><path d="M47.347,25.747s-2.157-4.3,3.128-6.33C50.476,19.417,50.68,22.217,47.347,25.747Z" transform="translate(-41.099 -19.417)" fill="#70c6b7"/><path d="M51.222,21.64s3.39-2.048,8.162,1.564A7.171,7.171,0,0,1,51.222,21.64Z" transform="translate(-39.648 -18.863)" fill="#70c6b7"/></g><path d="M44.9,27.253l.082-.079a10.048,10.048,0,0,1,2.48-1.664,5.118,5.118,0,0,1,5.222.164l.072.048-.056.065a6.851,6.851,0,0,1-2.123,1.553A6.354,6.354,0,0,1,45,27.3Zm7.622-1.5a4.928,4.928,0,0,0-5-.1,9.977,9.977,0,0,0-2.354,1.557,6.2,6.2,0,0,0,5.333,0A7.015,7.015,0,0,0,52.517,25.753Z" transform="translate(-41.778 -17.095)" fill="#06065c"/><path d="M47.205,26.028l-.019-.15a7.951,7.951,0,0,1,.267-2.779A5.786,5.786,0,0,1,51.2,19.079l.064-.023.031.06a2.3,2.3,0,0,1-.091,1.676c-.333,1.012-1.278,2.723-3.89,5.133Zm3.977-6.777A5.63,5.63,0,0,0,47.6,23.138a7.884,7.884,0,0,0-.277,2.568c2.482-2.315,3.4-3.958,3.723-4.934A2.5,2.5,0,0,0,51.182,19.251Z" transform="translate(-41.015 -19.056)" fill="#06065c"/><path d="M51.12,21.51l.116-.031a7.159,7.159,0,0,1,2.458-.112,7.563,7.563,0,0,1,4.824,2.528l.084.095-.123.031a7.793,7.793,0,0,1-2.537.119A7.089,7.089,0,0,1,51.2,21.6Zm7.194,2.39A7.471,7.471,0,0,0,51.4,21.6a6.946,6.946,0,0,0,4.558,2.385A7.979,7.979,0,0,0,58.314,23.9Z" transform="translate(-39.682 -18.296)" fill="#06065c"/><path d="M44.231,29.656c.79-1.636,3.041-3.719,6.687-6.187,2.711-1.837,5.224-3.211,5.249-3.224l.074.136c-.1.055-10.012,5.494-11.87,9.343Z" transform="translate(-42.001 -18.656)" fill="#06065c"/></g><g transform="translate(16.102 47.119)"><path d="M43.57,65.272a45.6,45.6,0,0,1,.7-11.783,35.446,35.446,0,0,1,2.679-8.251,23.181,23.181,0,0,1,4.265-6.445l.143.151a22.988,22.988,0,0,0-4.227,6.395c-1.862,3.946-3.954,10.605-3.352,19.92Z" transform="translate(-41.409 -38.793)" fill="#70c6b7"/><path d="M43.726,55.843s1.476-7.094,7.352-7.587C51.078,48.256,51.925,54,43.726,55.843Z" transform="translate(-41.32 -35.607)" fill="#70c6b7"/><path d="M45.094,51.429s-5.792-2.914-1.712-9.355C43.382,42.074,45.856,44.934,45.094,51.429Z" transform="translate(-41.926 -37.688)" fill="#70c6b7"/><path d="M46.461,44.223s2.013-4.938,10.076-4.876A9.661,9.661,0,0,1,46.461,44.223Z" transform="translate(-40.399 -38.607)" fill="#70c6b7"/><path d="M43.776,55.668l.025-.15a13.535,13.535,0,0,1,1.342-3.792c1.363-2.516,3.36-3.907,5.773-4.023l.116-.005-.007.116A9.234,9.234,0,0,1,49.983,51.2a8.557,8.557,0,0,1-6.056,4.438Zm7.03-7.751c-2.314.152-4.156,1.468-5.48,3.908a13.441,13.441,0,0,0-1.29,3.574,8.34,8.34,0,0,0,5.758-4.291A9.422,9.422,0,0,0,50.806,47.916Z" transform="translate(-41.303 -35.795)" fill="#06065c"/><path d="M45.013,51.957l-.14-.147a10.678,10.678,0,0,1-1.946-3.216,7.8,7.8,0,0,1,.814-7.358l.051-.076.082.04a3.106,3.106,0,0,1,1.251,1.885c.453,1.361.809,3.97-.074,8.674ZM43.857,41.436a7.585,7.585,0,0,0-.739,7.076,10.65,10.65,0,0,0,1.766,3c.819-4.5.484-7.007.053-8.325A3.372,3.372,0,0,0,43.857,41.436Z" transform="translate(-41.78 -37.996)" fill="#06065c"/><path d="M46.325,43.948l.1-.128a9.627,9.627,0,0,1,2.566-2.1,10.191,10.191,0,0,1,7.242-1.15l.168.033-.108.134a10.493,10.493,0,0,1-2.645,2.169,9.552,9.552,0,0,1-7.169,1.077Zm9.694-3.205a10.067,10.067,0,0,0-9.321,3.08,9.357,9.357,0,0,0,6.841-1.089A10.668,10.668,0,0,0,56.019,40.742Z" transform="translate(-40.445 -38.268)" fill="#06065c"/><path d="M43.6,59.854c-.462-2.4.294-6.463,2.247-12.063,1.452-4.164,3.06-7.67,3.076-7.7l.19.087c-.064.139-6.4,13.988-5.308,19.641Z" transform="translate(-41.407 -38.358)" fill="#06065c"/></g><g transform="translate(0)"><path d="M58.12,5.023A39.417,39.417,0,0,0,37.776,21.609a38.124,38.124,0,0,0-4.665,10.915l-.273-.056a38.407,38.407,0,0,1,4.694-11A40.249,40.249,0,0,1,45.2,12.31,39.708,39.708,0,0,1,58.023,4.762Z" transform="translate(-28.884 -3.131)" fill="#06065c"/><path d="M55.162,3.8A39.413,39.413,0,0,0,34.812,20.4a38.061,38.061,0,0,0-4.66,10.906l-.273-.056a38.391,38.391,0,0,1,4.694-11,40.291,40.291,0,0,1,7.67-9.164A39.7,39.7,0,0,1,55.067,3.542Z" transform="translate(-29.88 -3.542)" fill="#06065c"/></g></g><g transform="translate(0 79.324)"><g transform="translate(9.953)"><path d="M184.134,145.855,14.1,146.4,13.867,74.2c-.019-5.7,4.585-10.33,9.723-10.344L173,63.383c6.254-.021,10.886,4.582,10.9,10.278Z" transform="translate(-13.205 -62.72)" fill="#6fc3c4"/><path d="M13.606,147.231l-.234-72.858a11.129,11.129,0,0,1,3.112-7.761,10.224,10.224,0,0,1,7.27-3.247l149.409-.479a11.7,11.7,0,0,1,8.25,3.18,10.69,10.69,0,0,1,3.316,7.758l.234,72.855-.662,0Zm159.6-83.022h-.037l-149.409.477a8.9,8.9,0,0,0-6.32,2.839A9.809,9.809,0,0,0,14.7,74.369l.229,71.532,168.714-.537-.23-71.534a9.387,9.387,0,0,0-2.91-6.809A10.447,10.447,0,0,0,173.205,64.209Z" transform="translate(-13.372 -62.887)" fill="#010060"/></g><g transform="translate(23.445 45.623)"><rect width="144.392" height="37.909" transform="translate(0.663 1.127) rotate(-0.183)" fill="#6fc3c4"/><path d="M23.592,136.718l-.126-39.231.662,0,145.052-.465.126,39.234-.66,0Zm1.2-37.912.116,36.586,143.069-.457-.118-36.589Z" transform="translate(-23.466 -97.019)" fill="#010060"/></g><g transform="translate(24.633 6.366)"><path d="M25.943,70.833a1.65,1.65,0,0,0,.011,3.3A1.65,1.65,0,0,0,25.943,70.833Z" transform="translate(-24.355 -66.577)" fill="#fff"/><path d="M37.057,89.983a1.65,1.65,0,0,0,.011,3.3A1.65,1.65,0,0,0,37.057,89.983Z" transform="translate(-20.613 -60.13)" fill="#fff"/><path d="M50.961,68.459a1.65,1.65,0,0,0,.011,3.3A1.65,1.65,0,0,0,50.961,68.459Z" transform="translate(-15.932 -67.376)" fill="#fff"/><path d="M62.5,89.9a1.651,1.651,0,0,0,.011,3.3A1.651,1.651,0,0,0,62.5,89.9Z" transform="translate(-12.048 -60.157)" fill="#fff"/><path d="M78.7,68.787a1.65,1.65,0,0,0,.011,3.3A1.65,1.65,0,0,0,78.7,68.787Z" transform="translate(-6.594 -67.266)" fill="#fff"/><path d="M92.528,89.6a1.651,1.651,0,0,0,.011,3.3A1.651,1.651,0,0,0,92.528,89.6Z" transform="translate(-1.938 -60.26)" fill="#fff"/><path d="M108.307,67.649a1.65,1.65,0,0,0,.011,3.3A1.65,1.65,0,0,0,108.307,67.649Z" transform="translate(3.374 -67.649)" fill="#fff"/><path d="M120.477,90.967a1.65,1.65,0,0,0,.011,3.3A1.65,1.65,0,0,0,120.477,90.967Z" transform="translate(7.472 -59.799)" fill="#fff"/><path d="M131.669,69.452a1.65,1.65,0,0,0,.011,3.3A1.65,1.65,0,0,0,131.669,69.452Z" transform="translate(11.24 -67.042)" fill="#fff"/></g><path d="M163.2,124.379l-134.7.43a2.786,2.786,0,0,1-2.8-2.778h0a2.787,2.787,0,0,1,2.779-2.8l134.7-.43a2.788,2.788,0,0,1,2.8,2.778h0A2.788,2.788,0,0,1,163.2,124.379Z" transform="translate(0.733 -44.061)" fill="#fff"/><g transform="translate(24.253 46.805)"><path d="M95.747,110.531l-70.012.222a1.631,1.631,0,0,1-1.636-1.627l-.029-9.161A1.634,1.634,0,0,1,25.7,98.327l70.011-.222a1.633,1.633,0,0,1,1.639,1.624l.028,9.163A1.636,1.636,0,0,1,95.747,110.531ZM25.7,98.879a1.084,1.084,0,0,0-1.079,1.085l.029,9.162a1.084,1.084,0,0,0,1.085,1.079l70.011-.225a1.082,1.082,0,0,0,1.079-1.085L96.8,99.733a1.084,1.084,0,0,0-1.085-1.079Z" transform="translate(-24.07 -97.835)" fill="#fff"/><path d="M150.274,110.327l-70.354.227a1.464,1.464,0,0,1-1.466-1.457l-.029-9.5a1.461,1.461,0,0,1,1.457-1.465l70.353-.227A1.464,1.464,0,0,1,151.7,99.36l.031,9.5A1.462,1.462,0,0,1,150.274,110.327ZM79.882,98.678a.914.914,0,0,0-.909.914l.031,9.5a.91.91,0,0,0,.914.909l70.353-.225a.914.914,0,0,0,.909-.914l-.029-9.5a.911.911,0,0,0-.916-.909Z" transform="translate(-5.771 -97.903)" fill="#fff"/></g><g transform="translate(0 30.591)"><path d="M30,143.11l-23.416.076L6.421,92.023A5.7,5.7,0,0,1,12.1,86.306l12.014-.039a5.7,5.7,0,0,1,5.718,5.684Z" transform="translate(-5.759 -85.607)" fill="#6fc3c4"/><path d="M6.092,144.016,5.926,92.192a6.366,6.366,0,0,1,6.341-6.38l12.014-.039H24.3a6.362,6.362,0,0,1,6.361,6.341l.166,51.824ZM24.3,87.092h-.016l-12.014.039a5.043,5.043,0,0,0-5.023,5.054l.162,50.5,22.092-.071-.162-50.5A5.038,5.038,0,0,0,24.3,87.092Z" transform="translate(-5.926 -85.773)" fill="#010060"/></g><g transform="translate(167.679 30.058)"><path d="M155.442,142.71l-23.416.076-.159-49.8a7.069,7.069,0,0,1,7.047-7.091l9.275-.031a7.069,7.069,0,0,1,7.091,7.046Z" transform="translate(-131.205 -85.208)" fill="#6fc3c4"/><path d="M131.534,143.615l-.162-50.456a7.733,7.733,0,0,1,7.707-7.757l9.275-.028h.025a7.733,7.733,0,0,1,7.73,7.707l.162,50.452ZM148.38,86.695h-.021l-9.274.031a6.405,6.405,0,0,0-6.389,6.428l.156,49.133,22.091-.068-.156-49.136a6.41,6.41,0,0,0-6.407-6.388Z" transform="translate(-131.372 -85.374)" fill="#010060"/></g><path d="M8.688,106.433H8.139L8.1,94.091a4.919,4.919,0,0,1,4.9-4.93l9.4-.031a4.919,4.919,0,0,1,4.93,4.9l.04,12.2h-.551l-.039-12.194a4.367,4.367,0,0,0-4.378-4.35L13,89.71a4.369,4.369,0,0,0-4.351,4.378Z" transform="translate(-5.194 -54.051)" fill="#fff"/><path d="M133.924,106.028l-.549,0-.039-12.34a4.92,4.92,0,0,1,4.9-4.931l9.4-.028a4.917,4.917,0,0,1,4.93,4.9l.039,12.194-.549,0-.039-12.194a4.37,4.37,0,0,0-4.378-4.352l-9.4.031a4.369,4.369,0,0,0-4.351,4.378Z" transform="translate(36.969 -54.186)" fill="#fff"/></g><g transform="translate(10.708 50.761)"><path d="M61.534,81.122l.374-1.723s-.063-.718-.374-.577-.505,1.637-.862,2.021S61.288,81.471,61.534,81.122Z" transform="translate(1.771 -28.965)" fill="#e6a9a2"/><path d="M52.313,70.25l3.5,4.489L65.3,84.52l-2.526,3.8L50.368,78.68,47.85,74.739Z" transform="translate(-2.52 -31.844)" fill="#e6a9a2"/><path d="M53.072,103.876l14.4-21.651L54.89,73.073,44.062,91.883Z" transform="translate(-3.795 -30.894)" fill="#fff"/><path d="M44.51,123.9c-.1-.128.457-4.571.457-5.991s5.281-.255,5.281-.255a35.045,35.045,0,0,0,.254,5.738C50.858,124.46,45.627,125.323,44.51,123.9Z" transform="translate(-3.648 -16.036)" fill="#e6a9a2"/><path d="M17.51,72.073s-3.86,7.618-3.556,8.938,14.08,9.861,14.08,9.861l1.1-4.073-7.059-7.414L24.821,75Z" transform="translate(-13.937 -31.231)" fill="#e6a9a2"/><path d="M36.558,71.214,30.364,59.159a8.775,8.775,0,0,0,.953-1.949,13.808,13.808,0,0,0,.442-1.46.93.93,0,0,1,.083-.222c.9-1.734,6.659,1.516,7.686,1.516,1.067,0,.687,2.284,1.448,3.5S36.558,71.214,36.558,71.214Z" transform="translate(-8.407 -36.972)" fill="#e6a9a2"/><path d="M63.427,73.15c0,2.133-5.486,6.2-5.486,6.2l-4.875-3.916L52,99.048c-3.048,5.486-23.766.762-23.766.762,2.742-11.884-.61-24.223-.61-24.223L24.64,80.472c-1.98.914-8.47-3.616-8.47-3.616s4.906-11.326,7.038-14.218c1.493-2.026,6.65-3.557,9.6-4.291,1.264-.315,2.128-.484,2.128-.484l6.4,10.462,4.113-9.649s.95.317,2.243.771c2.506.884,6.294,2.283,6.9,2.886C55.505,63.248,63.427,73.15,63.427,73.15Z" transform="translate(-13.185 -36.014)" fill="#06065c"/><g transform="translate(25.137 100.458)"><path d="M33.776,124.138a26.455,26.455,0,0,0-.464-5.558c-.511-1.627,4.125-1.859,4.82-1.906s1.113.976,1.16,1.833.325,4.1.556,5.631S34.471,125.995,33.776,124.138Z" transform="translate(-32.565 -116.673)" fill="#e6a9a2"/><path d="M38.822,133.344c-.9,1.1-3.912,1.43-5.25.422a1.581,1.581,0,0,1-.544-.7,3.927,3.927,0,0,1-.19-.835,13.156,13.156,0,0,1-.094-1.58c-.021-2.6.405-6.218.489-7.647,0,0-.3-1.624.72-1.762a25.672,25.672,0,0,1,4.636,0c.557.139.557,1.345.789,1.345s.557-.7.6-.974a5.916,5.916,0,0,1,.65,2.258c0,.159.015.386.04.64a15.125,15.125,0,0,0,.283,1.885C41.048,126.669,39.889,132.046,38.822,133.344Z" transform="translate(-32.743 -115.169)" fill="#eaac50"/><path d="M38.094,124.414a5.311,5.311,0,0,0-4.755-.183l-.059-.123a5.443,5.443,0,0,1,4.888.191Z" transform="translate(-32.562 -114.341)" fill="#010060"/><path d="M37.9,125.618a5.3,5.3,0,0,0-4.755-.18l-.059-.123a5.444,5.444,0,0,1,4.888.188Z" transform="translate(-32.627 -113.935)" fill="#010060"/><path d="M37.9,126.823a5.31,5.31,0,0,0-4.755-.183l-.059-.123a5.439,5.439,0,0,1,4.888.191Z" transform="translate(-32.627 -113.53)" fill="#010060"/><path d="M38.8,132.5c-.9,1.1-3.912,1.43-5.25.422-.029-.024-.06-.047-.088-.074a.594.594,0,0,1-.068-.06l-.061-.06c-.015-.016-.029-.031-.044-.049a.619.619,0,0,1-.071-.086.612.612,0,0,1-.055-.076.471.471,0,0,1-.04-.06c-.012-.021-.025-.044-.036-.065a.086.086,0,0,1-.008-.013c-.013-.024-.025-.049-.036-.074s-.025-.055-.036-.083a3.927,3.927,0,0,1-.19-.835,3.942,3.942,0,0,0,4.013.926,4.172,4.172,0,0,0,1.865-2.254,31.631,31.631,0,0,0,1.956-6.393,15.124,15.124,0,0,0,.283,1.885C41.024,125.82,39.865,131.2,38.8,132.5Z" transform="translate(-32.719 -114.32)" fill="#06065c"/><path d="M38.714,128.732a4.172,4.172,0,0,1-1.865,2.254,3.942,3.942,0,0,1-4.013-.926,13.156,13.156,0,0,1-.094-1.58A4.952,4.952,0,0,1,38.714,128.732Z" transform="translate(-32.743 -112.996)" fill="#e54750"/></g><path d="M43.449,53.262a15.737,15.737,0,0,1-.366,2.828c-.11.5-.241.977-.386,1.436a14.936,14.936,0,0,1-2.446,4.8,2.213,2.213,0,0,1-1.746.587A8.946,8.946,0,0,1,32.938,60.6,9.169,9.169,0,0,1,31.86,59.25a14.455,14.455,0,0,1-2.3-7.132,16.5,16.5,0,0,1,.8-5.381,3.046,3.046,0,0,1,.376-.77c3.3-4.869,8.64-2.742,10.278-1.923C42.687,44.881,43.6,49.072,43.449,53.262Z" transform="translate(-8.679 -41.062)" fill="#e6a9a2"/><path d="M49.954,88.191c-4.035-1.854-7.54,3.558-14.142.757a7.019,7.019,0,0,0-1.286-.757c-2.091-.857-7.27-.428-8.946,1.422,0,0-3.427,4.626,0,8.686a14.966,14.966,0,0,0,6.094,4.555l3.756,27.3a6.331,6.331,0,0,0,7.314-.011s.6-23.2.789-29.412a13.117,13.117,0,0,0,5.305,1.885l2.151,27.517s3.636,2.856,6.786-.561c0,0,.863-25.2,1.016-29.9S52,89.129,49.954,88.191Z" transform="translate(-10.53 -25.947)" fill="#e54750"/><path d="M59.93,129.809c-.37.882-1.837,1.71-3.593,1.58-2.556-.188-10.57-2.684-12.563-4a.689.689,0,0,1-.309-.63c.024-.313.064-.8.123-1.358.155-1.468.436-3.4.866-3.767.711-.608,1.524,1.12,2.538,1.12s1.219-1.175,2.032-1.248,1.829-.64,2.641,0c.592.462,3.494,3.386,5.7,5.333a15.821,15.821,0,0,0,2.022,1.6,1.194,1.194,0,0,1,.616.745A1.012,1.012,0,0,1,59.93,129.809Z" transform="translate(-3.997 -14.688)" fill="#eaac50"/><path d="M60.014,128.445a.607.607,0,0,1-.017.1.908.908,0,0,1-.028.107c-.011.033-.024.068-.039.1-.37.882-1.837,1.71-3.593,1.58-2.556-.188-10.57-2.684-12.563-4a.689.689,0,0,1-.309-.63c.024-.313.064-.8.123-1.358a28.348,28.348,0,0,0,9.778,4.106c.628.115,1.2.2,1.73.261,2.763.315,4.2-.071,4.9-.585A.893.893,0,0,1,60.014,128.445Z" transform="translate(-3.997 -13.631)" fill="#06065c"/><path d="M47.5,124.617l-.116-.074c1.645-2.643,4.861-1.8,4.894-1.786l-.036.134C52.205,122.883,49.087,122.064,47.5,124.617Z" transform="translate(-2.678 -14.213)" fill="#010060"/><path d="M48.832,125.424l-.111-.082a4.163,4.163,0,0,1,4.1-1.887l-.031.134A4.033,4.033,0,0,0,48.832,125.424Z" transform="translate(-2.227 -13.949)" fill="#010060"/><path d="M50.343,126.159l-.116-.074a5.066,5.066,0,0,1,2.9-2.049l.029.134A4.912,4.912,0,0,0,50.343,126.159Z" transform="translate(-1.72 -13.736)" fill="#010060"/><path d="M57.086,127.778c-.707.517-2.141.9-4.9.587.7-2.125,1.735-2.75,2.267-2.929a15.821,15.821,0,0,0,2.022,1.6A1.2,1.2,0,0,1,57.086,127.778Z" transform="translate(-1.061 -13.265)" fill="#e54750"/><path d="M43.5,59.448,38.363,70.255H36.3L28.62,58.348c1.264-.315,2.128-.484,2.128-.484l6.4,10.462,4.113-9.649S42.21,58.995,43.5,59.448Z" transform="translate(-8.994 -36.014)" fill="#fff"/><path d="M44.567,43.766c.686-1.371-2.06-3.192-3.884-1.676s-3.961-.3-6.322.3-3.5,2.132-5.118,4.57c-1.561,2.362,1.08,8.684,1.08,8.684s-.434-3.755,1.448-4.038c.91-.138.66.584.66.584a10.673,10.673,0,0,1,.051,3.707c-.381,1.37,1.727,1.8,1.956.736s.229-4.494,1.219-5.484,3.884-.152,5.408-.381c.362-.055.72-.1,1.063-.172a1.124,1.124,0,0,1,1.2.544A3,3,0,0,1,43.74,52.7s.321,0,.422-.863a8.278,8.278,0,0,0-.229-2.079,2.672,2.672,0,0,0,.635-1.121C45.1,46.89,43.882,45.138,44.567,43.766Z" transform="translate(-8.951 -41.518)" fill="#06065c"/><path d="M37.993,58.695a9.354,9.354,0,0,1-4.875-.457,11.67,11.67,0,0,1-2.04-1.155,13.808,13.808,0,0,0,.442-1.46A.93.93,0,0,1,31.6,55.4a8.63,8.63,0,0,0,.823.985A8.939,8.939,0,0,0,37.993,58.695Z" transform="translate(-8.166 -36.843)" fill="#06065c"/><path d="M24.74,71.877l1.422-3L25.451,75.2Z" transform="translate(-10.3 -32.305)" fill="#06065c"/><path d="M44.22,71.88l-1.776-3.453,1.524,6.925Z" transform="translate(-4.34 -32.458)" fill="#06065c"/><path d="M17.2,69.528a24.937,24.937,0,0,0,9.1,4.448L24.363,77.3s-7.084-2.107-8.456-4.367Z" transform="translate(-13.274 -32.087)" fill="#fff"/><path d="M45.635,74.206s5.185-4.7,5.893-6.75l2.537,2.77s-.3,2.955-6.2,6.328Z" transform="translate(-3.266 -32.785)" fill="#fff"/><path d="M37.05,70.25v6.8l3.892,1.627,2.606-1.627v-6.8Z" transform="translate(-6.156 -31.844)" fill="#fff"/><path d="M18.817,74.05,18.69,74c.511-1.234,5.017-12.066,5.937-12.3.9-.229,7.985-2.632,8.056-2.656l.044.13c-.072.024-7.161,2.43-8.067,2.659C24.015,61.992,20.813,69.226,18.817,74.05Z" transform="translate(-12.337 -35.618)" fill="#fff"/><path d="M53.138,70.967c-.059-.071-5.9-7.147-6.9-8.351-.99-1.188-6.713-2.9-6.77-2.911l.039-.134c.237.071,5.82,1.736,6.837,2.955s6.842,8.281,6.9,8.353Z" transform="translate(-5.342 -35.44)" fill="#fff"/><path d="M37.049,55.551v-.138c.011,0,1.109-.005,1.39-.426a10.752,10.752,0,0,0-.011-3.229l.136-.015c.031.291.3,2.856-.011,3.32C38.233,55.546,37.1,55.551,37.049,55.551Z" transform="translate(-6.156 -38.075)" fill="#06065c"/><path d="M35.1,52.556a.9.9,0,0,0,0,1.8A.9.9,0,0,0,35.1,52.556Z" transform="translate(-7.104 -37.801)" fill="#e54750"/><path d="M39.82,52.761c-.11.5-.241.977-.386,1.436A.937.937,0,0,1,39.82,52.761Z" transform="translate(-5.416 -37.732)" fill="#e54750"/><path d="M23.515,87.61l7.857,9.949,28.618-.465-9.01-9.949Z" transform="translate(-10.713 -26.156)" fill="#fff"/><g transform="translate(18.023 60.991)"><ellipse cx="12.869" cy="4.694" rx="12.869" ry="4.694" fill="#d69b52"/><ellipse cx="11.736" cy="4.281" rx="11.736" ry="4.281" transform="translate(1.133 0.413)" fill="#e54750"/><ellipse cx="10.708" cy="3.906" rx="10.708" ry="3.906" transform="translate(2.163 0.789)" fill="#d69b52"/><path d="M31.038,89.39a1.007,1.007,0,0,0-.5.214c-.239.194-.573.509-.429.684.215.263.741-.143.861,0s-.119.477.167.575.646-.167.6-.608.835-.156.406-.611A1.337,1.337,0,0,0,31.038,89.39Z" transform="translate(-26.527 -86.398)" fill="#fff"/><path d="M32.446,89.2a1.205,1.205,0,0,1,1.505-.528C34.931,89.078,32.446,89.2,32.446,89.2Z" transform="translate(-25.729 -86.668)" fill="#6dbdad"/><ellipse cx="1.362" cy="0.635" rx="1.362" ry="0.635" transform="translate(6.717 6.051)" fill="#e54750"/><ellipse cx="1.362" cy="0.635" rx="1.362" ry="0.635" transform="translate(13.478 5.166)" fill="#e54750"/><ellipse cx="1.079" cy="0.501" rx="1.079" ry="0.501" transform="translate(18.383 2.029)" fill="#e54750"/><ellipse cx="1.362" cy="0.632" rx="1.362" ry="0.632" transform="translate(18.283 5.265)" fill="#e54750"/><ellipse cx="1.362" cy="0.635" rx="1.362" ry="0.635" transform="translate(11.399 1.14)" fill="#e54750"/><ellipse cx="0.634" cy="0.251" rx="0.634" ry="0.251" transform="translate(6.142 4.32)" fill="#06065c"/><ellipse cx="0.634" cy="0.251" rx="0.634" ry="0.251" transform="translate(13.49 7.32)" fill="#06065c"/><ellipse cx="0.634" cy="0.251" rx="0.634" ry="0.251" transform="translate(9.441 1.524)" fill="#06065c"/><ellipse cx="0.634" cy="0.251" rx="0.634" ry="0.251" transform="translate(13.86 3.284)" fill="#06065c"/><ellipse cx="0.634" cy="0.251" rx="0.634" ry="0.251" transform="translate(19.011 3.887)" fill="#06065c"/><path d="M33.762,90.257s1.056-.047,1.2-.334-.281-.271.126-.454a.8.8,0,0,1,1.147.65c.072.69-1.055,1.091-1.123.843C34.961,90.424,33.322,90.758,33.762,90.257Z" transform="translate(-25.311 -86.39)" fill="#fff"/><path d="M30.544,90.969a.388.388,0,0,0-.35.509c.084.243.325.529.945.71l1.236.358S31.7,90.912,30.544,90.969Z" transform="translate(-26.495 -85.861)" fill="#6dbdad"/><path d="M36.847,91.547a.952.952,0,0,0-.543-.036c-.422.094-1.285.329-1.23.671.072.454.789-.143.956.191s-.072.932.358,1.052.813-.405.477-.885.742-.191.5-.595A.969.969,0,0,0,36.847,91.547Z" transform="translate(-24.845 -85.686)" fill="#fff"/><path d="M36.128,90.838s1.052-1.255,1.722-.728S36.128,90.838,36.128,90.838Z" transform="translate(-24.49 -86.193)" fill="#6dbdad"/><path d="M41.1,91.676s-1.684.345-1.72.882,1.183.43,1.469,0A1.52,1.52,0,0,0,41.1,91.676Z" transform="translate(-23.394 -85.622)" fill="#6dbdad"/><path d="M44.858,90.034s-1.684.348-1.72.885,1.183.43,1.47,0A1.535,1.535,0,0,0,44.858,90.034Z" transform="translate(-22.13 -86.175)" fill="#6dbdad"/><path d="M39.6,88.292s-.894-.107-.859.251.966.2.859.438-.495.422-.425.638.821.537.892,0,.36-.652.646-.523.753-.052.43-.428S39.6,88.292,39.6,88.292Z" transform="translate(-23.611 -86.767)" fill="#fff"/><path d="M39.382,90.525s1.763-1.112,2.084-.251S39.382,90.525,39.382,90.525Z" transform="translate(-23.394 -86.204)" fill="#6dbdad"/></g><path d="M23.515,87.493V90l7.567,9.481,28.908-.464V96.977l-28.618.465Z" transform="translate(-10.713 -26.039)" fill="#fff"/><path d="M60.065,101.859l-.115-.076L74.315,80.19l-1.123-.817L60.045,99.846h-.036l-28.653.465L23.6,90.492v2.29l1.359,1.7-.108.087-1.389-1.742V90.095l7.959,10.077,28.547-.461L73.155,79.174l1.347.982Z" transform="translate(-10.73 -28.84)" fill="#06065c"/><path d="M45.437,93.159,44,91.924,54.891,73l1.615,1.172-.031.055Zm-1.266-1.264,1.23,1.052L56.324,74.209,54.934,73.2Z" transform="translate(-3.817 -30.919)" fill="#06065c"/><rect width="12.174" height="0.138" transform="translate(52.639 43.214) rotate(36.03)" fill="#06065c"/><path d="M34.869,87.06c-.056-.365-2.218-.811-2.218-.811l-1.569-.46c0-.016,0-.031,0-.047a15.462,15.462,0,0,0,3,.6c.365-.12.608-.162.553-.528s-2.218-.809-2.218-.809L30.4,84.414a5.745,5.745,0,0,0-1.358-.529c.565-.624,2.1-.416,2.577-.561.5-.151.894-.405.565-.684A11.8,11.8,0,0,0,29.1,82.4a1.473,1.473,0,0,0-.481.082l-2.552.869c-.2-.021-.318-.031-.318-.031-2.284.1-1.371,3.961-1.371,3.961a14.12,14.12,0,0,0,4.4,1.514,3.881,3.881,0,0,1,.563.112,18.748,18.748,0,0,0,3.315.682c.365-.123.61-.164.553-.528s-2.218-.811-2.218-.811l-.434-.128c.025-.036.051-.074.075-.11a14.934,14.934,0,0,0,2.91.575c.365-.12.608-.162.553-.528s-2.218-.809-2.218-.809L31.006,87l.016-.086a18.528,18.528,0,0,0,3.3.676C34.68,87.465,34.924,87.424,34.869,87.06Z" transform="translate(-10.484 -27.753)" fill="#e6a9a2"/><path d="M62.534,81.054a6.019,6.019,0,0,0-1.232-.869c-.483-.2-.638-.827-1-.587-.62.41.135,1.143.135,1.143l1.351,1.123-.06.086a5.678,5.678,0,0,0-1.156-.8c-.483-.2-.638-.827-1-.587-.62.413.135,1.143.135,1.143l1.378,1.146-.039.052a5.524,5.524,0,0,0-1.109-.762c-.483-.2-.638-.827-1-.587-.62.41.134,1.143.134,1.143L60.4,83.8l-.049.068a4.1,4.1,0,0,0-.847-.548c-.483-.2-.638-.827-1-.587-.62.41.135,1.142.135,1.142l1.188.989a.327.327,0,0,0,.186.154l.025.021a.043.043,0,0,1,.012-.011c.183.039.488-.027,1-.356C62.284,83.869,63.654,82.042,62.534,81.054Z" transform="translate(0.985 -28.715)" fill="#e6a9a2"/><path d="M20.931,77.564a7.611,7.611,0,0,0-3.582.318,16.812,16.812,0,0,1,4.3.438Z" transform="translate(-12.789 -29.41)" fill="#06065c"/><rect width="5.522" height="0.274" transform="translate(31.513 39.083)" fill="#06065c"/><path d="M58.231,97.471,30.154,98.686l-4.427-6.543,4.61,5.777Z" transform="translate(-9.968 -24.474)" fill="#06065c"/><rect width="29.101" height="0.275" transform="translate(41.137 73.3) rotate(86.784)" fill="#fff"/><rect width="28.451" height="0.275" transform="matrix(0.1, 0.995, -0.995, 0.1, 23.889, 74.042)" fill="#fff"/><path d="M42.118,99.263l2.212-1.809-1.573,1.9Z" transform="translate(-4.45 -22.686)" fill="#06065c"/><path d="M29.039,99.182l1.935-1.728L30,99.594Z" transform="translate(-8.853 -22.686)" fill="#06065c"/><path d="M39.549,49.127l-.108-.084a4.23,4.23,0,0,0,.247-3.462,7.659,7.659,0,0,1,.1-3.193l.134.035a7.51,7.51,0,0,0-.1,3.124A4.358,4.358,0,0,1,39.549,49.127Z" transform="translate(-5.351 -41.225)" fill="#fff"/></g><g transform="translate(102.759 48.652)"><path d="M90.065,98.935s7.154,4.47,22.951,2.83c0,0,1.986-7.866-9.075-8.48S90.959,94.166,90.065,98.935Z" transform="translate(-80.358 -22.024)" fill="#70c6c1"/><g transform="translate(0 70.715)"><path d="M104.364,92.975a10.246,10.246,0,0,0-2.815,4.934c-.464,2.723.811,4.824.728,6.681s-.381,24.011-2.917,28.832a16.47,16.47,0,0,1-2.188,2.981c.885,2.046,6.472,1.3,6.425,0a13.577,13.577,0,0,1,.559-3.347s4.728-13.254,5.673-16.223a33.288,33.288,0,0,0,.644-15.583,2.052,2.052,0,0,1,1.564-2.6C114.2,98.034,113.007,91.876,104.364,92.975Z" transform="translate(-77.965 -92.844)" fill="#e6a9a2"/><path d="M108.836,94.512c-.859-1.715-13.063-1.8-15.07.5,0,0-2.811,1.457-2.812,3.9,0,2.759,1.156,5.075,1.076,6.932s.02,21.745-2.514,26.569a18.48,18.48,0,0,1-2.077,2.292c-.273,1.49,6.068,1.477,6.068.381a9.2,9.2,0,0,1,.608-2.649s4.521-11.38,5.464-14.348a33.272,33.272,0,0,0,.644-15.583,2.053,2.053,0,0,1,1.567-2.6l5.555-.917S109.881,96.6,108.836,94.512Z" transform="translate(-81.245 -92.707)" fill="#e6a9a2"/><path d="M105.76,128.036c0,1.117-8.448,4.059-12.918,1.75a2,2,0,0,1,.083-.92,2.906,2.906,0,0,1,1.732-1.739c2.165-.976,4.05-1.956,4.05-1.956a8.546,8.546,0,0,0,3.144.77c2.164.209,3-1.188,3.351-.77a4.064,4.064,0,0,1,.5,1.819A10.251,10.251,0,0,1,105.76,128.036Z" transform="translate(-79.43 -81.987)" fill="#06065c"/><path d="M105.76,127.558c0,1.117-8.448,4.059-12.918,1.75a2,2,0,0,1,.083-.92,8.621,8.621,0,0,0,3.2.775c2.668.3,7.825-1.75,9.581-2.649A10.209,10.209,0,0,1,105.76,127.558Z" transform="translate(-79.43 -81.508)" fill="#e54750"/><path d="M99,126.515a6.162,6.162,0,0,0-2.6-.862l.015-.136a6.151,6.151,0,0,1,2.673.89Z" transform="translate(-78.226 -81.844)" fill="#e54750"/><path d="M98.46,126.8a9.431,9.431,0,0,0-2.736-.814l.021-.139a9.424,9.424,0,0,1,2.792.838Z" transform="translate(-78.453 -81.734)" fill="#e54750"/><path d="M98.125,127.21a14.978,14.978,0,0,0-3.052-.92l.028-.136a14.638,14.638,0,0,1,3.109.945Z" transform="translate(-78.672 -81.63)" fill="#e54750"/><g transform="translate(0 41.987)"><path d="M95.648,126.627c0,.8-.039,1.493-.039,1.493s-6.52,1.255-7.825,1.208-4.887.235-4.982-1.208a1.225,1.225,0,0,1,.164-.572,2.792,2.792,0,0,1,1.559-1.208c1.77-.687,4.468-2.084,4.468-2.084a11.552,11.552,0,0,0,2.886.666c1.676.172,3.073-1.084,3.491-.48A5.529,5.529,0,0,1,95.648,126.627Z" transform="translate(-82.803 -124.256)" fill="#06065c"/><path d="M95.648,126.03c0,.8-.039,1.493-.039,1.493s-6.52,1.255-7.825,1.208-4.887.235-4.982-1.208a1.225,1.225,0,0,1,.164-.572,6.647,6.647,0,0,0,3.048.851C88.384,128.079,93.992,126.513,95.648,126.03Z" transform="translate(-82.803 -123.659)" fill="#e54750"/><path d="M87.638,126.141c-.4-.71-2.026-.961-2.041-.964l.021-.136c.068.011,1.71.263,2.141,1.033Z" transform="translate(-81.862 -123.992)" fill="#e54750"/><path d="M88.015,125.884c-.4-.712-1.78-.966-1.794-.969l.024-.136c.06.011,1.46.269,1.89,1.036Z" transform="translate(-81.652 -124.08)" fill="#e54750"/><path d="M88.473,125.6c-.4-.712-1.779-.966-1.794-.969l.024-.136c.06.011,1.461.269,1.89,1.036Z" transform="translate(-81.498 -124.177)" fill="#e54750"/></g></g><path d="M133.637,86.115c-7.3-2.981-21.909-.148-23.4-.057s-13.114,5.72-17.3,9.445-2.812,6.261-2.812,6.261c2.235-6.111,7.3-5.662,15.8-4.323a10,10,0,0,1,5.554,2.378h4.609l-3.519,1.46a5.309,5.309,0,0,1,.509,3.315s7.6-1.786,11.775-2.83,8.644-2.684,9.537-5.65S133.637,86.115,133.637,86.115Z" transform="translate(-80.412 -24.853)" fill="#06065c"/><path d="M120.173,57.462s3.338-.158,5.156.737,5,8.843,5.5,10.135,3.975,9.043,4.074,9.934.5,1.788-.9,4.076-9.059,7.924-9.059,7.924l-1.77-2.859s6.36-8.743,6.36-9.041-6.757-12.121-6.757-12.121-2.2,7.949-2.689,9.339-2.775-9.339-2.478-10.929A75.149,75.149,0,0,1,120.173,57.462Z" transform="translate(-71.093 -34.045)" fill="#e6a9a2"/><path d="M109.206,59.837s2.684-.4,3.279-2.385a5.679,5.679,0,0,0,0-3.477s5.663-.6,6.36-1.391c0,0,2.208,5.853,3.279,6.5,0,0-1.49,9.093-5.663,11.28s-6.905,2.185-8.073-.9S109.206,59.837,109.206,59.837Z" transform="translate(-74.313 -35.683)" fill="#e6a9a2"/><path d="M113.568,58.01s-5.041.4-6.134,3.875-5.367,15.1-5.663,16l-9.14,2.485s.751,2.528.851,3.224c0,0,10.176-.246,11.469-1.337s5.96-10.234,5.96-10.234Z" transform="translate(-79.494 -33.856)" fill="#e6a9a2"/><path d="M104.907,96.9S107,85.868,107.591,84.077s-3.227-11.183-2.684-13.261c.7-2.66,4.025-10.582,4.025-12.519l1.9-.13s-2.947,8.924.032,10.86,7.975-1.865,9.464-5.44,2.466-6.429,2.466-6.429l1.66.4s-2.859,8.04-.921,12.958c.242.614,1.986,1.791,2.012,2.459.124,3.347-2.105,9.333-1.714,11.549.446,2.533,4.769,10.879,4.769,10.879S116.681,99.131,104.907,96.9Z" transform="translate(-75.379 -34.143)" fill="#e54750"/><path d="M108.55,44.989s-1.694,3.179-1.794,5.067.8,2.782,0,4.768-.049,3.081,2.16,3.478,3.8-.8,4.1-2.286-2.284-9.24-1.49-10.532S108.55,44.989,108.55,44.989Z" transform="translate(-74.843 -38.322)" fill="#06065c"/><path d="M118.783,56.649a4.669,4.669,0,0,1-1.136.973,9.959,9.959,0,0,1-4.235,1.386h-.005a5.077,5.077,0,0,1-.762.011c-1.665-.116-3-2.469-3.9-6.145a26.691,26.691,0,0,1-.424-7.949c.969-3.676,5.689-5.464,9.862-3.776s3.775,5.466,3.875,7.352S120.076,55.06,118.783,56.649Z" transform="translate(-74.252 -39.748)" fill="#e6a9a2"/><path d="M96.192,90.264,117.581,94.5l10.676-7.948L106.73,83.208Z" transform="translate(-78.295 -25.373)" fill="#fff"/><g transform="translate(23.992 59.829)"><path d="M110.467,84.7a21.541,21.541,0,0,0-6.935,1.024l.519.263a19.5,19.5,0,0,1,6.417-.969c5.025,0,9.1,1.485,9.1,3.318s-4.073,3.32-9.1,3.32c-4.42,0-8.1-1.151-8.925-2.676l-.791.18c1.024,1.613,4.983,2.814,9.716,2.814,5.51,0,9.977-1.629,9.977-3.64S115.977,84.7,110.467,84.7Z" transform="translate(-100.752 -84.7)" fill="#d79c52"/><path d="M110.268,85.23c4.585,0,8.3,1.355,8.3,3.026s-3.716,3.029-8.3,3.029c-4.137,0-7.566-1.1-8.2-2.548l-.728.164c.822,1.525,4.5,2.676,8.925,2.676,5.025,0,9.1-1.485,9.1-3.32s-4.073-3.318-9.1-3.318a19.475,19.475,0,0,0-6.417.969l.473.238A17.533,17.533,0,0,1,110.268,85.23Z" transform="translate(-100.553 -84.619)" fill="#e54750"/><path d="M110.084,91.211c4.585,0,8.3-1.355,8.3-3.029s-3.716-3.026-8.3-3.026a17.636,17.636,0,0,0-5.943.914l2.846,1.441-5.1,1.151C102.517,90.107,105.947,91.211,110.084,91.211Z" transform="translate(-100.369 -84.546)" fill="#d79c52"/></g><g transform="translate(26.58 60.714)"><path d="M104.451,86.288a.932.932,0,0,1,1.167-.408C106.377,86.2,104.451,86.288,104.451,86.288Z" transform="translate(-102.094 -85.214)" fill="#6dbeae"/><ellipse cx="1.056" cy="0.491" rx="1.056" ry="0.491" transform="translate(2.357 3.807)" fill="#e54750"/><ellipse cx="1.056" cy="0.491" rx="1.056" ry="0.491" transform="translate(7.598 3.12)" fill="#e54750"/><ellipse cx="0.835" cy="0.389" rx="0.835" ry="0.389" transform="translate(11.401 0.684)" fill="#e54750"/><ellipse cx="1.056" cy="0.493" rx="1.056" ry="0.493" transform="translate(11.323 3.191)" fill="#e54750"/><ellipse cx="1.056" cy="0.491" rx="1.056" ry="0.491" transform="translate(5.986)" fill="#e54750"/><ellipse cx="0.491" cy="0.195" rx="0.491" ry="0.195" transform="translate(1.912 2.462)" fill="#06065c"/><ellipse cx="0.491" cy="0.194" rx="0.491" ry="0.194" transform="translate(7.607 4.789)" fill="#06065c"/><ellipse cx="0.491" cy="0.194" rx="0.491" ry="0.194" transform="translate(4.467 0.297)" fill="#06065c"/><ellipse cx="0.491" cy="0.195" rx="0.491" ry="0.195" transform="translate(7.896 1.659)" fill="#06065c"/><ellipse cx="0.491" cy="0.194" rx="0.491" ry="0.194" transform="translate(11.887 2.127)" fill="#06065c"/><path d="M105.472,87.11s.818-.036.928-.261-.217-.209.1-.353a.621.621,0,0,1,.889.507c.056.532-.817.846-.869.652C106.4,87.239,105.13,87.5,105.472,87.11Z" transform="translate(-101.77 -84.998)" fill="#fff"/><path d="M102.975,87.661a.3.3,0,0,0-.271.394c.067.191.251.413.734.553l.958.277S103.876,87.616,102.975,87.661Z" transform="translate(-102.688 -84.588)" fill="#6dbeae"/><path d="M107.864,88.11a.716.716,0,0,0-.42-.028c-.329.074-1,.253-.954.52.056.353.611-.11.741.148s-.055.723.279.814.63-.313.37-.684.575-.148.389-.465A.783.783,0,0,0,107.864,88.11Z" transform="translate(-101.409 -84.453)" fill="#fff"/><path d="M107.306,87.561s.815-.974,1.334-.567S107.306,87.561,107.306,87.561Z" transform="translate(-101.133 -84.846)" fill="#6dbeae"/><path d="M111.162,88.209s-1.307.269-1.334.684.918.334,1.14,0A1.182,1.182,0,0,0,111.162,88.209Z" transform="translate(-100.284 -84.404)" fill="#6dbeae"/><path d="M114.073,86.938s-1.307.266-1.334.684.917.334,1.139,0A1.181,1.181,0,0,0,114.073,86.938Z" transform="translate(-99.304 -84.831)" fill="#6dbeae"/><path d="M109.995,85.586s-.694-.083-.666.2.75.151.666.34-.382.326-.329.493.638.417.692,0,.277-.507.5-.405.584-.041.333-.331S109.995,85.586,109.995,85.586Z" transform="translate(-100.452 -85.291)" fill="#fff"/><path d="M109.827,87.316s1.367-.859,1.616-.194S109.827,87.316,109.827,87.316Z" transform="translate(-100.284 -84.854)" fill="#6dbeae"/></g><path d="M96.192,89.422v1.9l21.551,3.928L128.257,87.1v-1.39l-10.676,7.948Z" transform="translate(-78.295 -24.531)" fill="#fff"/><path d="M112.315,94.9l12.733,8.778,8.914-9.06-11.133-7.865Z" transform="translate(-72.867 -24.181)" fill="#fff"/><path d="M117.642,94.59,96.06,90.316l10.7-7.163.028.005,21.687,3.37ZM96.413,90.245l21.194,4.2,10.521-7.832L106.791,83.3Z" transform="translate(-78.34 -25.392)" fill="#06065c"/><path d="M130.5,103.786l-12.767-8.8L96.142,91.047V89.094h.136v1.838l21.467,3.914,10.528-8.16.041.031,11.2,7.91-.057.06Zm-12.623-8.871,12.607,8.691,8.817-8.96-11.026-7.79Z" transform="translate(-78.312 -24.202)" fill="#06065c"/><path d="M109.875,41.243s-1.75-.146-3.145,2.484c-1.359,2.558.96,4.471,3.145,4.868s3.081-1.49,5.166-.894,1.988,2.584,2.882,2.881,1.293,3.776.4,6.26.606,3.573,2.588,3.574,4.169-.2,4.665-2.383-2.284-4.273-.992-7.2-2.088-9.784-5.565-10.58S113.055,40.349,109.875,41.243Z" transform="translate(-74.884 -39.94)" fill="#06065c"/><path d="M116.625,53.93a8.81,8.81,0,0,1-4.525.769,9.959,9.959,0,0,0,4.235-1.386Z" transform="translate(-72.94 -35.438)" fill="#06065c"/><path d="M110.751,52.455a.9.9,0,0,1-.511-.124.375.375,0,0,1-.156-.275,28.257,28.257,0,0,1,.348-3.048l.138.021a29.417,29.417,0,0,0-.349,3.013.24.24,0,0,0,.1.178c.241.176.8.061.81.06l.028.135A2.221,2.221,0,0,1,110.751,52.455Z" transform="translate(-73.62 -36.887)" fill="#06065c"/><path d="M113.367,49.769a.882.882,0,1,0,.881.882A.89.89,0,0,0,113.367,49.769Z" transform="translate(-72.81 -36.631)" fill="#e54750"/><path d="M118.222,73.435a6.112,6.112,0,0,1-5.407-2.653c-.99,2.542-5.467,1.953-5.659,1.926l.02-.136c.047.007,4.718.622,5.559-1.977l.052-.159.076.15c.016.032,1.657,3.2,6.464,2.645l.016.136A9.557,9.557,0,0,1,118.222,73.435Z" transform="translate(-74.604 -29.673)" fill="#06065c"/><path d="M99.468,73.142a7.933,7.933,0,0,1,2.506,2.312,8.6,8.6,0,0,0-2.131-3.37Z" transform="translate(-77.192 -29.118)" fill="#06065c"/><path d="M126.679,73.112a8.35,8.35,0,0,1,3.5.331s-3.088.044-4.114.652Z" transform="translate(-68.238 -28.791)" fill="#06065c"/><path d="M121.705,64.455l-.934-1.687.326,3.87Z" transform="translate(-70.02 -32.255)" fill="#06065c"/><path d="M94.192,75.184s-.577-.055-1.371-.1l-1.8-1.021s-2.291-1.031-2.542-.515.835.553,1.3.851a2.2,2.2,0,0,1,.583.616,4.159,4.159,0,0,0-2.132.368c-.7.7.223,1.78,1.482,2.574s4.479.6,4.479.6S97.668,78.559,94.192,75.184Z" transform="translate(-81.056 -28.674)" fill="#e6a9a2"/><path d="M92.622,77.19l-1.315-.143a1.344,1.344,0,0,0-.091-.658l-.409-.048a.911.911,0,0,0,0-.676.152.152,0,0,0,.082-.044c.194-.258,0-.71,0-.71l-2.252-.246s-1.922-.569-1.95-.115c-.013.233.158.381.382.485-.527-.086-1.037-.107-1.052.14s.176.428.429.548c-.249.008-.42.068-.429.217-.028.444.5.644.97.775-.028.6.886.786,1.436.932s3.942.841,4.2.493S92.622,77.19,92.622,77.19Z" transform="translate(-81.721 -28.347)" fill="#e6a9a2"/><g transform="translate(2.427 42.761)"><path d="M93.695,81.209l-7.757-5.832-.5-.373c3.279-2.631,5.291-2.139,5.291-2.139l.239.671Z" transform="translate(-84.342 -71.629)" fill="#eaac50"/><path d="M91.01,73.167s.708-1.159-.187-1.232-4.4.9-5.737,2.386.634.984.634.984S89.483,72.831,91.01,73.167Z" transform="translate(-84.619 -71.931)" fill="#eaac50"/><path d="M90.971,73.536c-.457.329-1.58.186-2.214.186a3.549,3.549,0,0,0-1.825.819,6.454,6.454,0,0,0-.994.835l-.5-.373c3.279-2.631,5.291-2.139,5.291-2.139Z" transform="translate(-84.341 -71.629)" fill="#e54750"/><path d="M87.946,74.11s-.964.517-.834.835c.267.655.728-.052.834.358s-.269.745.365.781-.3-.707,0-.857S89.368,74.631,87.946,74.11Z" transform="translate(-83.784 -71.198)" fill="#fff"/><path d="M90.3,74.456s-1.727.209-1.206,1.178,1.825.561,1.825.561Z" transform="translate(-83.146 -71.081)" fill="#e54750"/><path d="M89.307,74.415a.323.323,0,0,0-.473-.436c-.151.134-.251.307-.057.488A.345.345,0,0,0,89.307,74.415Z" transform="translate(-83.255 -71.27)" fill="#06065c"/><path d="M88.937,76.145s-.112.83,1.037,1.293C89.974,77.438,90.215,76.406,88.937,76.145Z" transform="translate(-83.166 -70.512)" fill="#6dbeae"/><path d="M89.921,78.016s-.119-.8.329-.775-.029.757.358.775.311-.551.561-.279.249.622,0,.72a1.554,1.554,0,0,1-.537.091Z" transform="translate(-82.839 -70.144)" fill="#fff"/><path d="M86.176,75.13a.8.8,0,0,1,.708-.491,1.256,1.256,0,0,1-.2.872Z" transform="translate(-84.095 -71.019)" fill="#6dbeae"/></g><path d="M121.979,81.393l-3.4,1.8s-2.076.561-2.021,1.178,3.2-.932,4.039-.932a2.434,2.434,0,0,0,1.771-1.162Z" transform="translate(-71.437 -25.984)" fill="#e6a9a2"/><path d="M125.672,82.434a3.57,3.57,0,0,0-2.153-2.572s-.233.094-.583.251h0l-1.429-.251s-2.831.126-2.93.6.521.532.992.441a3.916,3.916,0,0,1,1.485.178,3.9,3.9,0,0,0-1.1.9l-1.365.726s-2.076.561-2.021,1.178c.047.5,2.128-.425,3.359-.791a5.953,5.953,0,0,0,.326.961l-.67.358s-2.077.561-2.021,1.178c.043.473,1.9-.326,3.141-.726a2,2,0,0,0,.132.175c-.358.143-1.683.7-1.6,1.17.071.373,1.393-.17,2.422-.644a2.692,2.692,0,0,0,1.036-.493l.028-.013a4.45,4.45,0,0,0,1.466-1.17l-.007-.013C125,83.133,125.672,82.434,125.672,82.434Z" transform="translate(-71.437 -26.5)" fill="#e6a9a2"/><path d="M97.927,99.431l-3.47-1.2,3.335,2.185Z" transform="translate(-78.879 -20.315)" fill="#06065c"/><path d="M100.466,99.1l-.139-.013c.373-3.84,1.977-4.843,2.044-4.882l.072.118C102.426,94.329,100.831,95.334,100.466,99.1Z" transform="translate(-76.903 -21.672)" fill="#06065c"/><path d="M107.778,98.651l-2.824.532,2.9.112Z" transform="translate(-75.345 -20.174)" fill="#06065c"/><path d="M106.467,67.9a.414.414,0,0,0,0,.827A.414.414,0,0,0,106.467,67.9Z" transform="translate(-74.97 -30.526)" fill="#fff"/><path d="M108.872,69.889a.413.413,0,0,0,0,.826A.413.413,0,0,0,108.872,69.889Z" transform="translate(-74.161 -29.857)" fill="#fff"/><path d="M112.215,67.485a.414.414,0,0,0,0,.827A.414.414,0,0,0,112.215,67.485Z" transform="translate(-73.035 -30.666)" fill="#fff"/><path d="M115.036,70.1a.413.413,0,0,0,0,.826A.413.413,0,0,0,115.036,70.1Z" transform="translate(-72.086 -29.787)" fill="#fff"/><path d="M118.17,70.1a.413.413,0,0,0,0,.826A.413.413,0,0,0,118.17,70.1Z" transform="translate(-71.03 -29.787)" fill="#fff"/><path d="M116.706,65.919a.413.413,0,0,0,0,.825A.413.413,0,0,0,116.706,65.919Z" transform="translate(-71.523 -31.194)" fill="#fff"/><path d="M117.752,61.53a.413.413,0,0,0,0,.826A.413.413,0,0,0,117.752,61.53Z" transform="translate(-71.171 -32.671)" fill="#fff"/><path d="M107.408,64.038a.413.413,0,0,0,0,.826A.413.413,0,0,0,107.408,64.038Z" transform="translate(-74.653 -31.827)" fill="#fff"/><path d="M107.93,74.381a.413.413,0,0,0,0,.825A.413.413,0,0,0,107.93,74.381Z" transform="translate(-74.477 -28.345)" fill="#fff"/><path d="M111.588,74.067a.414.414,0,0,0,0,.827A.414.414,0,0,0,111.588,74.067Z" transform="translate(-73.246 -28.451)" fill="#fff"/><path d="M117.96,75.321a.414.414,0,0,0,0,.827A.414.414,0,0,0,117.96,75.321Z" transform="translate(-71.101 -28.028)" fill="#fff"/><path d="M118.379,77.934a.413.413,0,0,0,0,.825A.413.413,0,0,0,118.379,77.934Z" transform="translate(-70.96 -27.149)" fill="#fff"/><path d="M114.408,75.948a.414.414,0,0,0,0,.827A.414.414,0,0,0,114.408,75.948Z" transform="translate(-72.297 -27.817)" fill="#fff"/><path d="M108.557,78.352a.413.413,0,0,0,0,.825A.413.413,0,0,0,108.557,78.352Z" transform="translate(-74.266 -27.008)" fill="#fff"/><path d="M114.2,79.4a.413.413,0,0,0,0,.825A.413.413,0,0,0,114.2,79.4Z" transform="translate(-72.367 -26.656)" fill="#fff"/><path d="M114.3,82.739a.414.414,0,0,0,0,.827A.414.414,0,0,0,114.3,82.739Z" transform="translate(-72.332 -25.531)" fill="#fff"/><path d="M109.288,82.321a.414.414,0,0,0,0,.827A.414.414,0,0,0,109.288,82.321Z" transform="translate(-74.02 -25.672)" fill="#fff"/><path d="M112.005,78.665a.414.414,0,0,0,0,.827A.414.414,0,0,0,112.005,78.665Z" transform="translate(-73.106 -26.903)" fill="#fff"/><path d="M107.871,42.164a2.751,2.751,0,0,0,.807,4.722c.249.094.356-.3.11-.4a2.343,2.343,0,0,1-.626-4.034c.206-.168-.086-.458-.291-.291Z" transform="translate(-74.703 -39.208)" fill="#fff"/><path d="M111.765,68.7a3.161,3.161,0,0,1-2.872-2.331c-.668-1.671.531-8.187.584-8.464l.135.025c-.012.067-1.244,6.752-.589,8.386.634,1.583,1.67,2.355,3,2.234,1.679-.152,5.328-1.76,7.126-6.762l.13.045c-1.821,5.067-5.534,6.7-7.243,6.853A2.691,2.691,0,0,1,111.765,68.7Z" transform="translate(-74.087 -33.892)" fill="#06065c"/><path d="M119.375,69.678c-1.449-1.449-.079-9.959-.02-10.32l.135.023c-.013.088-1.418,8.8-.019,10.2Z" transform="translate(-70.713 -33.403)" fill="#06065c"/><path d="M112.738,64.548a1.536,1.536,0,0,1-1.063-.392c-2.283-2.049-1.44-6.293-1.4-6.473l.4.083c-.008.041-.83,4.192,1.274,6.085a1.524,1.524,0,0,0,1.617.116c2.727-1,6.635-5.932,6.824-7.328l.409.056c-.227,1.671-4.356,6.655-7.091,7.66A2.868,2.868,0,0,1,112.738,64.548Z" transform="translate(-73.616 -34.318)" fill="#e54750"/></g></g><g transform="translate(141.194 7.511)"><rect width="0.548" height="32.405" transform="translate(24.825 22.641) rotate(134.323)" fill="#e54750"/><rect width="0.547" height="32.405" transform="matrix(-0.697, 0.717, -0.717, -0.697, 24.21, 27.271)" fill="#e54750"/><rect width="0.548" height="32.403" transform="translate(23.564 31.939) rotate(134.323)" fill="#e54750"/></g><g transform="translate(0 45.384)"><circle cx="8.041" cy="8.041" r="8.041" transform="translate(13.494 4.029)" fill="#dda253"/><path d="M20.312,54.188a8.481,8.481,0,1,1,1.926-11.839A8.491,8.491,0,0,1,20.312,54.188Zm-9.4-13.05a7.6,7.6,0,1,0,10.612,1.727A7.61,7.61,0,0,0,10.912,41.138Z" transform="translate(2.315 -32.452)" fill="#06065c"/><circle cx="3.632" cy="3.632" r="3.632" transform="translate(0 21.167)" fill="#dda253"/><circle cx="3.632" cy="3.632" r="3.632" transform="translate(29.392)" fill="#dda253"/></g></g></svg>